<svg width="40" height="40" viewBox="0 0 40 40" fill="none" xmlns="http://www.w3.org/2000/svg">
<path d="M12.8334 16.6667H17.8334C17.9428 16.6668 18.0512 16.6453 18.1524 16.6034C18.2535 16.5616 18.3454 16.5002 18.4228 16.4228C18.5002 16.3454 18.5616 16.2535 18.6034 16.1524C18.6453 16.0512 18.6668 15.9428 18.6667 15.8334V10.8334C18.6668 10.7239 18.6453 10.6155 18.6034 10.5144C18.5616 10.4132 18.5002 10.3213 18.4228 10.2439C18.3454 10.1665 18.2535 10.1051 18.1524 10.0633C18.0512 10.0214 17.9428 9.99993 17.8334 10H12.8334C12.7239 9.99993 12.6155 10.0214 12.5144 10.0633C12.4132 10.1051 12.3213 10.1665 12.2439 10.2439C12.1665 10.3213 12.1051 10.4132 12.0633 10.5144C12.0214 10.6155 11.9999 10.7239 12 10.8334V15.8334C11.9999 15.9428 12.0214 16.0512 12.0633 16.1524C12.1051 16.2535 12.1665 16.3454 12.2439 16.4228C12.3213 16.5002 12.4132 16.5616 12.5144 16.6034C12.6155 16.6453 12.7239 16.6668 12.8334 16.6667ZM22 15.8334C21.9999 15.9429 22.0214 16.0513 22.0633 16.1524C22.1051 16.2536 22.1665 16.3455 22.2439 16.4229C22.3213 16.5003 22.4132 16.5617 22.5144 16.6035C22.6155 16.6454 22.7239 16.6669 22.8334 16.6668H27.8334C27.9428 16.6669 28.0512 16.6454 28.1524 16.6035C28.2535 16.5617 28.3454 16.5003 28.4228 16.4229C28.5002 16.3455 28.5616 16.2536 28.6034 16.1524C28.6453 16.0513 28.6668 15.9429 28.6667 15.8334V10.8334C28.6668 10.724 28.6453 10.6156 28.6034 10.5144C28.5616 10.4133 28.5002 10.3214 28.4228 10.244C28.3454 10.1666 28.2535 10.1052 28.1524 10.0634C28.0512 10.0215 27.9428 10 27.8334 10.0001H22.8334C22.7239 10 22.6155 10.0215 22.5144 10.0634C22.4132 10.1052 22.3213 10.1666 22.2439 10.244C22.1665 10.3214 22.1051 10.4133 22.0633 10.5144C22.0214 10.6156 21.9999 10.724 22 10.8334V15.8334ZM12.8334 26.6667H17.8334C17.9428 26.6668 18.0512 26.6453 18.1524 26.6034C18.2535 26.5616 18.3454 26.5002 18.4228 26.4228C18.5002 26.3454 18.5616 26.2535 18.6034 26.1524C18.6453 26.0512 18.6668 25.9428 18.6667 25.8334V20.8334C18.6668 20.7239 18.6453 20.6155 18.6034 20.5144C18.5616 20.4132 18.5002 20.3213 18.4228 20.2439C18.3454 20.1665 18.2535 20.1051 18.1524 20.0633C18.0512 20.0214 17.9428 19.9999 17.8334 20H12.8334C12.7239 19.9999 12.6155 20.0214 12.5144 20.0633C12.4132 20.1051 12.3213 20.1665 12.2439 20.2439C12.1665 20.3213 12.1051 20.4132 12.0633 20.5144C12.0214 20.6155 11.9999 20.7239 12 20.8334V25.8334C11.9999 25.9428 12.0214 26.0512 12.0633 26.1524C12.1051 26.2535 12.1665 26.3454 12.2439 26.4228C12.3213 26.5002 12.4132 26.5616 12.5144 26.6034C12.6155 26.6453 12.7239 26.6668 12.8334 26.6667ZM27.8334 20.0001H22.8334C22.7239 20 22.6155 20.0215 22.5144 20.0634C22.4132 20.1052 22.3213 20.1666 22.2439 20.244C22.1665 20.3214 22.1051 20.4133 22.0633 20.5144C22.0214 20.6156 21.9999 20.724 22 20.8334V25.8334C21.9999 25.9429 22.0214 26.0513 22.0633 26.1524C22.1051 26.2536 22.1665 26.3455 22.2439 26.4229C22.3213 26.5003 22.4132 26.5617 22.5144 26.6035C22.6155 26.6454 22.7239 26.6669 22.8334 26.6668H27.8334C27.9428 26.6669 28.0512 26.6454 28.1524 26.6035C28.2535 26.5617 28.3454 26.5003 28.4228 26.4229C28.5002 26.3455 28.5616 26.2536 28.6034 26.1524C28.6453 26.0513 28.6668 25.9429 28.6667 25.8334V20.8334C28.6668 20.724 28.6453 20.6156 28.6034 20.5144C28.5616 20.4133 28.5002 20.3214 28.4228 20.244C28.3454 20.1666 28.2535 20.1052 28.1524 20.0634C28.0512 20.0215 27.9428 20 27.8334 20.0001ZM19.5 6.66672H21.1666C21.2761 6.66679 21.3845 6.64528 21.4856 6.60343C21.5868 6.56157 21.6787 6.50019 21.7561 6.42279C21.8335 6.3454 21.8949 6.2535 21.9367 6.15236C21.9786 6.05122 22.0001 5.94282 22 5.83336C22.0001 5.7239 21.9786 5.6155 21.9367 5.51436C21.8949 5.41322 21.8335 5.32132 21.7561 5.24393C21.6787 5.16653 21.5868 5.10514 21.4856 5.06329C21.3845 5.02143 21.2761 4.99993 21.1666 5H19.5C19.3905 4.99993 19.2821 5.02143 19.181 5.06329C19.0799 5.10514 18.988 5.16653 18.9106 5.24393C18.8332 5.32132 18.7718 5.41322 18.7299 5.51436C18.6881 5.6155 18.6666 5.7239 18.6666 5.83336C18.6666 5.94281 18.6881 6.0512 18.73 6.15233C18.7718 6.25346 18.8332 6.34535 18.9106 6.42275C18.988 6.50014 19.0799 6.56153 19.181 6.60339C19.2822 6.64525 19.3905 6.66677 19.5 6.66672Z" fill="#193CB8"/>
<path d="M30.3334 0H10.3334C8.495 0 7 1.49492 7 3.33336V36.6667C7 38.5051 8.495 40 10.3334 40H30.3334C32.1717 40 33.6667 38.5051 33.6667 36.6666V3.33336C33.6667 1.49492 32.1717 0 30.3334 0ZM22.8334 36.6666H17.8334C17.3727 36.6666 17 36.2939 17 35.8333C17 35.3727 17.3727 35 17.8334 35H22.8334C23.294 35 23.6667 35.3727 23.6667 35.8334C23.6667 36.294 23.294 36.6666 22.8334 36.6666ZM30.3334 31.6666H10.3334V3.33336H30.3334V31.6666Z" fill="#51A2FF"/>
<path d="M27.8334 6.66672C28.2936 6.66672 28.6667 6.29361 28.6667 5.83336C28.6667 5.37311 28.2936 5 27.8334 5C27.3731 5 27 5.37311 27 5.83336C27 6.29361 27.3731 6.66672 27.8334 6.66672Z" fill="#00A63E"/>
</svg>
