<svg width="40" height="40" viewBox="0 0 40 40" fill="none" xmlns="http://www.w3.org/2000/svg">
<path d="M37.1869 19.8677C37.174 18.2006 36.2862 16.7527 34.9689 15.9324C35.3503 15.2474 35.5826 14.469 35.5761 13.63C35.56 11.5379 34.1748 9.62348 32.2775 8.97645C32.2751 8.9534 32.9583 6.88942 31.2421 5.19762C30.6477 4.61317 29.8664 4.21684 28.9976 4.10637C28.3506 2.27223 26.5925 0.730356 24.5387 0.746215C21.9497 0.766215 19.8694 3.1152 19.8894 5.70418C19.8694 3.1152 17.753 0.798715 15.164 0.818715C13.1102 0.834574 11.3761 2.40348 10.7576 4.24739C9.89059 4.37129 9.11559 4.77965 8.53035 5.37325C6.86668 7.06465 7.55332 9.15973 7.5534 9.16762C5.66637 9.84395 4.31098 11.7795 4.32715 13.8716C4.33363 14.7107 4.57793 15.4854 4.96988 16.1643C3.66543 17.0049 2.80012 18.4664 2.81301 20.1335C2.82199 21.2982 3.27606 22.6318 4.05535 23.4833C3.31332 24.3196 2.85379 25.4114 2.86316 26.6176C2.87434 28.0668 3.55613 29.3412 4.59629 30.1934C4.51387 30.5479 4.45887 30.9125 4.46184 31.2929C4.48184 33.8819 6.59824 36.1984 9.18723 36.1784C9.36457 36.177 9.53309 36.1429 9.70481 36.1221C10.588 37.9872 12.4808 39.2781 14.68 39.2611C17.7002 39.2377 20.1278 36.5361 20.1045 33.5158C20.1279 36.5361 22.5969 39.1999 25.6171 39.1765C27.8163 39.1595 29.6889 37.8396 30.5432 35.961C30.7153 35.9792 30.8843 36.0107 31.0616 36.0093C33.6506 35.9893 35.7309 33.6404 35.7109 31.0514C35.7079 30.6709 35.6473 30.3073 35.5594 29.9541C36.5864 29.086 37.2483 27.8011 37.2371 26.352C37.2278 25.1457 36.7514 24.0611 35.9965 23.2365C36.7632 22.3722 37.196 21.0312 37.1869 19.8677Z" fill="#FFA8BE"/>
<path d="M23.9062 8.04688C24.3375 8.04688 24.6875 7.69687 24.6875 7.26562C24.6875 6.83437 24.3375 6.48438 23.9062 6.48438C23.475 6.48438 23.125 6.83437 23.125 7.26562C23.125 7.69687 23.475 8.04688 23.9062 8.04688ZM16.0938 8.04688C16.525 8.04688 16.875 7.69687 16.875 7.26562C16.875 6.83437 16.525 6.48438 16.0938 6.48438C15.6625 6.48438 15.3125 6.83437 15.3125 7.26562C15.3125 7.69687 15.6625 8.04688 16.0938 8.04688Z" fill="black"/>
<path d="M2.03125 26.4844C2.03125 27.9387 2.62094 29.3242 3.66398 30.353C3.12773 33.5945 5.71289 36.875 9.0625 36.875C9.08672 36.875 9.11055 36.8746 9.13391 36.8739C10.2445 38.7897 12.3059 40 14.5312 40C16.8506 40 18.9231 38.6078 20 36.602C21.0769 38.6078 23.1494 40 25.4688 40C27.6941 40 29.7555 38.7897 30.8661 36.8739C30.8895 36.8746 30.9133 36.875 30.9375 36.875C33.9019 36.875 36.4062 34.2633 36.4062 31.1719C36.4062 30.9087 36.3831 30.638 36.336 30.353C37.3791 29.3242 37.9688 27.9388 37.9688 26.4844C37.9688 25.3628 37.6152 24.2712 36.9627 23.3502C37.6333 22.3438 37.9688 21.088 37.9688 20C37.9688 18.3597 37.2401 16.8357 35.9897 15.8023C36.2664 15.141 36.4062 14.4533 36.4062 13.75C36.4062 11.5738 35.1362 9.54664 33.248 8.6C33.5345 6.22391 31.9862 4.04594 29.6918 3.49039C28.7937 1.41437 26.7949 0 24.6875 0C22.7258 0 20.9663 1.14422 20 2.81375C19.0336 1.14422 17.2741 0 15.3125 0C13.2049 0 11.2061 1.41438 10.3082 3.49047C8 4.04953 6.46625 6.23836 6.75195 8.6C4.86383 9.54656 3.59375 11.5738 3.59375 13.75C3.59375 14.4533 3.73359 15.141 4.01031 15.8023C2.75992 16.8358 2.03125 18.3597 2.03125 20C2.03125 21.0938 2.36953 22.3478 3.03727 23.3501C2.38477 24.2712 2.03125 25.3628 2.03125 26.4844ZM24.6875 1.5625C26.0356 1.5625 27.1813 2.3925 27.8702 3.41516C26.8934 3.56562 25.992 4.01969 25.2791 4.73164C24.9738 5.03656 24.9735 5.53117 25.2784 5.83648C25.5834 6.1418 26.0781 6.14203 26.3833 5.83711C26.9743 5.24695 27.7592 4.92188 28.5938 4.92188C30.312 4.92188 31.7188 6.31148 31.7188 8.04688C31.7188 8.0675 31.7172 8.08758 31.7168 8.10812C31.459 8.06767 31.1985 8.04719 30.9375 8.04688C27.9731 8.04688 25.4688 10.6586 25.4688 13.75C25.4688 14.1815 25.8186 14.5312 26.25 14.5312C26.6814 14.5312 27.0312 14.1815 27.0312 13.75C27.0312 11.5443 28.8566 9.60938 30.9375 9.60938C33.1236 9.60938 34.8438 11.6404 34.8438 13.75C34.8438 14.4065 34.6677 15.0499 34.3204 15.6623C34.2215 15.8368 34.1934 16.0427 34.2421 16.2373C34.2908 16.4319 34.4125 16.6003 34.582 16.7077C35.7243 17.4313 36.4062 18.6621 36.4062 20C36.4062 22.2134 34.614 24.1406 32.5 24.1406C32.0686 24.1406 31.7188 24.4904 31.7188 24.9219C31.7188 25.3534 32.0686 25.7031 32.5 25.7031C33.7305 25.7031 34.896 25.242 35.833 24.4743C36.2059 25.0823 36.4062 25.7758 36.4062 26.4844C36.4062 27.6305 35.8872 28.7198 34.9823 29.4729C34.8702 29.5662 34.7864 29.689 34.7405 29.8274C34.6945 29.9658 34.6883 30.1143 34.7224 30.2561C34.8052 30.6001 34.8438 30.8911 34.8438 31.1718C34.8438 33.5968 32.6504 35.5566 30.6729 35.2863C30.6179 35.2786 30.5629 35.2716 30.5077 35.2652C30.3448 35.2466 30.1801 35.2798 30.0371 35.3601C29.894 35.4404 29.7799 35.5637 29.7109 35.7125C28.9427 37.3679 27.2774 38.4375 25.4688 38.4375C22.9279 38.4375 20.7812 36.1835 20.7812 33.5156C20.7812 30.9309 22.8841 28.8281 25.4688 28.8281C25.9002 28.8281 26.25 28.4784 26.25 28.0469C26.25 27.6154 25.9002 27.2656 25.4688 27.2656C23.6034 27.2656 21.9274 28.0881 20.7812 29.3882V14.5312C20.7812 13.6697 21.4822 12.9688 22.3438 12.9688C22.7752 12.9688 23.125 12.619 23.125 12.1875C23.125 11.756 22.7752 11.4062 22.3438 11.4062C21.7949 11.4058 21.2558 11.5509 20.7812 11.8266V5.70312C20.7812 3.49734 22.6066 1.5625 24.6875 1.5625ZM5.41812 16.7077C5.58757 16.6003 5.70923 16.4319 5.75791 16.2373C5.80659 16.0427 5.77855 15.8368 5.67961 15.6623C5.33234 15.0499 5.15625 14.4065 5.15625 13.75C5.15625 11.6414 6.87516 9.60938 9.0625 9.60938C11.1434 9.60938 12.9688 11.5443 12.9688 13.75C12.9688 14.1815 13.3185 14.5312 13.75 14.5312C14.1815 14.5312 14.5312 14.1815 14.5312 13.75C14.5312 10.6586 12.0269 8.04688 9.0625 8.04688C8.80094 8.04688 8.54078 8.06805 8.2832 8.10812C8.28281 8.08758 8.28125 8.06758 8.28125 8.04688C8.28125 6.30336 9.69664 4.92188 11.4062 4.92188C12.2408 4.92188 13.0258 5.24695 13.6166 5.83711C13.9218 6.14203 14.4164 6.14172 14.7214 5.83656C15.0263 5.53125 15.0261 5.03664 14.7209 4.73172C14.0081 4.01977 13.1066 3.5657 12.1297 3.41523C12.8187 2.3925 13.9644 1.5625 15.3125 1.5625C17.3934 1.5625 19.2188 3.49734 19.2188 5.70312V11.8266C18.7442 11.5509 18.2051 11.4058 17.6562 11.4062C17.2248 11.4062 16.875 11.756 16.875 12.1875C16.875 12.619 17.2248 12.9688 17.6562 12.9688C18.5178 12.9688 19.2188 13.6697 19.2188 14.5312V29.3882C18.0726 28.0881 16.3966 27.2656 14.5312 27.2656C14.0998 27.2656 13.75 27.6154 13.75 28.0469C13.75 28.4784 14.0998 28.8281 14.5312 28.8281C17.1159 28.8281 19.2188 30.9309 19.2188 33.5156C19.2188 36.1835 17.0721 38.4375 14.5312 38.4375C12.7225 38.4375 11.0574 37.3679 10.2891 35.7125C10.22 35.5638 10.1059 35.4405 9.96289 35.3602C9.81987 35.28 9.65523 35.2467 9.49227 35.2652C9.43703 35.2715 9.38211 35.2788 9.32719 35.2863C7.10375 35.5904 4.59984 33.0727 5.27766 30.2561C5.31177 30.1143 5.30551 29.9658 5.25959 29.8274C5.21367 29.689 5.12991 29.5662 5.01781 29.4729C4.11281 28.7198 3.59375 27.6305 3.59375 26.4844C3.59375 25.7757 3.79414 25.0822 4.16703 24.4741C5.10406 25.242 6.26961 25.7031 7.5 25.7031C7.93148 25.7031 8.28125 25.3534 8.28125 24.9219C8.28125 24.4904 7.93148 24.1406 7.5 24.1406C5.37977 24.1406 3.59375 22.2055 3.59375 20C3.59375 18.6621 4.2757 17.4313 5.41812 16.7077Z" fill="black"/>
<path d="M12.8594 19.1451C12.5586 20.0926 11.6708 20.7812 10.625 20.7812C10.1935 20.7812 9.84375 21.131 9.84375 21.5625C9.84375 21.994 10.1935 22.3438 10.625 22.3438C12.5279 22.3438 14.1164 20.9758 14.4611 19.1717C15.5526 19.0293 16.5756 18.5602 17.3959 17.826C17.7174 17.5384 17.7449 17.0445 17.4573 16.7229C17.1696 16.4013 16.6758 16.3738 16.3541 16.6615C13.8488 18.9025 9.84375 17.1115 9.84375 13.75C9.84375 13.3185 9.49398 12.9688 9.0625 12.9688C8.63102 12.9688 8.28125 13.3185 8.28125 13.75C8.28125 16.4621 10.2662 18.7184 12.8594 19.1451ZM9.0625 30.3906C8.63102 30.3906 8.28125 30.7404 8.28125 31.1719C8.28125 31.6034 8.63102 31.9531 9.0625 31.9531C11.1434 31.9531 12.9688 33.888 12.9688 36.0938C12.9688 36.5252 13.3185 36.875 13.75 36.875C14.1815 36.875 14.5312 36.5252 14.5312 36.0938C14.5312 33.0023 12.0269 30.3906 9.0625 30.3906ZM15.3125 24.1406C12.6652 24.1406 10.3922 25.5926 9.19531 27.7038C8.98258 28.0791 9.11438 28.5559 9.48969 28.7687C9.86508 28.9814 10.3418 28.8497 10.5546 28.4743C11.487 26.8293 13.2562 25.7031 15.3125 25.7031C15.744 25.7031 16.0938 25.3534 16.0938 24.9219C16.0938 24.4904 15.744 24.1406 15.3125 24.1406ZM22.5427 16.7229C22.255 17.0445 22.2826 17.5384 22.6041 17.826C23.4244 18.5602 24.4474 19.0293 25.5389 19.1717C25.8836 20.9758 27.4721 22.3438 29.375 22.3438C29.8064 22.3438 30.1562 21.994 30.1562 21.5625C30.1562 21.131 29.8064 20.7812 29.375 20.7812C28.3292 20.7812 27.4414 20.0926 27.1406 19.1451C29.7338 18.7184 31.7188 16.4621 31.7188 13.75C31.7188 13.3185 31.3689 12.9688 30.9375 12.9688C30.5061 12.9688 30.1562 13.3185 30.1562 13.75C30.1562 15.9039 28.4039 17.6562 26.25 17.6562C25.2891 17.6567 24.3618 17.3025 23.6459 16.6615C23.3244 16.3738 22.8304 16.4012 22.5427 16.7229ZM30.9375 30.3906C27.9731 30.3906 25.4688 33.0023 25.4688 36.0938C25.4688 36.5252 25.8186 36.875 26.25 36.875C26.6814 36.875 27.0312 36.5252 27.0312 36.0938C27.0312 33.888 28.8566 31.9531 30.9375 31.9531C31.3689 31.9531 31.7188 31.6034 31.7188 31.1719C31.7188 30.7404 31.3689 30.3906 30.9375 30.3906ZM29.4452 28.4743C29.6583 28.8502 30.1354 28.9812 30.5102 28.7687C30.8855 28.556 31.0173 28.0792 30.8047 27.7038C29.6108 25.5977 27.3409 24.1406 24.6875 24.1406C24.2561 24.1406 23.9062 24.4904 23.9062 24.9219C23.9062 25.3534 24.2561 25.7031 24.6875 25.7031C26.7423 25.7031 28.5128 26.829 29.4452 28.4743Z" fill="black"/>
</svg>
