<svg width="40" height="40" viewBox="0 0 40 40" fill="none" xmlns="http://www.w3.org/2000/svg">
<g clip-path="url(#clip0_2382_1961)">
<path d="M36.4088 14.3594H30.2552C29.8488 14.3647 29.4606 14.5285 29.1733 14.8158C28.8859 15.1032 28.7221 15.4914 28.7168 15.8978V38.461C28.7221 38.8673 28.8859 39.2555 29.1733 39.5429C29.4606 39.8303 29.8488 39.9941 30.2552 39.9994H36.4088C37.3592 39.994 38.2691 39.6141 38.9411 38.9421C39.6131 38.27 39.993 37.3601 39.9984 36.4098V17.949C39.993 16.9986 39.6131 16.0887 38.9411 15.4167C38.2691 14.7447 37.3592 14.3648 36.4088 14.3594ZM9.7432 14.3594H3.5896C2.63924 14.3648 1.72934 14.7447 1.05732 15.4167C0.385302 16.0887 0.00538461 16.9986 0 17.949V36.4098C0.00538461 37.3601 0.385302 38.27 1.05732 38.9421C1.72934 39.6141 2.63924 39.994 3.5896 39.9994H9.7432C10.1496 39.9941 10.5378 39.8303 10.8251 39.5429C11.1125 39.2555 11.2763 38.8673 11.2816 38.461V15.8978C11.2763 15.4914 11.1125 15.1032 10.8251 14.8158C10.5378 14.5285 10.1496 14.3647 9.7432 14.3594Z" fill="#42A5F5"/>
<path d="M28.204 0H11.7944C10.8441 0.00538461 9.93417 0.385302 9.26215 1.05732C8.59014 1.72934 8.21022 2.63924 8.20483 3.5896V38.46C8.21015 38.8664 8.37393 39.2546 8.6613 39.5419C8.94866 39.8293 9.33688 39.9931 9.74323 39.9984H30.2552C30.6616 39.9931 31.0498 39.8293 31.3372 39.5419C31.6245 39.2546 31.7883 38.8664 31.7936 38.46V3.5896C31.7882 2.63924 31.4083 1.72934 30.7363 1.05732C30.0643 0.385302 29.1544 0.00538461 28.204 0Z" fill="#90CAF9"/>
<path d="M22.0504 26.668H17.948C16.9976 26.6734 16.0877 27.0533 15.4157 27.7253C14.7437 28.3973 14.3638 29.3072 14.3584 30.2576V38.4624C14.3637 38.8687 14.5275 39.2569 14.8149 39.5443C15.1022 39.8317 15.4904 39.9955 15.8968 40.0008H24.1016C24.508 39.9955 24.8962 39.8317 25.1835 39.5443C25.4709 39.2569 25.6347 38.8687 25.64 38.4624V30.2576C25.6346 29.3072 25.2547 28.3973 24.5827 27.7253C23.9107 27.0533 23.0008 26.6734 22.0504 26.668Z" fill="#42A5F5"/>
<path d="M36.4088 14.3584H31.7936V3.5896C31.7882 2.63924 31.4083 1.72934 30.7363 1.05732C30.0643 0.385302 29.1544 0.00538461 28.204 0H11.7944C10.844 0.00538461 9.93413 0.385302 9.26212 1.05732C8.5901 1.72934 8.21018 2.63924 8.2048 3.5896V14.3584H3.5896C2.63924 14.3638 1.72934 14.7437 1.05732 15.4157C0.385302 16.0877 0.00538461 16.9976 0 17.948V36.4088C0.00538461 37.3592 0.385302 38.2691 1.05732 38.9411C1.72934 39.6131 2.63924 39.993 3.5896 39.9984H36.4088C37.3592 39.993 38.2691 39.6131 38.9411 38.9411C39.6131 38.2691 39.993 37.3592 39.9984 36.4088V17.948C39.993 16.9976 39.6131 16.0877 38.9411 15.4157C38.2691 14.7437 37.3592 14.3638 36.4088 14.3584ZM8.2048 36.9216H3.5896C3.4536 36.9216 3.32316 36.8676 3.227 36.7714C3.13083 36.6752 3.0768 36.5448 3.0768 36.4088V17.948C3.0768 17.812 3.13083 17.6816 3.227 17.5854C3.32316 17.4892 3.4536 17.4352 3.5896 17.4352H8.2048V36.9216ZM22.5632 36.9216H17.4352V30.2552C17.4352 30.1192 17.4892 29.9888 17.5854 29.8926C17.6816 29.7964 17.812 29.7424 17.948 29.7424H22.0504C22.1864 29.7424 22.3168 29.7964 22.413 29.8926C22.5092 29.9888 22.5632 30.1192 22.5632 30.2552V36.9216ZM28.7168 36.9216H25.64V30.2552C25.6346 29.3048 25.2547 28.3949 24.5827 27.7229C23.9107 27.0509 23.0008 26.671 22.0504 26.6656H17.948C16.9976 26.671 16.0877 27.0509 15.4157 27.7229C14.7437 28.3949 14.3638 29.3048 14.3584 30.2552V36.9216H11.2816V3.5896C11.2816 3.4536 11.3356 3.32316 11.4318 3.227C11.528 3.13083 11.6584 3.0768 11.7944 3.0768H28.204C28.34 3.0768 28.4704 3.13083 28.5666 3.227C28.6628 3.32316 28.7168 3.4536 28.7168 3.5896V36.9216ZM36.9216 36.4088C36.9216 36.5448 36.8676 36.6752 36.7714 36.7714C36.6752 36.8676 36.5448 36.9216 36.4088 36.9216H31.7936V17.4352H36.4088C36.5448 17.4352 36.6752 17.4892 36.7714 17.5854C36.8676 17.6816 36.9216 17.812 36.9216 17.948V36.4088ZM25.64 19.9992C25.6347 20.4056 25.4709 20.7938 25.1835 21.0811C24.8962 21.3685 24.508 21.5323 24.1016 21.5376H22.0504C21.6424 21.5376 21.2511 21.3755 20.9626 21.087C20.6741 20.7985 20.512 20.4072 20.512 19.9992C20.512 19.5912 20.6741 19.1999 20.9626 18.9114C21.2511 18.6229 21.6424 18.4608 22.0504 18.4608H24.1016C24.508 18.4661 24.8962 18.6299 25.1835 18.9173C25.4709 19.2046 25.6347 19.5928 25.64 19.9992ZM25.64 13.8456C25.6347 14.252 25.4709 14.6402 25.1835 14.9275C24.8962 15.2149 24.508 15.3787 24.1016 15.384H22.0504C21.6424 15.384 21.2511 15.2219 20.9626 14.9334C20.6741 14.6449 20.512 14.2536 20.512 13.8456C20.512 13.4376 20.6741 13.0463 20.9626 12.7578C21.2511 12.4693 21.6424 12.3072 22.0504 12.3072H24.1016C24.508 12.3125 24.8962 12.4763 25.1835 12.7637C25.4709 13.051 25.6347 13.4392 25.64 13.8456ZM25.64 7.692C25.6347 8.09836 25.4709 8.48658 25.1835 8.77394C24.8962 9.0613 24.508 9.22509 24.1016 9.2304H22.0504C21.6424 9.2304 21.2511 9.06832 20.9626 8.77981C20.6741 8.49131 20.512 8.10001 20.512 7.692C20.512 7.28399 20.6741 6.89269 20.9626 6.60419C21.2511 6.31568 21.6424 6.1536 22.0504 6.1536H24.1016C24.508 6.15891 24.8962 6.3227 25.1835 6.61006C25.4709 6.89742 25.6347 7.28564 25.64 7.692ZM19.4864 19.9992C19.4811 20.4056 19.3173 20.7938 19.0299 21.0811C18.7426 21.3685 18.3544 21.5323 17.948 21.5376H15.8968C15.4888 21.5376 15.0975 21.3755 14.809 21.087C14.5205 20.7985 14.3584 20.4072 14.3584 19.9992C14.3584 19.5912 14.5205 19.1999 14.809 18.9114C15.0975 18.6229 15.4888 18.4608 15.8968 18.4608H17.948C18.3544 18.4661 18.7426 18.6299 19.0299 18.9173C19.3173 19.2046 19.4811 19.5928 19.4864 19.9992ZM19.4864 13.8456C19.4811 14.252 19.3173 14.6402 19.0299 14.9275C18.7426 15.2149 18.3544 15.3787 17.948 15.384H15.8968C15.4888 15.384 15.0975 15.2219 14.809 14.9334C14.5205 14.6449 14.3584 14.2536 14.3584 13.8456C14.3584 13.4376 14.5205 13.0463 14.809 12.7578C15.0975 12.4693 15.4888 12.3072 15.8968 12.3072H17.948C18.3544 12.3125 18.7426 12.4763 19.0299 12.7637C19.3173 13.051 19.4811 13.4392 19.4864 13.8456ZM19.4864 7.692C19.4811 8.09836 19.3173 8.48658 19.0299 8.77394C18.7426 9.0613 18.3544 9.22509 17.948 9.2304H15.8968C15.4888 9.2304 15.0975 9.06832 14.809 8.77981C14.5205 8.49131 14.3584 8.10001 14.3584 7.692C14.3584 7.28399 14.5205 6.89269 14.809 6.60419C15.0975 6.31568 15.4888 6.1536 15.8968 6.1536H17.948C18.3544 6.15891 18.7426 6.3227 19.0299 6.61006C19.3173 6.89742 19.4811 7.28564 19.4864 7.692Z" fill="#353535"/>
</g>
<defs>
<clipPath id="clip0_2382_1961">
<rect width="39.9984" height="40.0008" fill="white"/>
</clipPath>
</defs>
</svg>
