<svg width="40" height="40" viewBox="0 0 40 40" fill="none" xmlns="http://www.w3.org/2000/svg">
<path d="M6.95652 25.6055H1.73913C0.778635 25.6055 0 26.3841 0 27.3446V34.3011C0 35.2616 0.778635 36.0403 1.73913 36.0403H6.95652C7.91702 36.0403 8.69565 35.2616 8.69565 34.3011V27.3446C8.69565 26.3841 7.91702 25.6055 6.95652 25.6055Z" fill="#2B7FFF"/>
<path d="M27.826 22.1328H22.6086C21.6481 22.1328 20.8695 22.9114 20.8695 23.8719V34.3067C20.8695 35.2672 21.6481 36.0459 22.6086 36.0459H27.826C28.7865 36.0459 29.5652 35.2672 29.5652 34.3067V23.8719C29.5652 22.9114 28.7865 22.1328 27.826 22.1328Z" fill="#2B7FFF"/>
<path d="M17.3913 18.6523H12.1739C11.2134 18.6523 10.4348 19.431 10.4348 20.3915V34.3045C10.4348 35.265 11.2134 36.0437 12.1739 36.0437H17.3913C18.3518 36.0437 19.1305 35.265 19.1305 34.3045V20.3915C19.1305 19.431 18.3518 18.6523 17.3913 18.6523Z" fill="#2B7FFF"/>
<path d="M38.2608 13.4375H33.0435C32.083 13.4375 31.3043 14.2161 31.3043 15.1766V34.3071C31.3043 35.2676 32.083 36.0462 33.0435 36.0462H38.2608C39.2213 36.0462 40 35.2676 40 34.3071V15.1766C40 14.2161 39.2213 13.4375 38.2608 13.4375Z" fill="#2B7FFF"/>
<path d="M3.48 22.1304C3.82304 22.1308 4.15842 22.0291 4.44348 21.8383L14.1704 15.3548L23.7983 18.5635C24.1047 18.6654 24.4334 18.68 24.7476 18.6057C25.0618 18.5314 25.3491 18.371 25.5774 18.1426L34.7826 8.93739V9.95652C34.7826 10.4178 34.9658 10.8601 35.292 11.1863C35.6181 11.5124 36.0605 11.6957 36.5217 11.6957C36.983 11.6957 37.4253 11.5124 37.7515 11.1863C38.0776 10.8601 38.2609 10.4178 38.2609 9.95652V4.73913C38.2609 4.27788 38.0776 3.83553 37.7515 3.50938C37.4253 3.18323 36.983 3 36.5217 3H31.3044C30.8431 3 30.4007 3.18323 30.0746 3.50938C29.7484 3.83553 29.5652 4.27788 29.5652 4.73913C29.5652 5.20038 29.7484 5.64273 30.0746 5.96888C30.4007 6.29503 30.8431 6.47826 31.3044 6.47826H32.3235L23.8783 14.9235L14.4626 11.7843C14.2115 11.7015 13.9448 11.6767 13.6827 11.712C13.4206 11.7472 13.1699 11.8415 12.9496 11.9878L2.51478 18.9444C2.20434 19.1514 1.9687 19.4527 1.84268 19.8039C1.71665 20.1551 1.70692 20.5375 1.81493 20.8947C1.92293 21.2519 2.14294 21.5648 2.44246 21.7873C2.74198 22.0099 3.10687 22.1301 3.48 22.1304Z" fill="#00A63E"/>
</svg>
