<svg width="40" height="40" viewBox="0 0 40 40" fill="none" xmlns="http://www.w3.org/2000/svg">
<g clip-path="url(#clip0_4024_1064)">
<path fill-rule="evenodd" clip-rule="evenodd" d="M28.7673 26.8902C28.666 27.0193 28.5402 27.1272 28.3972 27.2077C28.2541 27.2882 28.0966 27.3397 27.9336 27.3593C27.7707 27.3789 27.6054 27.3662 27.4474 27.3219C27.2893 27.2776 27.1415 27.2025 27.0125 27.1011L19.2275 20.9827C19.0808 20.8673 18.9617 20.7206 18.8791 20.5533C18.7965 20.386 18.7524 20.2022 18.75 20.0156L18.5891 7.3025C18.587 7.13834 18.6173 6.97539 18.6782 6.82294C18.7391 6.67049 18.8295 6.53154 18.9441 6.41401C19.0587 6.29648 19.1954 6.20269 19.3463 6.13798C19.4971 6.07327 19.6593 6.03891 19.8234 6.03688H19.8391C20.1679 6.03685 20.4835 6.1664 20.7175 6.39745C20.9514 6.6285 21.085 6.94244 21.0891 7.27125L21.2422 19.3864L28.557 25.1352C28.6861 25.2366 28.794 25.3624 28.8744 25.5056C28.9549 25.6487 29.0064 25.8063 29.0259 25.9693C29.0454 26.1324 29.0326 26.2976 28.9882 26.4557C28.9438 26.6138 28.8687 26.7616 28.7672 26.8906V26.89L28.7673 26.8902ZM20 37.5C29.6492 37.5 37.5 29.6491 37.5 20C37.5 10.3509 29.6492 2.5 20 2.5C10.3508 2.5 2.5 10.3505 2.5 20C2.5 29.6495 10.3509 37.5 20 37.5ZM20 0C8.97187 0 0 8.97203 0 20C0 31.028 8.97187 40 20 40C31.0281 40 40 31.0282 40 20C40 8.9718 31.0281 0 20 0Z" fill="#282828"/>
<path fill-rule="evenodd" clip-rule="evenodd" d="M2.5 20C2.5 29.6494 10.3509 37.5 20 37.5C29.6492 37.5 37.5 29.6491 37.5 20C37.5 10.3509 29.6492 2.5 20 2.5C10.3508 2.5 2.5 10.3505 2.5 20ZM27.0125 27.1008L19.2275 20.9823C19.0808 20.8671 18.9618 20.7204 18.8792 20.5531C18.7965 20.3858 18.7524 20.2022 18.75 20.0156L18.5891 7.3025C18.587 7.13834 18.6173 6.97539 18.6782 6.82294C18.7391 6.67049 18.8295 6.53154 18.9441 6.41401C19.0587 6.29648 19.1954 6.20269 19.3463 6.13798C19.4971 6.07327 19.6593 6.03891 19.8234 6.03688H19.8391C20.1679 6.03685 20.4835 6.1664 20.7175 6.39745C20.9514 6.6285 21.085 6.94244 21.0891 7.27125L21.2422 19.3864L28.557 25.1352C28.686 25.2366 28.7939 25.3624 28.8743 25.5055C28.9547 25.6486 29.0062 25.8062 29.0258 25.9691C29.0453 26.1321 29.0326 26.2974 28.9883 26.4554C28.944 26.6135 28.869 26.7613 28.7675 26.8904C28.6661 27.0194 28.5403 27.1273 28.3972 27.2077C28.2541 27.2881 28.0965 27.3396 27.9336 27.3592C27.7706 27.3787 27.6053 27.366 27.4473 27.3217C27.2892 27.2774 27.1414 27.2024 27.0123 27.1009L27.0125 27.1008Z" fill="#FCC800"/>
</g>
<defs>
<clipPath id="clip0_4024_1064">
<rect width="40" height="40" fill="white"/>
</clipPath>
</defs>
</svg>
