<svg width="40" height="27" viewBox="0 0 40 27" fill="none" xmlns="http://www.w3.org/2000/svg">
<path fill-rule="evenodd" clip-rule="evenodd" d="M1.92647 0.128669C2.7066 -0.309909 4.08986 0.440096 3.93442 1.34913C3.75605 2.39253 3.39823 3.42935 3.18564 4.47399C2.56167 7.54027 2.16533 10.6761 2.39677 13.81C2.49504 14.768 2.62332 16.1403 3.4453 16.7928C4.41308 17.5609 5.7863 17.1117 6.72046 16.543C8.07622 15.7174 9.07333 14.6981 10.0342 13.4546C10.4213 12.9536 10.7435 12.381 11.1334 11.9127C9.92023 9.96162 8.94581 7.7164 10.0829 5.46984C10.6024 4.4672 11.4629 3.49625 12.5502 3.13216C13.7103 2.74366 15.2657 3.23041 15.5601 4.50545C16.0984 6.8375 14.5837 10.0872 13.5258 12.0981C13.9069 12.5707 14.316 13.0201 14.7507 13.4438C18.9698 17.6043 28.0112 19.8433 33.7437 20.7684C34.2586 20.8515 34.7907 20.9166 35.3085 20.9861C34.6338 20.492 33.9355 19.8779 33.2717 19.3568C32.7349 18.9178 32.1887 18.4876 31.6652 18.0335C31.0128 17.4673 31.1873 16.9781 31.7281 16.4251C32.38 15.9004 32.8858 15.9932 33.4959 16.4949C35.4619 18.1113 37.4578 19.6774 39.4207 21.2992C40.0466 21.8163 40.089 22.0862 39.7074 22.8403C39.3899 23.3342 38.0941 23.7237 37.5538 23.9237L32.6594 25.7312C32.2166 25.8945 30.7885 26.5219 30.5183 26.2166C29.0082 24.5107 31.5021 23.8523 32.5758 23.484C33.5736 23.1417 34.072 22.8895 34.8487 22.6964C34.2064 22.6182 33.5399 22.4602 32.9041 22.3339C26.6058 21.083 17.0316 18.6689 12.6061 13.7317C11.4238 15.9215 9.48828 17.5436 7.1303 18.3461C4.2766 19.3173 1.42662 18.3258 0.557382 15.2511C-0.569878 11.2636 0.212539 6.83209 1.14179 2.88271C1.31862 2.13121 1.5881 0.783766 1.92647 0.128669ZM13.0402 5.48097C11.9451 6.44682 11.5864 7.76377 11.967 9.17689C12.0159 9.35834 12.0434 9.50024 12.1357 9.67131L12.1971 9.69471L12.2404 9.63094C12.5526 8.8416 12.9601 7.83649 13.0755 7.00306C13.1388 6.54588 13.1309 5.95803 13.1821 5.47004L13.1203 5.44007L13.0402 5.48097Z" fill="#818181"/>
</svg>
