<svg width="40" height="40" viewBox="0 0 40 40" fill="none" xmlns="http://www.w3.org/2000/svg">
<g clip-path="url(#clip0_4024_404)">
<path d="M40.0005 3.51227V25.0626C40.0005 26.9784 38.4462 28.5327 36.5294 28.5327H3.47064C1.55385 28.5327 0.000488281 26.9784 0.000488281 25.0625V3.51227C0.000488281 1.61617 1.53768 0.078125 3.43408 0.078125H36.5663C38.4624 0.078125 40.0005 1.61625 40.0005 3.51227Z" fill="#C4E2F2"/>
<path d="M28.0681 33.1621L20.0002 35.0005L11.9316 33.1621L13.037 28.532L19.6574 26.0977L26.9627 28.532L27.3204 30.0307L28.0681 33.1621Z" fill="#2D303B"/>
<path d="M40.0005 24.6523V25.0604C40.0005 26.9772 38.4462 28.5315 36.5294 28.5315H3.47064C1.55385 28.5315 0.000488281 26.9772 0.000488281 25.0604V24.6523H40.0005ZM28.0681 33.1619H15.7278L16.4754 30.0305H27.3204L28.0681 33.1619Z" fill="#3C3F4D"/>
<path d="M32.823 35.7419V36.8415H7.17749V35.7419C7.17749 34.3183 8.33171 33.1641 9.7553 33.1641H30.2451C31.6687 33.1641 32.823 34.3183 32.823 35.7419Z" fill="#2D303B"/>
<path d="M35.7238 28.5302H17.6104L18.4975 19.9883H34.8363L35.7238 28.5302Z" fill="#83B2C6"/>
<path d="M18.7015 10.3681L18.4876 12.0005L17.8028 17.2163C17.6795 18.1556 16.8797 18.8578 15.9317 18.8578H7.75707C6.80949 18.8578 6.00941 18.1556 5.88598 17.2163L4.9873 10.3681L11.8446 8.53125L18.7015 10.3681Z" fill="#1F81A3"/>
<path d="M18.4876 12L17.8028 17.2157C17.6795 18.1551 16.8797 18.8573 15.9317 18.8573H10.3694C9.42147 18.8573 8.62162 18.1551 8.49826 17.2157L8.03412 13.6809C7.91725 12.7904 8.61061 12 9.50873 12H18.4876Z" fill="#2C92BF"/>
<path d="M19.6403 8.5193V9.51852C19.6403 9.98633 19.261 10.3659 18.7932 10.3659H4.89608C4.42827 10.3659 4.04858 9.98625 4.04858 9.51844V8.5193C4.04858 8.05148 4.42827 7.67188 4.89608 7.67188H18.7932C19.261 7.67188 19.6404 8.05148 19.6404 8.5193H19.6403Z" fill="#1F81A3"/>
<path d="M19.6403 8.5193V9.51852C19.6403 9.98633 19.261 10.3659 18.7932 10.3659H8.16115C7.69365 10.3659 7.31396 9.98625 7.31396 9.51844V8.5193C7.31396 8.05148 7.69365 7.67188 8.16115 7.67188H18.7932C19.261 7.67188 19.6404 8.05148 19.6404 8.5193H19.6403Z" fill="#2C92BF"/>
<path d="M11.8444 3.83594C11.0779 3.83594 10.4565 4.45727 10.4565 5.22359V11.8359C10.4565 12.6024 11.0779 13.2237 11.8444 13.2237C12.6108 13.2237 13.2321 12.6024 13.2321 11.8359V5.22359C13.2321 4.45727 12.6108 3.83594 11.8444 3.83594Z" fill="#3C3F4D"/>
<path d="M35.6423 28.5315H17.5286L17.9311 24.6523H35.2397L35.6423 28.5315Z" fill="#2D303B"/>
<path d="M35.8974 19.9883H19.5589L17.4773 40.0222H37.979L35.8974 19.9883Z" fill="#FF491F"/>
<path d="M26.3128 26.4688H14.9557L13.5088 40.025H27.7599L26.3128 26.4688Z" fill="#FFE14D"/>
<path d="M32.1361 22.5593C32.0557 22.5593 31.9761 22.5435 31.9018 22.5128C31.8275 22.482 31.7599 22.437 31.703 22.3801C31.6462 22.3233 31.601 22.2558 31.5703 22.1815C31.5395 22.1072 31.5236 22.0275 31.5236 21.9471V17.9069C31.5236 15.8137 29.8211 14.1111 27.7282 14.1111C25.635 14.1111 23.9324 15.814 23.9324 17.9069V21.9471C23.9324 22.0275 23.9166 22.1071 23.8858 22.1814C23.855 22.2557 23.8099 22.3232 23.7531 22.38C23.6963 22.4369 23.6288 22.482 23.5545 22.5127C23.4802 22.5435 23.4006 22.5593 23.3202 22.5593C23.2398 22.5593 23.1602 22.5435 23.0859 22.5127C23.0116 22.482 22.9441 22.4369 22.8873 22.38C22.8304 22.3232 22.7853 22.2557 22.7546 22.1814C22.7238 22.1071 22.708 22.0275 22.708 21.9471V17.9069C22.708 15.1387 24.9599 12.8867 27.7282 12.8867C30.4961 12.8867 32.7483 15.1387 32.7483 17.9069V21.9471C32.7483 22.0275 32.7325 22.1071 32.7017 22.1814C32.671 22.2557 32.6259 22.3232 32.569 22.38C32.5122 22.4369 32.4447 22.482 32.3704 22.5127C32.2961 22.5435 32.2165 22.5593 32.1361 22.5593Z" fill="white"/>
<path d="M20.6343 34.8177C18.8451 34.8177 17.3894 33.362 17.3894 31.5727V28.9403C17.392 28.7796 17.4576 28.6263 17.5722 28.5136C17.6867 28.4009 17.841 28.3377 18.0017 28.3377C18.1625 28.3377 18.3168 28.4009 18.4313 28.5136C18.5459 28.6263 18.6115 28.7796 18.6141 28.9403V31.5727C18.6141 32.6866 19.5204 33.593 20.6344 33.593C21.7485 33.593 22.6546 32.687 22.6546 31.5727V28.9403C22.6546 28.6021 22.9286 28.3281 23.2668 28.3281C23.605 28.3281 23.879 28.6021 23.879 28.9403V31.5727C23.879 33.362 22.4235 34.8177 20.6343 34.8177Z" fill="#3C3F4D"/>
<path d="M25.7877 6.90797H23.1754C22.8372 6.90797 22.5632 6.63398 22.5632 6.29578C22.5632 5.95758 22.8372 5.68359 23.1754 5.68359H25.7877C26.1258 5.68359 26.3999 5.95766 26.3999 6.29578C26.3999 6.63391 26.1258 6.90797 25.7877 6.90797Z" fill="#FF491F"/>
<path d="M36.9713 6.90797H28.4816C28.1434 6.90797 27.8694 6.63398 27.8694 6.29578C27.8694 5.95758 28.1434 5.68359 28.4816 5.68359H36.9713C37.1336 5.68359 37.2893 5.74809 37.4041 5.8629C37.519 5.97771 37.5834 6.13342 37.5834 6.29578C37.5834 6.45814 37.519 6.61386 37.4041 6.72866C37.2893 6.84347 37.1336 6.90797 36.9713 6.90797Z" fill="#3C3F4D"/>
<path d="M25.7877 9.76766H23.1754C23.0147 9.76509 22.8614 9.69945 22.7487 9.58489C22.6359 9.47033 22.5728 9.31604 22.5728 9.15531C22.5728 8.99458 22.6359 8.84029 22.7487 8.72574C22.8614 8.61118 23.0147 8.54554 23.1754 8.54297H25.7877C25.9484 8.54554 26.1016 8.61118 26.2144 8.72574C26.3271 8.84029 26.3903 8.99458 26.3903 9.15531C26.3903 9.31604 26.3271 9.47033 26.2144 9.58489C26.1016 9.69945 25.9484 9.76509 25.7877 9.76766Z" fill="#FF491F"/>
<path d="M36.9712 9.76766H28.4815C28.3208 9.76509 28.1676 9.69945 28.0548 9.58489C27.9421 9.47033 27.8789 9.31604 27.8789 9.15531C27.8789 8.99458 27.9421 8.84029 28.0548 8.72574C28.1676 8.61118 28.3208 8.54554 28.4815 8.54297H36.9712C37.0517 8.54293 37.1313 8.55873 37.2056 8.58948C37.2799 8.62023 37.3474 8.66531 37.4043 8.72216C37.4612 8.77901 37.5063 8.84652 37.5371 8.92081C37.5679 8.9951 37.5837 9.07474 37.5837 9.15516C37.5837 9.31759 37.5191 9.47336 37.4043 9.58821C37.2894 9.70307 37.1337 9.76761 36.9712 9.76766Z" fill="#3C3F4D"/>
</g>
<defs>
<clipPath id="clip0_4024_404">
<rect width="40" height="40" fill="white"/>
</clipPath>
</defs>
</svg>
