<svg width="40" height="40" viewBox="0 0 40 40" fill="none" xmlns="http://www.w3.org/2000/svg">
<g clip-path="url(#clip0_2382_1956)">
<path d="M29.6106 36.6419C20.4208 41.9477 8.66981 38.799 3.36403 29.6091C-1.94175 20.4193 1.20684 8.6682 10.3968 3.3625C19.5867 -1.94321 31.3375 1.20547 36.6433 10.3952C41.9491 19.585 38.8004 31.3361 29.6106 36.6419Z" fill="#78D2FA"/>
<path d="M21.3597 14.2528C21.2215 14.2852 20.9535 14.3533 20.8376 14.4463C20.693 14.5623 20.919 14.7131 20.8365 14.7792C20.6939 14.8933 20.5905 15.1002 20.2853 15.0806C19.6476 15.0399 18.6676 14.2151 18.0849 13.9033C19.0243 12.9366 17.5381 12.7917 16.9589 12.8402C16.2088 12.9029 14.9108 12.8352 14.2332 13.2167C13.763 13.4815 13.1309 14.5804 12.7521 15.0169C12.2247 15.6244 11.6941 16.1518 11.3505 16.8792C10.09 19.5474 12.0301 22.6106 15.0794 22.2523C15.9259 22.1528 16.814 21.6206 17.5643 22.3229C18.1172 22.8405 17.8246 23.3276 17.9712 23.9312C18.098 24.4535 18.6764 24.7749 18.8765 25.2545C19.2604 26.1741 19.0173 26.7492 18.7433 27.5973C18.3838 28.7102 19.3136 30.0315 19.6755 31.1055C19.8576 31.6463 20.3887 33.1606 20.91 33.3976C21.7297 33.7703 23.0144 32.6527 23.5039 32.0516C23.8865 31.5817 23.7616 31.1043 24.0187 30.6643C24.2969 30.1881 24.6489 30.0452 24.8438 29.4313C25.0539 28.7695 25.2722 28.6049 25.7158 28.122C26.4301 27.3449 26.3192 26.8904 26.0337 25.9688C25.4403 24.0543 27.5955 23.1593 28.5663 21.7539C29.5801 20.2863 27.6205 20.7756 26.8526 20.2736C26.063 19.7575 25.7179 18.7767 25.3374 17.9635C24.9568 17.1503 24.6419 15.9283 24.0116 15.2603C23.5261 14.746 22.0492 14.5074 21.3597 14.2528ZM31.2779 27.096L30.359 30.1931C30.1448 30.9148 29.3877 33.2757 28.3255 31.7635C27.9218 31.1888 28.2501 30.4357 28.4754 29.9069C28.7595 29.2397 28.3755 28.9038 28.5737 28.2721C28.8008 27.5481 29.7355 27.5234 30.1778 27.0142C30.4862 26.6592 30.6765 26.0947 30.9019 25.6791C31.0273 26.1515 31.1526 26.6237 31.2779 27.096Z" fill="#A5DC69"/>
<path d="M36.6433 10.3952C33.3339 4.6632 27.5171 1.28188 21.3782 0.835938L18.8656 3.98781L13.4804 5.87578L12.0357 9.37797L14.2642 12.4998L14.5011 11.8398C14.6941 11.302 15.0485 10.8369 15.5158 10.5081C15.9831 10.1793 16.5405 10.0029 17.1119 10.0029H20.7848L25.0067 11.4865L26.4608 12.8746V13.7563L28.4825 17.6288L29.0711 17.4116C30.3423 16.9429 31.4968 16.204 32.4548 15.2459L31.9668 14.5138C31.8115 14.2809 31.9785 13.9691 32.2582 13.9691H33.4364C33.7814 13.9691 34.109 14.1202 34.3331 14.3826L35.2955 15.5094C35.3872 15.6167 35.4589 15.7397 35.5071 15.8723L36.5692 18.7929L37.0747 18.2873C37.3935 17.9685 37.5549 17.5342 37.5624 17.0834C37.5654 16.904 37.6055 16.7271 37.6803 16.564C37.755 16.4008 37.8627 16.2549 37.9967 16.1355L38.3839 15.7902C38.4801 15.7044 38.5884 15.6334 38.7054 15.5795C38.2846 13.8033 37.6029 12.0573 36.6433 10.3952ZM7.89902 11.1457L8.81801 10.1609C9.14615 9.80931 9.36637 9.37082 9.45247 8.89763C9.53858 8.42444 9.48694 7.93648 9.30371 7.4918C8.90809 6.53164 8.04066 5.90914 7.08051 5.78039C3.68676 8.85836 1.57668 12.9966 0.969648 17.3799C1.68715 18.0071 2.43801 18.6785 2.43371 18.7377C2.42543 18.8509 5.12191 18.3988 5.12191 18.3988L3.73379 16.3624L5.7273 14.937L7.89902 11.1457ZM9.76762 30.2905C10.6339 30.0091 11.1079 29.0787 10.8265 28.2125L10.5791 27.4509C10.471 27.1181 10.4715 26.7597 10.5806 26.4273C10.8897 25.4849 10.3032 24.4849 9.32988 24.2947L7.38824 23.9152L3.84144 21.2186L0.90918 22.1712C1.19715 24.7177 2.00082 27.2478 3.36395 29.609C4.62473 31.7927 6.24988 33.6344 8.11754 35.1035L8.99129 30.5427L9.76762 30.2905Z" fill="#A5DC69"/>
<path d="M29.2184 35.9689L29.1883 35.9862C28.8152 36.2027 28.6882 36.6807 28.9046 37.0539C28.9561 37.1427 29.0245 37.2204 29.1061 37.2827C29.1876 37.345 29.2806 37.3906 29.3797 37.417C29.4789 37.4433 29.5823 37.4498 29.684 37.4362C29.7856 37.4226 29.8836 37.3891 29.9724 37.3375L30.0024 37.3202C30.3756 37.1037 30.5025 36.6257 30.2861 36.2525C30.0697 35.8795 29.5917 35.7524 29.2184 35.9689Z" fill="black"/>
<path d="M37.3198 10.0062C34.6493 5.38079 30.3375 2.07227 25.1786 0.689927C20.0199 -0.692417 14.6315 0.0170362 10.0061 2.68743C5.38067 5.35782 2.07216 9.66969 0.689892 14.8285C-0.692374 19.9873 0.0170013 25.3759 2.68739 30.0012C5.08278 34.1502 8.88997 37.3034 13.4076 38.8798C15.5323 39.6211 17.7665 39.9998 20.0168 39.9998C22.4437 39.9998 24.8663 39.5588 27.1562 38.6786C27.559 38.5238 27.7599 38.0719 27.605 37.6691C27.4502 37.2664 26.9982 37.0652 26.5956 37.2203C20.5003 39.563 13.9017 38.4986 8.97177 34.7981L9.67169 31.1446L10.009 31.0351C11.2834 30.621 11.9834 29.2473 11.5695 27.9727L11.322 27.2111C11.2648 27.0361 11.265 26.8473 11.3228 26.6724C11.5399 26.0105 11.4623 25.2864 11.1099 24.6855C10.7575 24.0845 10.1633 23.6633 9.47966 23.5296L7.71638 23.1851L4.31419 20.5984C4.21377 20.522 4.09635 20.4711 3.97197 20.45C3.84759 20.4289 3.71996 20.4382 3.59997 20.4772L1.6081 21.1242C1.56598 20.4139 1.56506 19.7016 1.60536 18.9912C1.66039 19.0417 1.71415 19.0936 1.76661 19.1468C1.80576 19.2121 1.85421 19.2714 1.91044 19.3228C2.0731 19.4709 2.22044 19.5381 2.52981 19.5381C2.81411 19.5381 3.23497 19.4814 3.92989 19.3788C4.37086 19.313 4.81126 19.2436 5.25106 19.1705C5.38032 19.1488 5.50203 19.0949 5.605 19.0138C5.70798 18.9327 5.7889 18.8271 5.84032 18.7065C5.89173 18.586 5.912 18.4544 5.89924 18.324C5.88648 18.1935 5.84111 18.0684 5.76731 17.9601L4.80942 16.5551L6.18145 15.574C6.27286 15.5086 6.3491 15.4243 6.40497 15.3268L8.53177 11.6139L9.38903 10.6953C10.265 9.75641 10.515 8.38274 10.0258 7.19555C9.73724 6.49532 9.23317 5.91235 8.6027 5.51946C9.29476 4.97505 10.0248 4.48077 10.7873 4.0404C13.6262 2.40133 16.7243 1.60704 19.7899 1.57665L18.3949 3.32657L13.2218 5.14016C13.118 5.17656 13.0229 5.23452 12.943 5.31023C12.8631 5.38594 12.8001 5.47769 12.7582 5.57946L11.3135 9.08165C11.263 9.20401 11.2444 9.33719 11.2596 9.46869C11.2747 9.6002 11.3229 9.72571 11.3998 9.83344L13.5098 12.7891C13.2076 13.0648 12.9135 13.4663 12.5622 13.9649C12.4081 14.1836 12.2626 14.3901 12.1621 14.5059C12.0755 14.6053 11.9883 14.7042 11.9004 14.8026C11.4466 15.3131 10.9774 15.8412 10.644 16.5465C9.91106 18.098 10.0591 19.9013 11.0304 21.2527C11.9695 22.5593 13.5178 23.2235 15.1703 23.0291C15.4395 22.9976 15.6905 22.9355 15.9334 22.8753C16.6032 22.7096 16.8154 22.6931 17.0302 22.8941C17.1347 22.992 17.1443 23.0106 17.1422 23.3424C17.1408 23.5537 17.1391 23.8165 17.2119 24.1166C17.3286 24.5966 17.6301 24.9284 17.8722 25.195C17.9926 25.3274 18.1172 25.4645 18.1555 25.5564C18.3992 26.1403 18.2931 26.4637 18.0606 27.1723C18.0402 27.2342 18.02 27.2962 18 27.3582C17.6468 28.4516 18.1391 29.5361 18.5735 30.4929C18.7146 30.8036 18.8478 31.0969 18.935 31.3561C19.6375 33.4404 20.164 33.9177 20.5866 34.1099C20.8079 34.2106 21.037 34.2547 21.2684 34.2546C22.3946 34.2545 23.5697 33.2089 24.1096 32.546C24.4486 32.1298 24.5322 31.713 24.5931 31.4085C24.6235 31.2571 24.6474 31.1376 24.693 31.0595C24.7629 30.9399 24.8451 30.8473 24.9493 30.7299C25.1587 30.4941 25.4193 30.2006 25.5883 29.6687C25.7165 29.2646 25.8097 29.1656 26.1184 28.8368C26.1763 28.7754 26.2338 28.7138 26.2909 28.6517C27.3315 27.5195 27.0635 26.6545 26.7797 25.7388C26.5408 24.9682 26.9586 24.4754 27.9686 23.5348C28.4064 23.1271 28.859 22.7055 29.209 22.1991C29.3621 21.9773 29.8279 21.3029 29.5397 20.6344C29.2571 19.9789 28.5389 19.8688 27.9618 19.7803C27.734 19.7453 27.3896 19.6925 27.28 19.6209C26.7966 19.3048 26.5009 18.6453 26.2149 18.0074C26.1579 17.8805 26.1018 17.7552 26.0448 17.6335C25.9433 17.4165 25.8418 17.1539 25.7343 16.8759C25.4501 16.1403 25.128 15.3065 24.5797 14.7252C24.0868 14.203 23.1576 13.9514 22.3379 13.7294C22.0622 13.6548 21.8019 13.5843 21.6303 13.5209C21.4866 13.4678 21.3305 13.4582 21.1814 13.4932C20.7824 13.5867 20.5335 13.6898 20.3486 13.8379C20.2998 13.877 20.1552 14.0056 20.0705 14.2121C19.7845 14.0748 19.3912 13.8127 19.1492 13.6514L19.1341 13.6413C19.2157 13.3149 19.1418 13.053 19.0645 12.8894C18.628 11.9663 17.1794 12.0385 16.8936 12.0628C16.7313 12.0764 16.5259 12.0837 16.3086 12.0913C15.9674 12.1034 15.5902 12.117 15.217 12.1589L15.2362 12.1053C15.5195 11.316 16.2733 10.7856 17.1118 10.7856H17.5559C17.9873 10.7856 18.3371 10.4358 18.3371 10.0045C18.3371 9.57305 17.9872 9.22329 17.5559 9.22329H17.1118C15.8668 9.22329 14.7268 9.87852 14.0878 10.9098L12.9225 9.27758L14.069 6.49875L19.124 4.72649C19.2626 4.67787 19.3848 4.59114 19.4764 4.47625L21.7234 1.65758C27.4651 2.20375 32.8698 5.42297 35.9668 10.7872C36.7763 12.1894 37.3954 13.6931 37.8077 15.2588L37.4765 15.5541C37.2624 15.7456 37.0901 15.9793 36.9705 16.2404C36.8509 16.5016 36.7864 16.7847 36.7813 17.072C36.7812 17.0782 36.7811 17.0845 36.7808 17.0908L36.2413 15.607C36.1613 15.3864 36.0421 15.1819 35.8895 15.0036L34.9271 13.8768C34.7431 13.6612 34.5146 13.4881 34.2572 13.3694C33.9999 13.2508 33.7198 13.1894 33.4364 13.1896H32.2583C32.0535 13.1894 31.8524 13.2449 31.6767 13.3502C31.501 13.4554 31.3572 13.6065 31.2607 13.7872C31.1639 13.9677 31.1179 14.1712 31.1279 14.3758C31.1378 14.5804 31.2031 14.7784 31.3169 14.9488L31.4361 15.1277C30.6749 15.7823 29.7944 16.3062 28.8569 16.6595L27.2422 13.5663V12.8762C27.2422 12.7705 27.2208 12.666 27.1792 12.5689C27.1376 12.4718 27.0768 12.3841 27.0004 12.3112L25.5462 10.923C25.466 10.8464 25.3704 10.7878 25.2658 10.751L23.9567 10.291C23.5494 10.1477 23.1036 10.362 22.9607 10.769C22.8176 11.1761 23.0316 11.622 23.4386 11.765L24.589 12.1693L25.6797 13.2105V13.758C25.6797 13.8838 25.7102 14.0079 25.7685 14.1195L27.7901 17.992C27.878 18.1604 28.0242 18.291 28.2014 18.3593C28.3786 18.4277 28.5747 18.4291 28.7529 18.3634L29.3415 18.1463C30.7091 17.642 31.9767 16.8306 33.0073 15.8002C33.135 15.6725 33.2145 15.5045 33.2323 15.3248C33.2501 15.145 33.2051 14.9647 33.1049 14.8145L33.0633 14.752H33.4364C33.4939 14.752 33.5508 14.7645 33.6031 14.7886C33.6554 14.8127 33.7018 14.8478 33.7392 14.8916L34.7016 16.0184C34.7326 16.0548 34.7566 16.0959 34.773 16.1409L35.8351 19.0615C35.8801 19.1849 35.9554 19.295 36.0541 19.3816C36.1529 19.4682 36.2719 19.5285 36.4001 19.557C36.5283 19.5854 36.6616 19.581 36.7877 19.5443C36.9138 19.5076 37.0286 19.4397 37.1215 19.3468L37.6271 18.8413C37.9472 18.521 38.1676 18.1159 38.2729 17.6667C39.0548 23.9327 36.5979 30.4146 31.4046 34.4907C31.0651 34.757 31.0059 35.2481 31.2724 35.5875C31.5387 35.927 32.0297 35.9862 32.3692 35.7197C36.1186 32.777 38.6943 28.568 39.6221 23.868C40.5586 19.1228 39.741 14.1998 37.3198 10.0062ZM3.69395 22.0895L6.91528 24.5388C7.01045 24.6112 7.12097 24.6608 7.23833 24.6837L9.17989 25.0631C9.4277 25.1115 9.63442 25.2581 9.76216 25.4759C9.88989 25.6936 9.91677 25.9456 9.83817 26.1855C9.67644 26.6751 9.6757 27.2037 9.83606 27.6938L10.0836 28.4554C10.2315 28.9106 9.9813 29.4013 9.52622 29.5491L8.74989 29.8014C8.61694 29.8446 8.49802 29.9227 8.40554 30.0275C8.31305 30.1323 8.2504 30.2601 8.22411 30.3973L7.59927 33.659C6.2256 32.4017 5.0195 30.9158 4.04052 29.2201C2.84606 27.1516 2.09981 24.9452 1.77091 22.7143L3.69395 22.0895ZM8.5813 7.79079C8.83833 8.41446 8.70692 9.13618 8.24677 9.62946L7.32778 10.6141C7.28675 10.6581 7.25092 10.7066 7.22099 10.7588L5.13411 14.4023L3.27935 15.7285C3.11326 15.8473 3.00026 16.0263 2.96454 16.2273C2.92882 16.4284 2.97323 16.6354 3.08825 16.8041L3.78192 17.8216C3.38208 17.8811 3.02325 17.9302 2.78466 17.9562C2.7372 17.9109 2.68938 17.866 2.64122 17.8215C2.45552 17.649 2.19747 17.4186 1.81278 17.082C2.44724 13.1552 4.33942 9.45579 7.31536 6.63196C7.88528 6.81125 8.35286 7.23641 8.5813 7.79079ZM16.364 13.6528C16.6006 13.6445 16.8242 13.6365 17.0239 13.6198C17.1293 13.6109 17.2463 13.6126 17.3567 13.6212C17.2874 13.7991 17.2856 13.9963 17.3519 14.1754C17.4181 14.3545 17.5477 14.5031 17.7161 14.5931C17.8626 14.6716 18.0666 14.8076 18.2825 14.9516C18.8931 15.3586 19.5853 15.8199 20.2354 15.8613C20.8266 15.8997 21.1556 15.5627 21.2965 15.4191C21.3078 15.4077 21.3184 15.3963 21.3297 15.3859C21.4157 15.3153 21.4867 15.2283 21.5387 15.1299C21.6636 15.1656 21.7949 15.2012 21.9294 15.2377C22.392 15.3629 23.2529 15.596 23.4433 15.7976C23.7811 16.1558 24.0445 16.8376 24.2769 17.4391C24.3943 17.7431 24.5053 18.0299 24.6297 18.2959C24.6832 18.4101 24.7358 18.5277 24.7892 18.6467C25.1497 19.4508 25.5583 20.3622 26.425 20.9288C26.8181 21.1857 27.2999 21.2595 27.725 21.3248C27.7765 21.3327 27.8354 21.3417 27.8952 21.3516C27.6429 21.7036 27.2836 22.0381 26.904 22.3916C25.9368 23.2923 24.7333 24.4132 25.2875 26.2014C25.5492 27.0458 25.5614 27.137 25.1407 27.5947C25.0833 27.6571 25.0299 27.714 24.9798 27.7673C24.6195 28.1509 24.3349 28.4538 24.0993 29.196C24.0308 29.4116 23.9422 29.5114 23.7811 29.6927C23.6524 29.8377 23.492 30.0183 23.344 30.2714C23.1668 30.5747 23.1083 30.8667 23.0613 31.1013C23.015 31.3322 22.9887 31.4481 22.8981 31.5594C22.6918 31.8127 22.3069 32.1805 21.9118 32.4315C21.5447 32.6646 21.3303 32.6965 21.2572 32.6921C21.1739 32.6027 20.8719 32.2115 20.4157 30.8573C20.3032 30.5232 20.1471 30.1795 19.9961 29.847C19.6634 29.1142 19.3194 28.3564 19.4868 27.8385C19.5065 27.7774 19.5261 27.7177 19.5453 27.6594C19.8126 26.8445 20.065 26.0751 19.5975 24.9548C19.4551 24.6136 19.2285 24.3643 19.0287 24.1443C18.8994 24.002 18.7529 23.8408 18.7304 23.748C18.7029 23.6348 18.7037 23.5041 18.7047 23.3527C18.7074 22.9445 18.7115 22.3277 18.0983 21.7535C17.2337 20.9443 16.2256 21.1936 15.5584 21.3586C15.3535 21.4092 15.1599 21.4572 14.9883 21.4773C13.8908 21.6059 12.911 21.1919 12.2993 20.3406C11.6593 19.4502 11.5665 18.252 12.0569 17.2138C12.2943 16.7113 12.653 16.3077 13.0683 15.8405C13.159 15.7384 13.2506 15.6354 13.3422 15.5299C13.4945 15.3543 13.6622 15.1165 13.8394 14.8647C14.0512 14.5641 14.4453 14.0048 14.6164 13.8984C14.9647 13.7024 15.7735 13.6738 16.364 13.6528Z" fill="black"/>
<path d="M29.2225 33.0244C30.0194 32.8942 30.6184 32.0653 31.108 30.4156L32.0269 27.3186C32.0677 27.1809 32.0699 27.0347 32.033 26.8959L31.6571 25.4792C31.617 25.328 31.5324 25.1924 31.4143 25.0898C31.2962 24.9872 31.1501 24.9225 30.9948 24.9039C30.8394 24.8855 30.6822 24.9141 30.5432 24.986C30.4043 25.0578 30.2901 25.1697 30.2154 25.3071C30.1298 25.4649 30.0527 25.6321 29.9781 25.7937C29.8527 26.0657 29.7231 26.3469 29.5881 26.5022C29.5124 26.5894 29.3177 26.6833 29.1295 26.7741C28.6798 26.9912 28.0638 27.2884 27.8284 28.0386C27.6824 28.5039 27.7369 28.872 27.7767 29.1408C27.8112 29.3738 27.8192 29.4546 27.7567 29.6012L27.7489 29.6194C27.5002 30.2029 27.0376 31.2892 27.6863 32.2127C28.1492 32.8718 28.6359 33.0412 29.0142 33.0412C29.0881 33.0415 29.1579 33.035 29.2225 33.0244ZM28.9648 31.3148C28.8155 31.1022 29.0386 30.5784 29.1863 30.2318L29.1942 30.2135C29.4323 29.6546 29.3686 29.2254 29.3223 28.9119C29.2925 28.7112 29.2819 28.625 29.3192 28.5065C29.3498 28.409 29.5328 28.3145 29.8086 28.1814C29.9309 28.1223 30.0655 28.0574 30.2013 27.9788L29.6102 29.9712C29.3607 30.8123 29.1399 31.2049 29.0125 31.379C28.9977 31.3604 28.9818 31.3391 28.9648 31.3148ZM21.0434 9.26678C20.6366 9.12428 20.1905 9.33827 20.0477 9.74537C19.9049 10.1526 20.1192 10.5983 20.5263 10.7411L20.5789 10.7595C20.662 10.7888 20.7494 10.8037 20.8375 10.8037C21.16 10.8037 21.4619 10.6024 21.5747 10.2809C21.7175 9.87373 21.5032 9.42803 21.0961 9.28522L21.0434 9.26678Z" fill="black"/>
</g>
<defs>
<clipPath id="clip0_2382_1956">
<rect width="40" height="40" fill="white"/>
</clipPath>
</defs>
</svg>
