<svg width="40" height="40" viewBox="0 0 40 40" fill="none" xmlns="http://www.w3.org/2000/svg">
<g clip-path="url(#clip0_4024_1825)">
<path d="M20 26.893C17.2003 26.893 14.4123 26.4886 12.1497 25.7542C9.55396 24.9117 8.23779 23.8448 8.23779 22.5831V12.7773C8.23779 12.1302 8.76248 11.6055 9.40967 11.6055H30.5902C31.2374 11.6055 31.7621 12.1302 31.7621 12.7773V22.5831C31.7621 23.8448 30.4459 24.9117 27.8501 25.7542C25.5876 26.4886 22.7997 26.893 20 26.893Z" fill="#1A82C7"/>
<path d="M30.5903 11.6055H20.0781V26.8923C22.8515 26.8849 25.6087 26.4818 27.8502 25.7542C30.446 24.9117 31.7622 23.8448 31.7622 22.5831V12.7773C31.7622 12.1302 31.2375 11.6055 30.5903 11.6055Z" fill="#125994"/>
<path d="M36.0132 36.6248C35.366 36.6248 34.8413 36.1001 34.8413 35.4529V12.418C34.8413 11.7708 35.366 11.2461 36.0132 11.2461C36.6604 11.2461 37.1851 11.7708 37.1851 12.418V35.4529C37.1851 36.1001 36.6604 36.6248 36.0132 36.6248Z" fill="#FFD236"/>
<path d="M36.0132 30.1172C37.313 30.1172 38.3667 29.0635 38.3667 27.7637C38.3667 26.4639 37.313 25.4102 36.0132 25.4102C34.7134 25.4102 33.6597 26.4639 33.6597 27.7637C33.6597 29.0635 34.7134 30.1172 36.0132 30.1172Z" fill="#FF9300"/>
<path d="M19.9999 19.0514C19.8671 19.0514 19.7343 19.0288 19.6074 18.9837L0.779271 12.2902C0.551056 12.209 0.353592 12.0591 0.214043 11.8612C0.0744946 11.6632 -0.00028186 11.4268 7.98395e-07 11.1846C0.000283456 10.9424 0.0756113 10.7062 0.215622 10.5086C0.355632 10.311 0.553445 10.1616 0.781849 10.0809L19.61 3.43789C19.8623 3.34883 20.1374 3.34883 20.3897 3.43789L39.2179 10.0809C39.4463 10.1616 39.6441 10.311 39.7841 10.5086C39.9241 10.7062 39.9994 10.9424 39.9997 11.1846C40 11.4268 39.9252 11.6632 39.7857 11.8612C39.6461 12.0591 39.4487 12.209 39.2204 12.2902L20.3923 18.9837C20.2663 19.0285 20.1336 19.0514 19.9999 19.0514Z" fill="#53B7F5"/>
<path d="M39.218 10.0777L20.3899 3.43461C20.2894 3.39938 20.1845 3.37801 20.0781 3.37109V19.0448C20.1854 19.0379 20.2912 19.0163 20.3925 18.9805L39.2206 12.287C39.4489 12.2058 39.6464 12.056 39.7859 11.858C39.9255 11.66 40.0003 11.4236 40 11.1814C39.9997 10.9392 39.9244 10.703 39.7844 10.5053C39.6443 10.3077 39.4465 10.1583 39.218 10.0777Z" fill="#2698D1"/>
<path d="M40.0001 11.1832C39.9998 10.941 39.9244 10.7048 39.7844 10.5072C39.6444 10.3095 39.4465 10.1601 39.2181 10.0795L38.8267 9.94141L20.0782 16.6066L1.07763 9.97523L0.782005 10.0795C0.553566 10.1601 0.355712 10.3095 0.215671 10.5072C0.0756297 10.7048 0.000283481 10.941 7.98342e-07 11.1832C-0.000281885 11.4255 0.0745128 11.6618 0.214093 11.8598C0.353672 12.0578 0.551176 12.2076 0.779427 12.2888L19.6076 18.9823C19.794 19.05 19.967 19.05 20.0001 19.05C20.1329 19.05 20.2656 19.0274 20.3926 18.9823L39.2211 12.2886C39.4492 12.2074 39.6466 12.0576 39.7861 11.8596C39.9256 11.6617 40.0004 11.4254 40.0001 11.1832Z" fill="#FFD236"/>
<path d="M39.218 10.0795L38.8266 9.94141L20.0781 16.6066V19.0466C20.1854 19.0397 20.2912 19.0181 20.3925 18.9823L39.221 12.2886C39.4492 12.2074 39.6465 12.0575 39.786 11.8595C39.9255 11.6615 40.0002 11.4252 39.9999 11.183C39.9995 10.9408 39.9242 10.7047 39.7842 10.5071C39.6442 10.3095 39.4464 10.1601 39.218 10.0795Z" fill="#FF9300"/>
</g>
<defs>
<clipPath id="clip0_4024_1825">
<rect width="40" height="40" fill="white"/>
</clipPath>
</defs>
</svg>
