<svg width="40" height="40" viewBox="0 0 40 40" fill="none" xmlns="http://www.w3.org/2000/svg">
<g clip-path="url(#clip0_4024_1638)">
<path d="M33.3837 14.6574L14.7356 33.3059C13.8927 34.1484 12.5265 34.1484 11.6839 33.3059L0.710059 22.332C-0.13252 21.489 -0.13252 20.1227 0.710059 19.2802L19.3581 0.631875C20.2011 -0.210625 21.5673 -0.210625 22.4099 0.631875L33.3837 11.6058C34.2266 12.4484 34.2266 13.8148 33.3837 14.6574Z" fill="#8CBAFA"/>
<path d="M33.3835 11.6041L32.0141 10.2344C32.7646 10.9848 32.6895 12.2763 31.8469 13.1189L13.1985 31.7673C12.3559 32.6102 11.0644 32.685 10.314 31.9345L11.6837 33.3041C12.5262 34.1468 13.8925 34.1468 14.7354 33.3041L33.3835 14.6558C34.2264 13.8132 34.2264 12.4466 33.3835 11.6041Z" fill="#5692D8"/>
<path d="M4.29599 21.564C4.219 21.5641 4.14277 21.5489 4.07165 21.5195C4.00054 21.49 3.93595 21.4467 3.88161 21.3922C3.82719 21.3378 3.78403 21.2732 3.75457 21.2021C3.72512 21.1311 3.70996 21.0549 3.70996 20.9779C3.70996 20.901 3.72512 20.8248 3.75457 20.7537C3.78403 20.6827 3.82719 20.6181 3.88161 20.5637L13.0158 11.4295C13.0702 11.375 13.1348 11.3319 13.2059 11.3024C13.277 11.273 13.3531 11.2578 13.4301 11.2578C13.507 11.2578 13.5832 11.273 13.6543 11.3024C13.7254 11.3319 13.79 11.375 13.8443 11.4295C13.8988 11.4839 13.9419 11.5484 13.9714 11.6195C14.0008 11.6906 14.016 11.7668 14.016 11.8437C14.016 11.9207 14.0008 11.9968 13.9714 12.0679C13.9419 12.139 13.8988 12.2036 13.8443 12.258L4.71013 21.3925C4.65577 21.4469 4.59122 21.4901 4.52017 21.5195C4.44912 21.5489 4.37289 21.564 4.29599 21.564ZM7.19888 24.4669C7.12188 24.467 7.04562 24.4518 6.97449 24.4223C6.90336 24.3928 6.83877 24.3496 6.78442 24.295C6.73001 24.2406 6.68684 24.176 6.65739 24.105C6.62793 24.0339 6.61277 23.9577 6.61277 23.8808C6.61277 23.8038 6.62793 23.7276 6.65739 23.6565C6.68684 23.5855 6.73001 23.5209 6.78442 23.4665L15.9186 14.3322C15.973 14.2778 16.0376 14.2346 16.1087 14.2052C16.1798 14.1757 16.256 14.1605 16.3329 14.1605C16.4098 14.1605 16.486 14.1757 16.5571 14.2052C16.6282 14.2346 16.6928 14.2778 16.7472 14.3322C16.8016 14.3866 16.8447 14.4512 16.8742 14.5222C16.9037 14.5933 16.9188 14.6695 16.9188 14.7465C16.9188 14.8234 16.9037 14.8996 16.8742 14.9707C16.8447 15.0417 16.8016 15.1063 16.7472 15.1607L7.61294 24.295C7.55865 24.3495 7.49412 24.3928 7.42306 24.4223C7.352 24.4518 7.27581 24.4669 7.19888 24.4669Z" fill="#252D4C"/>
<path d="M19.0534 4.88252L17.226 6.70963C16.5076 7.42799 16.5076 8.59252 17.226 9.31096C17.9443 10.0293 19.1092 10.0293 19.8276 9.31096L21.6547 7.48385C22.3731 6.76549 22.3731 5.60088 21.6547 4.88252C20.9363 4.16416 19.7714 4.16416 19.0534 4.88252ZM35.1444 20.1649H8.77174C7.57994 20.1649 6.61377 21.131 6.61377 22.3227V37.8422C6.61377 39.0339 7.57994 40.0001 8.77166 40.0001H35.1443C36.3363 40.0001 37.3023 39.0339 37.3023 37.8422V22.3227C37.3026 21.131 36.3363 20.1649 35.1444 20.1649Z" fill="#FFCD34"/>
<path d="M35.1449 20.1641H33.2134C34.4051 20.1641 35.3713 21.1302 35.3713 22.3219V37.8414C35.3713 39.0331 34.4051 39.9993 33.2134 39.9993H35.1449C36.3368 39.9993 37.3027 39.0331 37.3027 37.8414V22.3219C37.3031 21.1302 36.3368 20.1641 35.1449 20.1641Z" fill="#E69012"/>
<path d="M6.61377 25.0391H37.3026V28.7673H6.61377V25.0391Z" fill="#575B7A"/>
<path d="M35.3711 25.0391H37.3026V28.7673H35.3711V25.0391Z" fill="#252D4C"/>
<path d="M29.7598 34.7281V37.0277C29.7598 37.113 29.7937 37.1949 29.8541 37.2553C29.9145 37.3156 29.9963 37.3495 30.0817 37.3495H33.7393C33.7816 37.3495 33.8234 37.3412 33.8625 37.3251C33.9015 37.3089 33.937 37.2852 33.9669 37.2553C33.9968 37.2254 34.0205 37.1899 34.0367 37.1509C34.0529 37.1118 34.0612 37.0699 34.0612 37.0277V34.7281C34.0612 34.6428 34.0273 34.5609 33.967 34.5005C33.9066 34.4402 33.8247 34.4063 33.7394 34.4063H30.0817C30.0394 34.4062 29.9976 34.4146 29.9585 34.4307C29.9194 34.4469 29.8839 34.4706 29.854 34.5005C29.8242 34.5304 29.8004 34.5659 29.7843 34.6049C29.7681 34.644 29.7597 34.6858 29.7597 34.7281H29.7598ZM18.7319 34.7281V37.0277C18.732 37.113 18.7659 37.1949 18.8263 37.2553C18.8867 37.3156 18.9686 37.3495 19.054 37.3495H26.7901C26.8324 37.3495 26.8743 37.3412 26.9133 37.3251C26.9524 37.3089 26.9879 37.2852 27.0178 37.2553C27.0477 37.2254 27.0714 37.1899 27.0876 37.1509C27.1038 37.1118 27.1121 37.0699 27.1121 37.0277V34.7281C27.1121 34.6858 27.1038 34.644 27.0876 34.6049C27.0714 34.5659 27.0477 34.5304 27.0178 34.5005C26.9879 34.4706 26.9524 34.4469 26.9133 34.4307C26.8743 34.4146 26.8324 34.4062 26.7901 34.4063H19.054C18.9686 34.4062 18.8867 34.4402 18.8263 34.5005C18.7659 34.5609 18.732 34.6427 18.7319 34.7281Z" fill="#E9E9EA"/>
<path d="M15.5787 37.9336H11.7246C11.5692 37.9336 11.4202 37.8719 11.3103 37.762C11.2004 37.6521 11.1387 37.5031 11.1387 37.3477C11.1387 37.0238 11.4009 36.7617 11.7246 36.7617H15.5787C15.9025 36.7617 16.1646 37.0238 16.1646 37.3477C16.1646 37.5031 16.1029 37.6521 15.993 37.762C15.8831 37.8719 15.7341 37.9336 15.5787 37.9336Z" fill="#252D4C"/>
</g>
<defs>
<clipPath id="clip0_4024_1638">
<rect width="40" height="40" fill="white"/>
</clipPath>
</defs>
</svg>
