<svg width="40" height="40" viewBox="0 0 40 40" fill="none" xmlns="http://www.w3.org/2000/svg">
<path fill-rule="evenodd" clip-rule="evenodd" d="M20.6933 29.2925H19.3073C19.2371 29.2926 19.1682 29.2737 19.1077 29.238C19.0473 29.2023 18.9975 29.151 18.9636 29.0895L18.0224 27.3663C17.9773 27.2758 17.969 27.1712 17.9993 27.0747C18.0296 26.9782 18.0961 26.8971 18.1849 26.8486C18.2737 26.8001 18.3778 26.7879 18.4754 26.8146C18.573 26.8413 18.6565 26.9048 18.7083 26.9917L19.5387 28.5114H20.4621L21.2924 26.9917C21.3442 26.9048 21.4276 26.8413 21.5252 26.8146C21.6228 26.7879 21.727 26.8001 21.8157 26.8486C21.9045 26.8971 21.9711 26.9782 22.0014 27.0747C22.0317 27.1712 22.0234 27.2758 21.9782 27.3663L21.0359 29.0893C21.0023 29.1509 20.9527 29.2022 20.8924 29.238C20.8321 29.2738 20.7634 29.2926 20.6933 29.2925Z" fill="black"/>
<path fill-rule="evenodd" clip-rule="evenodd" d="M18.2096 37.8942C18.1541 37.8942 18.0992 37.8824 18.0486 37.8595C17.998 37.8367 17.9529 37.8033 17.9162 37.7617C17.8795 37.7201 17.852 37.6711 17.8357 37.6181C17.8193 37.5651 17.8144 37.5092 17.8213 37.4541L18.9194 28.8537C18.9258 28.8027 18.9422 28.7535 18.9677 28.7089C18.9932 28.6643 19.0273 28.6251 19.0679 28.5937C19.1086 28.5623 19.1551 28.5393 19.2047 28.5259C19.2543 28.5125 19.3061 28.5091 19.357 28.5158C19.5702 28.543 19.7215 28.7386 19.6947 28.9527L18.5971 37.5528C18.5717 37.7501 18.4033 37.8942 18.2096 37.8942ZM21.7912 37.8942C21.6962 37.8942 21.6046 37.8595 21.5334 37.7967C21.4622 37.7339 21.4164 37.6472 21.4046 37.5531L20.306 28.9527C20.2931 28.85 20.3213 28.7464 20.3846 28.6645C20.4478 28.5827 20.5409 28.5292 20.6435 28.5158C20.6944 28.5091 20.7462 28.5126 20.7957 28.526C20.8453 28.5394 20.8917 28.5625 20.9323 28.5939C20.9729 28.6253 21.0069 28.6644 21.0324 28.709C21.0579 28.7536 21.0743 28.8028 21.0807 28.8537L22.1794 37.4541C22.1864 37.5092 22.1815 37.5651 22.1652 37.6181C22.1488 37.6712 22.1214 37.7202 22.0847 37.7618C22.0479 37.8034 22.0028 37.8368 21.9522 37.8596C21.9016 37.8824 21.8467 37.8942 21.7912 37.8942ZM26.7675 12.4901C26.7084 12.4901 26.65 12.4768 26.5968 12.451C26.5436 12.4252 26.4969 12.3877 26.4603 12.3412C26.4237 12.2948 26.3981 12.2406 26.3855 12.1829C26.3729 12.1251 26.3735 12.0652 26.3873 12.0077C27.896 5.76957 23.5977 3.76423 22.2442 3.29825C20.0562 2.5446 17.6852 2.88002 17.1692 4.01591C17.1231 4.11902 17.0335 4.197 16.9247 4.22906C16.2109 4.43926 15.5517 4.80298 14.9933 5.29476C14.4349 5.78653 13.9908 6.39445 13.6921 7.07594C13.1068 8.4056 13.1825 10.3217 13.8743 11.7351C13.9199 11.8281 13.9267 11.9354 13.8931 12.0334C13.8596 12.1314 13.7885 12.2121 13.6954 12.2577C13.6024 12.3033 13.4951 12.31 13.3971 12.2765C13.2991 12.2429 13.2184 12.1718 13.1728 12.0788C12.3866 10.4735 12.3061 8.28703 12.9767 6.76151C13.3096 6.00202 13.7994 5.3215 14.4138 4.76459C15.0283 4.20769 15.7535 3.78698 16.542 3.53009C17.351 2.12522 19.96 1.68484 22.4989 2.5596C24.2187 3.15176 25.6353 4.27128 26.4881 5.71167C27.5366 7.4824 27.7585 9.6626 27.1468 12.1914C27.1262 12.2765 27.0776 12.3522 27.0089 12.4064C26.9401 12.4606 26.8551 12.4901 26.7675 12.4901ZM20.5307 25.2675L22.797 27.9499L24.8738 23.0077L23.8323 21.9662L20.5307 25.2675ZM22.91 29.0795C22.7963 29.0795 22.6869 29.03 22.6122 28.9411L19.7021 25.4975C19.639 25.4227 19.6062 25.3269 19.6102 25.2291C19.6143 25.1313 19.6549 25.0385 19.724 24.9692L23.5557 21.1375C23.5919 21.1012 23.6349 21.0724 23.6823 21.0527C23.7297 21.033 23.7805 21.0229 23.8318 21.0229C23.8831 21.0229 23.9339 21.033 23.9813 21.0527C24.0287 21.0724 24.0717 21.1012 24.1079 21.1375L25.612 22.6409C25.7244 22.7533 25.7566 22.9223 25.6957 23.0686L23.2706 28.8403C23.2406 28.9112 23.1905 28.9717 23.1263 29.0143C23.0622 29.0568 22.987 29.0795 22.91 29.0795Z" fill="black"/>
<path fill-rule="evenodd" clip-rule="evenodd" d="M32.9369 37.8951H7.06378C6.77351 37.8956 6.48647 37.8343 6.22162 37.7156C5.95677 37.5968 5.72015 37.4231 5.52742 37.2061C5.33551 36.9881 5.19202 36.732 5.10641 36.4545C5.02079 36.177 4.99501 35.8845 5.03075 35.5964L6.1911 26.196C6.25892 25.6465 6.60794 25.2026 7.10115 25.0377L14.541 22.5477C14.6386 22.5169 14.7445 22.5258 14.8357 22.5723C14.927 22.6188 14.9963 22.6992 15.0288 22.7963C15.0614 22.8934 15.0545 22.9994 15.0097 23.0915C14.9648 23.1836 14.8857 23.2544 14.7892 23.2887L7.34844 25.778C7.13783 25.849 6.99849 26.0361 6.96689 26.2915L5.80655 35.6916C5.78296 35.87 5.79805 36.0513 5.85079 36.2232C5.90353 36.3952 5.99269 36.5538 6.1122 36.6882C6.35488 36.9627 6.6926 37.1138 7.06378 37.1138H32.9371C33.3083 37.1138 33.6458 36.9627 33.8882 36.6882C34.0079 36.5538 34.0971 36.3953 34.1499 36.2233C34.2028 36.0513 34.2179 35.87 34.1943 35.6916L33.034 26.2915C33.0022 26.0359 32.8628 25.849 32.6522 25.7784L25.2117 23.2887C25.1615 23.2737 25.1148 23.2487 25.0745 23.2153C25.0341 23.1819 25.0008 23.1408 24.9767 23.0942C24.9526 23.0477 24.938 22.9969 24.9339 22.9446C24.9299 22.8924 24.9363 22.8398 24.953 22.7902C24.9696 22.7405 24.9961 22.6946 25.0308 22.6554C25.0655 22.6161 25.1077 22.5842 25.155 22.5616C25.2023 22.539 25.2536 22.5262 25.306 22.5238C25.3583 22.5215 25.4106 22.5297 25.4597 22.5479L32.8997 25.0375C33.3927 25.2024 33.7417 25.6463 33.8093 26.196L34.9692 35.5961C35.0053 35.8843 34.9797 36.1768 34.8942 36.4543C34.8087 36.7318 34.6652 36.988 34.4732 37.2059C34.2805 37.4229 34.0439 37.5966 33.7791 37.7154C33.5142 37.8342 33.2272 37.8956 32.9369 37.8951Z" fill="black"/>
<path fill-rule="evenodd" clip-rule="evenodd" d="M15.1267 23.0085L17.2038 27.9506L19.4703 25.268L16.1685 21.9667L15.1267 23.0085ZM17.0905 29.0801C17.0136 29.0801 16.9383 29.0574 16.8742 29.0148C16.81 28.9723 16.7599 28.9118 16.73 28.8409L14.305 23.0691C14.275 22.9976 14.2669 22.9188 14.2818 22.8427C14.2967 22.7665 14.334 22.6966 14.3887 22.6417L15.8928 21.1381C15.966 21.0648 16.0654 21.0237 16.1689 21.0237C16.2725 21.0237 16.3718 21.0648 16.4451 21.1381L20.2767 24.9697C20.4197 25.1135 20.4294 25.343 20.2984 25.498L17.3886 28.9417C17.3136 29.0305 17.2045 29.0803 17.0905 29.0801ZM20.0006 19.9016L20.008 19.9018C20.026 19.9021 20.0447 19.9025 20.0633 19.9025C22.3033 19.9025 24.1608 17.3055 24.8053 13.2618C25.2018 10.7792 24.654 9.23636 23.1321 8.55169C20.0034 9.64652 17.9671 9.66336 16.7706 8.59737C15.323 9.30372 14.8079 10.8329 15.195 13.2618C15.8397 17.3052 17.6977 19.9023 19.9372 19.9025C19.9561 19.9025 19.9745 19.9021 19.9925 19.9018L20.0006 19.9016ZM19.9406 20.6836C18.7053 20.6836 17.5046 20.0347 16.5535 18.8501C15.5265 17.5701 14.7892 15.6805 14.4238 13.3848C13.9567 10.4588 14.7255 8.56992 16.7096 7.77059C16.7832 7.74085 16.8641 7.73428 16.9415 7.75176C17.0188 7.76924 17.089 7.80994 17.1426 7.8684C18.0705 8.87696 19.9909 8.84305 23.0143 7.76483C23.1038 7.73276 23.203 7.73484 23.2911 7.77059C25.275 8.56969 26.0441 10.4588 25.5769 13.385C25.2108 15.6803 24.4743 17.5703 23.4473 18.8499C22.4807 20.0536 21.2564 20.7074 20.0008 20.6832C19.9803 20.6832 19.96 20.6836 19.9404 20.6834L19.9406 20.6836Z" fill="black"/>
<path fill-rule="evenodd" clip-rule="evenodd" d="M25.0994 16.0364C24.9275 16.0364 24.7534 16.0168 24.5776 15.9764C24.5276 15.9649 24.4804 15.9436 24.4386 15.9138C24.3968 15.884 24.3614 15.8463 24.3342 15.8028C24.307 15.7593 24.2886 15.7109 24.2802 15.6603C24.2717 15.6097 24.2733 15.5579 24.2848 15.5079C24.2964 15.4579 24.3177 15.4107 24.3474 15.369C24.3772 15.3272 24.415 15.2917 24.4585 15.2645C24.502 15.2373 24.5504 15.219 24.601 15.2105C24.6516 15.2021 24.7034 15.2036 24.7534 15.2152C25.656 15.4233 26.2175 14.7861 26.4175 14.5026C26.8662 13.8664 26.9767 13.0334 26.6763 12.5649C26.3998 12.133 25.8244 12.1381 25.3898 12.2184C25.2895 12.2334 25.1873 12.2089 25.1048 12.15C25.0223 12.0912 24.9658 12.0025 24.9475 11.9028C24.9291 11.8031 24.9502 11.7001 25.0063 11.6157C25.0624 11.5312 25.1491 11.4719 25.2482 11.4502C26.525 11.2142 27.1036 11.7831 27.3347 12.1432C27.8037 12.8756 27.6872 14.0571 27.0565 14.9527C26.5633 15.6526 25.856 16.0364 25.0994 16.0364ZM14.9013 16.0364C14.1446 16.0364 13.4374 15.6528 12.9442 14.9524C12.3135 14.0571 12.1963 12.8758 12.666 12.1432C12.8971 11.7828 13.4757 11.2142 14.7525 11.4502C14.8515 11.4719 14.9383 11.5312 14.9944 11.6157C15.0505 11.7001 15.0716 11.8031 15.0532 11.9028C15.0348 12.0025 14.9784 12.0912 14.8959 12.15C14.8133 12.2089 14.7111 12.2334 14.6109 12.2184C14.1762 12.1381 13.6009 12.133 13.3243 12.5649C13.024 13.0331 13.1347 13.8666 13.5829 14.5026C13.7825 14.7861 14.344 15.423 15.2473 15.215C15.4579 15.1665 15.6672 15.2978 15.7161 15.5079C15.7643 15.7178 15.633 15.9278 15.4231 15.9762C15.2473 16.0168 15.0731 16.0364 14.9013 16.0364ZM23.8322 21.8054C23.7286 21.8054 23.6293 21.7642 23.556 21.691C23.4827 21.6178 23.4415 21.5184 23.4415 21.4148V17.5712C23.4415 17.4676 23.4826 17.3682 23.5559 17.2949C23.6291 17.2217 23.7285 17.1805 23.8321 17.1805C23.9357 17.1805 24.0351 17.2217 24.1084 17.2949C24.1816 17.3682 24.2228 17.4676 24.2228 17.5712V21.4148C24.2228 21.6305 24.0477 21.8054 23.8322 21.8054ZM16.1687 21.8054C16.0651 21.8054 15.9657 21.7642 15.8924 21.691C15.8191 21.6178 15.7779 21.5184 15.7779 21.4148V17.5712C15.7779 17.4676 15.819 17.3682 15.8923 17.295C15.9655 17.2218 16.0649 17.1806 16.1684 17.1806C16.272 17.1806 16.3714 17.2218 16.4446 17.295C16.5178 17.3682 16.559 17.4676 16.559 17.5712L16.5592 21.4146C16.5592 21.6303 16.3841 21.8054 16.1687 21.8054ZM18.2088 37.8952C18.1486 37.8952 18.0866 37.8813 18.0289 37.8513C16.6893 37.1567 15.7486 35.6158 15.1537 33.1398C14.588 30.7836 14.3001 27.4408 14.2747 22.9205C14.2744 22.8692 14.2842 22.8184 14.3035 22.7708C14.3229 22.7233 14.3514 22.6801 14.3874 22.6436C14.4235 22.6071 14.4664 22.5781 14.5137 22.5582C14.561 22.5383 14.6117 22.5279 14.663 22.5277H14.6653C14.8794 22.5277 15.0542 22.7011 15.0561 22.9161C15.1047 31.5961 16.1327 35.9886 18.3885 37.1577C18.4806 37.2053 18.55 37.2875 18.5814 37.3863C18.6128 37.485 18.6038 37.5922 18.5563 37.6843C18.5231 37.7478 18.4732 37.8011 18.412 37.8383C18.3507 37.8754 18.2805 37.8951 18.2088 37.8952ZM21.7918 37.8952C21.7041 37.8955 21.6189 37.8663 21.5498 37.8123C21.4807 37.7583 21.4318 37.6826 21.4111 37.5974C21.3903 37.5122 21.3988 37.4225 21.4352 37.3427C21.4717 37.2629 21.5339 37.1977 21.6119 37.1577C23.868 35.9886 24.8957 31.5963 24.9446 22.9161C24.9453 22.813 24.9868 22.7143 25.0599 22.6415C25.1331 22.5688 25.232 22.5278 25.3351 22.5277H25.3375C25.5534 22.5288 25.7273 22.7048 25.7257 22.9205C25.7005 27.4408 25.4124 30.7834 24.8468 33.1398C24.2521 35.6158 23.3111 37.1567 21.9708 37.8513C21.9139 37.8811 21.852 37.8952 21.7918 37.8952Z" fill="black"/>
<path fill-rule="evenodd" clip-rule="evenodd" d="M24.8468 33.1377C24.4106 34.9537 23.7879 36.2667 22.9584 37.1117H32.9369C33.3081 37.1117 33.6456 36.9606 33.8882 36.6861C34.0078 36.5517 34.097 36.3931 34.1498 36.2212C34.2026 36.0492 34.2177 35.8679 34.1941 35.6895L33.0338 26.2894C33.0019 26.0338 32.8628 25.8469 32.652 25.7763L25.7213 23.457C25.677 27.7053 25.3896 30.8758 24.8468 33.1377ZM15.1537 33.1377C14.6109 30.8758 14.3234 27.7053 14.2791 23.4573L7.34845 25.7759C7.1376 25.8469 6.9985 26.034 6.96666 26.2894L5.80632 35.6895C5.78276 35.8679 5.79789 36.0492 5.85067 36.2211C5.90346 36.3931 5.99266 36.5517 6.11221 36.6861C6.35489 36.9606 6.69261 37.1117 7.06355 37.1117H17.0418C16.2125 36.2667 15.5899 34.9537 15.1537 33.1377Z" fill="#0087FF"/>
<path fill-rule="evenodd" clip-rule="evenodd" d="M15.0868 24.9297C15.2628 31.68 16.1505 35.4358 17.9 36.8374L18.9032 28.9794L18.2956 27.8675L17.3886 28.9411C17.3455 28.9922 17.29 29.0314 17.2273 29.0549C17.1647 29.0784 17.0971 29.0853 17.031 29.0751C16.9649 29.0649 16.9026 29.038 16.8499 28.9969C16.7972 28.9558 16.7559 28.9018 16.73 28.8403L15.0868 24.9297Z" fill="#62DBFB"/>
<path fill-rule="evenodd" clip-rule="evenodd" d="M19.651 29.2948L18.6531 37.114H21.3482L20.3493 29.2948H19.651ZM19.5384 28.5137H20.4621L21.1641 27.2287L20.0003 25.8516L18.8365 27.2287L19.5384 28.5137Z" fill="#FD481E"/>
<path fill-rule="evenodd" clip-rule="evenodd" d="M20.5306 25.2662L21.9242 26.9158C21.9307 26.9227 21.9367 26.9301 21.9424 26.9372L22.7969 27.9486L24.8737 23.0064L23.8322 21.9648L20.5306 25.2662Z" fill="#62DBFB"/>
<path fill-rule="evenodd" clip-rule="evenodd" d="M22.6121 28.9401L21.7048 27.8662L21.0965 28.9781L22.1004 36.8362C23.8499 35.4347 24.7376 31.6792 24.9134 24.9289L23.2705 28.839C23.2406 28.91 23.1904 28.9705 23.1263 29.0131C23.0621 29.0557 22.9869 29.0784 22.9099 29.0785C22.7962 29.0785 22.6871 29.0286 22.6121 28.9401ZM18.0768 26.9153L19.4702 25.2662L16.1684 21.9648L15.1268 23.0066L17.2037 27.9488L18.0574 26.9382C18.0637 26.9303 18.0699 26.9229 18.0768 26.9153Z" fill="#62DBFB"/>
<path fill-rule="evenodd" clip-rule="evenodd" d="M16.5592 21.2504L20.0003 24.6916L23.4414 21.2504V18.8555C22.4756 20.0543 21.2539 20.7056 20.0006 20.6813C19.9803 20.6813 19.96 20.6818 19.9406 20.6816C18.7076 20.6818 17.5096 20.0357 16.5592 18.8555V21.2504Z" fill="#FFD180"/>
<path fill-rule="evenodd" clip-rule="evenodd" d="M15.1951 13.2611C15.8397 17.3043 17.6976 19.9014 19.9371 19.9016L20.0005 19.9007L20.0633 19.9016C22.3032 19.9016 24.1607 17.3046 24.8052 13.2609C24.8855 12.758 24.9272 12.2939 24.9298 11.8676C24.9277 11.8443 24.9277 11.8209 24.9298 11.7977C24.9233 10.1582 24.3288 9.08943 23.1321 8.55078C20.0033 9.64561 17.967 9.66245 16.7707 8.59646C15.6387 9.14872 15.0768 10.2039 15.0706 11.7988C15.0729 11.821 15.0729 11.8433 15.0708 11.8659C15.0731 12.2927 15.1146 12.7578 15.1951 13.2611Z" fill="#FFD180"/>
<path fill-rule="evenodd" clip-rule="evenodd" d="M17.1426 7.8684C18.0704 8.87672 19.9909 8.84281 23.0142 7.7646C23.1037 7.73253 23.2029 7.73461 23.291 7.77036C24.7822 8.37106 25.587 9.58723 25.6964 11.3967C26.0159 11.3824 26.2807 11.4244 26.4999 11.4982C27.66 5.6596 23.56 3.75161 22.2442 3.29854C20.0562 2.5449 17.6854 2.88031 17.1694 4.0162C17.1232 4.11932 17.0335 4.19729 16.9244 4.22936C16.2107 4.43958 15.5515 4.80332 14.9932 5.29509C14.4348 5.78686 13.9907 6.39477 13.692 7.07623C13.1476 8.31385 13.1753 10.0594 13.7396 11.435C13.9255 11.3997 14.115 11.3868 14.304 11.3967C14.4136 9.58723 15.2185 8.37106 16.7096 7.77036C16.7832 7.74062 16.864 7.73405 16.9414 7.75153C17.0188 7.76901 17.089 7.80993 17.1426 7.8684Z" fill="#938987"/>
<path fill-rule="evenodd" clip-rule="evenodd" d="M25.7022 12.1792C25.6839 12.5832 25.6421 12.9858 25.5769 13.385C25.4779 14.0151 25.343 14.6392 25.1728 15.254C25.8316 15.2219 26.2505 14.7388 26.4176 14.5022C26.8662 13.8659 26.9767 13.0329 26.6764 12.5644C26.6486 12.5208 26.6164 12.4802 26.5804 12.4431C26.5343 12.4177 26.4941 12.3838 26.4621 12.3439C26.2473 12.1974 25.9684 12.1639 25.7022 12.1792ZM14.8277 15.254C14.6575 14.6391 14.5227 14.015 14.4238 13.3847C14.3587 12.9856 14.3169 12.5831 14.2985 12.1792C13.9306 12.1579 13.5382 12.2306 13.3244 12.5644C13.024 13.0327 13.1347 13.8662 13.583 14.5022C13.7495 14.7388 14.1682 15.2219 14.8277 15.254Z" fill="#FFD180"/>
</svg>
