<svg width="40" height="40" viewBox="0 0 40 40" fill="none" xmlns="http://www.w3.org/2000/svg">
<g clip-path="url(#clip0_4024_758)">
<path d="M38.0453 20.0772C38.0375 20.0851 38.0706 20.0772 37.946 20.0772C36.6327 20.0772 35.7249 21.2951 36.1826 22.43C35.9622 22.6623 36.9134 21.7115 20.8271 37.7136C20.6075 37.9323 20.3101 38.0551 20.0002 38.0551C19.6902 38.0551 19.3928 37.9323 19.1732 37.7136C3.09186 21.7156 4.04039 22.6647 3.81778 22.43C4.29364 21.2501 3.29884 20.0142 1.95667 20.0797C1.95589 20.0788 1.95589 20.078 1.95511 20.0773C0.623885 17.9973 -0.0443461 15.7407 0.00255274 13.4246C0.184286 4.33447 11.2769 -2.36808 20.0002 5.26189C28.7187 -2.36386 39.8161 4.3297 39.9979 13.4246C40.0448 15.7407 39.3765 17.9973 38.0453 20.0772Z" fill="#FF405C"/>
<path d="M38.0454 20.0803C38.0375 20.0882 38.0707 20.0803 37.9461 20.0803C36.6328 20.0803 35.725 21.2982 36.1827 22.4331C35.9623 22.6654 36.9135 21.7146 20.8272 37.7167C20.6077 37.9356 20.3103 38.0585 20.0002 38.0582V5.26499C25.4307 0.515227 32.2061 1.12186 36.5219 5.43617C40.3596 9.27383 41.2441 15.0823 38.0454 20.0803Z" fill="#C30047"/>
<path d="M38.0452 20.0775C37.527 20.888 36.9079 21.672 36.1904 22.4224H27.504C27.0725 22.4224 26.6763 22.1856 26.4715 21.8057L23.194 15.7182L18.5588 25.5037C18.1664 26.3321 17.0063 26.4131 16.5101 25.6311L13.1514 20.3534L12.2509 21.8533C12.1469 22.0269 11.9995 22.1706 11.8234 22.2703C11.6472 22.3701 11.4482 22.4224 11.2457 22.4223H3.80993C3.09238 21.672 2.47331 20.888 1.95508 20.0774H10.5821L12.1165 17.5198C12.5602 16.7787 13.6391 16.7522 14.1105 17.494L17.3481 22.581L22.0669 12.6189C22.48 11.7503 23.7033 11.7207 24.1593 12.565L28.2044 20.0774H38.0452V20.0775Z" fill="#E1F3FF"/>
<path d="M24.1594 12.5649C23.7042 11.7223 22.4807 11.7487 22.0669 12.6188L20.0002 16.9818V22.4606L23.1941 15.718L26.4715 21.8055C26.5719 21.9919 26.7209 22.1477 26.9027 22.2563C27.0845 22.3648 27.2923 22.4222 27.5041 22.4222H36.1905C36.9081 21.6718 37.5271 20.8878 38.0454 20.0773H28.2044L24.1594 12.5649Z" fill="#B1D5F1"/>
</g>
<defs>
<clipPath id="clip0_4024_758">
<rect width="40" height="40" fill="white"/>
</clipPath>
</defs>
</svg>
