<svg width="40" height="40" viewBox="0 0 40 40" fill="none" xmlns="http://www.w3.org/2000/svg">
<path d="M2 0L4.48438 35.008L19.6719 40L34.8592 35.008L37.3436 0H2Z" fill="#FF7816"/>
<path d="M37.3435 0L34.8592 35.008L19.6718 40V0H37.3435Z" fill="#FF4B00"/>
<path d="M30.7109 10.625H13.3438L13.7655 16.4844H30.2892L29.2812 30.6717L19.6718 33.8827L10.0624 30.6717L9.73438 25.9375H14.4219L14.5156 27.2266L19.6719 28.9373L24.8281 27.2266L25.2498 21.1719H9.38281L8.30469 5.9375H31.0391L30.7109 10.625Z" fill="#ECECF1"/>
<path d="M30.2892 16.4844L29.2811 30.6717L19.6718 33.8827V28.9374L24.828 27.2266L25.2498 21.1719H19.6718V16.4844H30.2892ZM31.039 5.9375L30.7109 10.625H19.6718V5.9375H31.039Z" fill="#E2E2E7"/>
</svg>
