<svg width="40" height="40" viewBox="0 0 40 40" fill="none" xmlns="http://www.w3.org/2000/svg">
<g clip-path="url(#clip0_2382_1799)">
<path d="M0 0H40V40H0V0Z" fill="#F0DC50"/>
<path d="M30.1826 18.1532C30.8962 18.128 31.6097 18.2035 32.3023 18.3774C33.9209 18.8008 34.8984 19.7621 35.7146 21.1519C34.7609 21.7826 33.7623 22.4082 32.7964 23.0254C32.3462 22.2564 31.8205 21.6025 30.8873 21.4602C30.3183 21.3732 29.7023 21.415 29.2228 21.7643C28.8919 22.0014 28.6701 22.3617 28.6072 22.7641C28.3693 24.3137 29.8751 24.8705 31.0384 25.3693C33.3802 26.3736 36.197 27.4939 36.7009 30.3367C36.8347 31.092 36.8572 31.8445 36.7292 32.6031C36.5281 33.841 35.8335 34.9443 34.8044 35.6607C33.1296 36.8469 30.7988 37.0064 28.8308 36.6744C28.5146 36.616 28.2025 36.5385 27.8957 36.4424C26.031 35.8615 24.6669 34.7189 23.7615 32.9947C24.7708 32.4353 25.8179 31.8092 26.8189 31.2277C27.7179 32.7408 28.9439 33.5871 30.7404 33.5008C31.8988 33.4451 33.121 32.8637 33.0621 31.5326C33.0417 31.0719 32.8406 30.6584 32.5011 30.349C31.9787 29.8961 31.2046 29.5285 30.5671 29.2693C27.866 28.1711 25.0277 26.9111 24.9041 23.5236C24.8537 22.1432 25.1214 20.9396 26.1015 19.8582C27.1828 18.6651 28.6224 18.2248 30.1826 18.1532Z" fill="#333332"/>
<path d="M17.9763 18.3633L21.7258 18.3637C21.6928 21.4322 21.7237 24.5587 21.7243 27.6318L21.7245 30.2029C21.7245 30.8658 21.7342 31.4828 21.6717 32.1433C21.4821 34.1474 20.3805 35.8831 18.3875 36.4958C16.6609 37.0267 14.6779 36.9517 13.0432 36.1318C11.8789 35.5079 11.0575 34.582 10.5006 33.3972L13.5544 31.5511C14.1153 32.5529 14.6957 33.5013 15.9797 33.4796C16.5957 33.4855 17.2966 33.3273 17.6311 32.7494C18.0656 31.999 17.9769 30.9581 17.9769 30.1095L17.9762 27.4386L17.9763 18.3633Z" fill="#333332"/>
</g>
<defs>
<clipPath id="clip0_2382_1799">
<rect width="40" height="40" fill="white"/>
</clipPath>
</defs>
</svg>
