<svg width="40" height="40" viewBox="0 0 40 40" fill="none" xmlns="http://www.w3.org/2000/svg">
<path d="M26.3821 26.1572C24.5185 28.0207 24.7515 31.7811 24.7515 31.7811H15.3006C15.3006 31.7811 15.5002 28.0207 13.67 26.1572C11.64 24.3602 10.3422 21.7645 10.3422 18.8693C10.3422 13.5449 14.6683 9.21875 19.9927 9.21875C25.3172 9.21875 29.6433 13.5449 29.6433 18.8693C29.6433 21.7645 28.3788 24.3602 26.3821 26.1572Z" fill="#FFD517"/>
<path d="M25.0177 34.7423C25.0177 35.2414 24.6184 35.6408 24.1192 35.6408H15.8996C15.4004 35.6408 15.0011 35.2414 15.0011 34.7423C15.0011 34.2431 15.4004 33.8438 15.8996 33.8438H24.086C24.5851 33.8438 25.0177 34.2431 25.0177 34.7423ZM23.7865 38.4694C23.7865 38.9685 23.3871 39.3679 22.888 39.3679H17.1309C16.6317 39.3679 16.2324 38.9685 16.2324 38.4694C16.2324 37.9702 16.6317 37.5709 17.1309 37.5709H22.888C23.3871 37.5709 23.7865 37.9702 23.7865 38.4694Z" fill="#E5E5E5"/>
<path d="M26.8812 26.4894C29.0443 24.526 30.2756 21.764 30.2756 18.8688C30.2756 13.2116 25.6499 8.58594 19.9927 8.58594C14.3355 8.58594 9.70984 13.2116 9.70984 18.8688C9.70984 21.8305 11.0077 24.6591 13.204 26.5893C14.8346 28.2199 14.6682 31.6808 14.6682 31.7141C14.6682 31.8804 14.7348 32.0468 14.8346 32.1799C14.9677 32.3131 15.1341 32.3796 15.3005 32.3796H24.7182C24.8845 32.3796 25.0509 32.3131 25.184 32.1799C25.3172 32.0468 25.3504 31.8804 25.3504 31.7141C25.3504 31.6808 25.184 28.2199 26.8147 26.5893C26.8479 26.556 26.8812 26.5227 26.8812 26.4894ZM25.9494 25.6575C25.8829 25.6908 25.8496 25.7573 25.8163 25.8239C24.3521 27.3879 24.1192 29.9503 24.0859 31.1483H15.9328C15.8995 29.9171 15.6333 27.2548 14.0692 25.6908C12.1058 23.9603 10.9744 21.4978 10.9744 18.9021C10.9744 13.9104 15.0343 9.88377 19.9927 9.88377C24.9844 9.88377 29.011 13.9437 29.011 18.9021C29.011 21.4645 27.9128 23.9603 25.9494 25.6575Z" fill="#210B20"/>
<path d="M19.9927 11.2479C19.6599 11.2479 19.3604 11.5141 19.3604 11.8802C19.3604 12.213 19.6267 12.5125 19.9927 12.5125C23.7198 12.5125 26.7481 15.5408 26.7481 19.2679C26.7481 19.6007 27.0144 19.9002 27.3804 19.9002C27.7132 19.9002 28.0127 19.6339 28.0127 19.2679C28.0127 14.8419 24.4187 11.2479 19.9927 11.2479ZM25.65 34.7421C25.65 33.8769 24.9511 33.2113 24.1192 33.2113H15.8995C15.0343 33.2113 14.3688 33.9101 14.3688 34.7421C14.3688 35.6073 15.0676 36.2729 15.8995 36.2729H24.0859C24.9511 36.2729 25.65 35.6073 25.65 34.7421ZM24.0859 35.0083H15.8995C15.7332 35.0083 15.6333 34.8752 15.6333 34.7421C15.6333 34.5757 15.7664 34.4759 15.8995 34.4759H24.0859C24.2523 34.4759 24.3521 34.609 24.3521 34.7421C24.3854 34.9085 24.2523 35.0083 24.0859 35.0083ZM22.8879 36.9384H17.1308C16.2656 36.9384 15.6 37.6373 15.6 38.4692C15.6 39.3344 16.2989 40 17.1308 40H22.8879C23.7531 40 24.4187 39.3012 24.4187 38.4692C24.4187 37.6373 23.7198 36.9384 22.8879 36.9384ZM22.8879 38.7354H17.1308C16.9644 38.7354 16.8646 38.6023 16.8646 38.4692C16.8646 38.3028 16.9977 38.203 17.1308 38.203H22.8879C23.0543 38.203 23.1541 38.3361 23.1541 38.4692C23.1541 38.6356 23.0543 38.7354 22.8879 38.7354ZM20.625 4.89185V0.63228C20.625 0.299501 20.3588 0 19.9927 0C19.6599 0 19.3604 0.266223 19.3604 0.63228V4.92512C19.3604 5.2579 19.6267 5.5574 19.9927 5.5574C20.3588 5.52413 20.625 5.2579 20.625 4.89185ZM30.4753 3.1614C30.1758 2.96173 29.8097 3.06156 29.61 3.32779L27.2473 6.88852C27.0476 7.18802 27.1475 7.55408 27.4137 7.75374C27.5135 7.8203 27.6466 7.85358 27.7465 7.85358C27.9461 7.85358 28.1458 7.75374 28.2789 7.58735L30.6416 4.02662C30.8413 3.7604 30.7415 3.36106 30.4753 3.1614ZM12.4719 7.72047C12.5718 7.72047 12.7049 7.68719 12.8047 7.62063C13.1042 7.42096 13.1708 7.05491 13.0044 6.75541L10.7082 3.1614C10.5085 2.8619 10.1425 2.79534 9.84298 2.96173C9.54348 3.1614 9.47692 3.52745 9.64331 3.82695L11.9395 7.42096C12.0726 7.62063 12.2723 7.72047 12.4719 7.72047ZM3.6533 10.7155L7.41369 12.7454C7.51353 12.812 7.61336 12.812 7.71319 12.812C7.94614 12.812 8.14581 12.6789 8.27892 12.4792C8.44531 12.1797 8.34547 11.7804 8.0127 11.614L4.2523 9.58403C3.9528 9.41764 3.55346 9.51747 3.38707 9.85025C3.25396 10.183 3.35379 10.5491 3.6533 10.7155ZM32.2723 12.8453C32.3721 12.8453 32.4719 12.812 32.5718 12.7787L36.3322 10.7488C36.6317 10.5824 36.7648 10.2163 36.5984 9.88353C36.432 9.58403 36.0659 9.45091 35.7332 9.6173L31.9728 11.6473C31.6733 11.8136 31.5401 12.1797 31.7065 12.5125C31.8064 12.7121 32.0393 12.8453 32.2723 12.8453Z" fill="#210B20"/>
</svg>
