<svg width="205" height="36" viewBox="0 0 205 36" fill="none" xmlns="http://www.w3.org/2000/svg">
<path d="M27.1561 1.76417L7.96988 35.3601C7.53371 36.1179 6.45604 36.1503 5.97558 35.4207L0.193978 26.639C-0.0502772 26.2674 -0.0650438 25.7882 0.156397 25.4019L14.7065 0.5877C14.9293 0.20138 15.3493 -0.0247591 15.7922 0.00216217L26.2086 0.00216935C27.0809 0.0546659 27.5922 1.00768 27.1561 1.76417Z" fill="#000047"/>
<path d="M15.9488 36.0003H6.95434C6.04307 36.0003 5.47941 35.0029 5.94779 34.2181L11.5791 24.8051C11.7911 24.4511 12.1723 24.2344 12.5856 24.2344H21.5801C22.4914 24.2344 23.0551 25.2318 22.5867 26.0166L16.9554 35.4296C16.742 35.7836 16.3608 36.0003 15.9488 36.0003Z" fill="#7070FF"/>
<path d="M20.7907 34.1355L34.4297 10.5028C34.867 9.7448 35.9476 9.71249 36.4294 10.4422L42.2267 19.2258C42.4716 19.5974 42.4864 20.0767 42.2643 20.4631L33.3313 35.269C33.1079 35.6554 32.6867 35.8816 32.2427 35.8547L21.7408 35.8979C20.8661 35.8454 20.3534 34.8935 20.7907 34.1355Z" fill="#000047"/>
<path d="M26.3716 9.91406H35.3905C36.3042 9.91406 36.8694 10.9117 36.3998 11.6966L30.7532 21.1116C30.5406 21.4657 30.1584 21.6825 29.7439 21.6825H20.725C19.8113 21.6825 19.2461 20.6848 19.7158 19.8999L25.3623 10.4849C25.575 10.1308 25.9585 9.91406 26.3716 9.91406Z" fill="#7070FF"/>
<path d="M53.0725 29V7.18182H58.3459V15.9389H66.9432V7.18182H72.206V29H66.9432V20.2322H58.3459V29H53.0725ZM83.463 29.3089C81.7514 29.3089 80.2741 28.9716 79.0312 28.2969C77.7954 27.6151 76.8437 26.6456 76.1761 25.3885C75.5156 24.1243 75.1853 22.6222 75.1853 20.8821C75.1853 19.1918 75.5191 17.7145 76.1868 16.4503C76.8544 15.179 77.7954 14.1918 79.0099 13.4886C80.2244 12.7784 81.6555 12.4233 83.3032 12.4233C84.468 12.4233 85.5333 12.6044 86.4993 12.9666C87.4652 13.3288 88.2997 13.8651 89.0028 14.5753C89.7059 15.2855 90.2528 16.1626 90.6434 17.2067C91.0341 18.2436 91.2294 19.4332 91.2294 20.7756V22.0753H77.0071V19.0497H86.3821C86.375 18.4957 86.2436 18.0021 85.9879 17.5689C85.7322 17.1357 85.3806 16.7983 84.9332 16.5568C84.4929 16.3082 83.9851 16.1839 83.4098 16.1839C82.8274 16.1839 82.3054 16.3153 81.8437 16.5781C81.3821 16.8338 81.0163 17.1854 80.7464 17.6328C80.4765 18.0732 80.3345 18.5739 80.3203 19.1349V22.2138C80.3203 22.8814 80.4517 23.4673 80.7145 23.9716C80.9772 24.4687 81.3501 24.8558 81.8331 25.1328C82.316 25.4098 82.8913 25.5483 83.5589 25.5483C84.0206 25.5483 84.4396 25.4844 84.816 25.3565C85.1924 25.2287 85.5156 25.0405 85.7855 24.7919C86.0554 24.5433 86.2578 24.2379 86.3927 23.8757L91.1761 24.0142C90.9772 25.0866 90.5405 26.0206 89.8657 26.8161C89.1981 27.6044 88.321 28.2187 87.2343 28.6591C86.1477 29.0923 84.8906 29.3089 83.463 29.3089ZM98.803 29.277C97.759 29.277 96.8321 29.103 96.0224 28.755C95.2199 28.3999 94.5842 27.8672 94.1155 27.157C93.6538 26.4396 93.423 25.5412 93.423 24.4616C93.423 23.5526 93.5828 22.7855 93.9024 22.1605C94.222 21.5355 94.6624 21.0277 95.2234 20.6371C95.7845 20.2464 96.4308 19.9517 97.1624 19.7528C97.8939 19.5469 98.6751 19.4084 99.5061 19.3374C100.437 19.2521 101.186 19.1634 101.754 19.071C102.322 18.9716 102.734 18.8331 102.99 18.6555C103.253 18.4709 103.384 18.2116 103.384 17.8778V17.8246C103.384 17.2777 103.196 16.8551 102.819 16.5568C102.443 16.2585 101.935 16.1094 101.296 16.1094C100.607 16.1094 100.053 16.2585 99.634 16.5568C99.2149 16.8551 98.9486 17.267 98.8349 17.7926L94.0303 17.6222C94.1723 16.6278 94.5381 15.7401 95.1276 14.9588C95.7241 14.1705 96.5409 13.5526 97.5778 13.1051C98.6219 12.6506 99.8754 12.4233 101.338 12.4233C102.383 12.4233 103.345 12.5476 104.226 12.7962C105.106 13.0376 105.873 13.3928 106.527 13.8615C107.18 14.3232 107.684 14.8913 108.039 15.5661C108.402 16.2408 108.583 17.0114 108.583 17.8778V29H103.682V26.7202H103.554C103.263 27.2741 102.89 27.7429 102.436 28.1264C101.988 28.5099 101.459 28.7976 100.848 28.9893C100.245 29.1811 99.5629 29.277 98.803 29.277ZM100.412 25.8679C100.973 25.8679 101.477 25.7543 101.924 25.527C102.379 25.2997 102.741 24.9872 103.011 24.5895C103.281 24.1847 103.416 23.7159 103.416 23.1832V21.6278C103.267 21.706 103.086 21.777 102.873 21.8409C102.667 21.9048 102.439 21.9652 102.191 22.022C101.942 22.0788 101.687 22.1286 101.424 22.1712C101.161 22.2138 100.909 22.2528 100.667 22.2884C100.177 22.3665 99.7582 22.4872 99.4102 22.6506C99.0693 22.8139 98.8065 23.027 98.6219 23.2898C98.4443 23.5455 98.3555 23.8509 98.3555 24.206C98.3555 24.7457 98.5473 25.1577 98.9308 25.4418C99.3215 25.7259 99.8151 25.8679 100.412 25.8679ZM118.045 29.2344C116.837 29.2344 115.74 28.9219 114.753 28.2969C113.766 27.6719 112.977 26.7344 112.388 25.4844C111.798 24.2344 111.504 22.6825 111.504 20.8288C111.504 18.9041 111.809 17.3203 112.42 16.0774C113.031 14.8345 113.83 13.9148 114.817 13.3182C115.811 12.7216 116.88 12.4233 118.023 12.4233C118.883 12.4233 119.618 12.5724 120.229 12.8707C120.839 13.1619 121.344 13.5384 121.741 14C122.139 14.4616 122.441 14.9411 122.647 15.4382H122.754V7.18182H127.963V29H122.807V26.3473H122.647C122.427 26.8516 122.114 27.3239 121.71 27.7642C121.305 28.2045 120.797 28.5597 120.186 28.8295C119.582 29.0994 118.869 29.2344 118.045 29.2344ZM119.856 25.1754C120.488 25.1754 121.028 24.9979 121.475 24.6428C121.923 24.2805 122.267 23.7727 122.509 23.1193C122.75 22.4659 122.871 21.6989 122.871 20.8182C122.871 19.9233 122.75 19.1527 122.509 18.5064C122.274 17.8601 121.93 17.3629 121.475 17.0149C121.028 16.6669 120.488 16.4929 119.856 16.4929C119.21 16.4929 118.663 16.6705 118.215 17.0256C117.768 17.3807 117.427 17.8814 117.192 18.5277C116.965 19.174 116.852 19.9375 116.852 20.8182C116.852 21.6989 116.969 22.4659 117.203 23.1193C117.438 23.7727 117.775 24.2805 118.215 24.6428C118.663 24.9979 119.21 25.1754 119.856 25.1754Z" fill="#000047"/>
<path d="M131.558 29V7.18182H140.656C142.289 7.18182 143.656 7.41264 144.757 7.87429C145.865 8.33594 146.696 8.98224 147.25 9.81321C147.811 10.6442 148.092 11.6065 148.092 12.7003C148.092 13.5312 147.918 14.2734 147.57 14.9268C147.222 15.5732 146.742 16.1094 146.131 16.5355C145.521 16.9616 144.814 17.2599 144.011 17.4304V17.6435C144.892 17.6861 145.705 17.924 146.451 18.3572C147.204 18.7905 147.808 19.3942 148.262 20.1683C148.717 20.9354 148.944 21.8445 148.944 22.8956C148.944 24.0675 148.646 25.1151 148.049 26.0384C147.453 26.9545 146.59 27.679 145.46 28.2116C144.331 28.7372 142.96 29 141.348 29H131.558ZM136.831 24.7493H140.091C141.234 24.7493 142.076 24.5327 142.616 24.0994C143.163 23.6662 143.436 23.0625 143.436 22.2884C143.436 21.7273 143.305 21.2443 143.042 20.8395C142.779 20.4276 142.406 20.1115 141.923 19.8913C141.44 19.6641 140.862 19.5504 140.187 19.5504H136.831V24.7493ZM136.831 16.152H139.75C140.325 16.152 140.837 16.0561 141.284 15.8643C141.732 15.6726 142.08 15.3956 142.328 15.0334C142.584 14.6712 142.712 14.2344 142.712 13.723C142.712 12.9915 142.453 12.4162 141.934 11.9972C141.416 11.5781 140.716 11.3686 139.835 11.3686H136.831V16.152ZM156.392 29.277C155.348 29.277 154.422 29.103 153.612 28.755C152.809 28.3999 152.174 27.8672 151.705 27.157C151.243 26.4396 151.012 25.5412 151.012 24.4616C151.012 23.5526 151.172 22.7855 151.492 22.1605C151.811 21.5355 152.252 21.0277 152.813 20.6371C153.374 20.2464 154.02 19.9517 154.752 19.7528C155.483 19.5469 156.265 19.4084 157.096 19.3374C158.026 19.2521 158.775 19.1634 159.343 19.071C159.912 18.9716 160.324 18.8331 160.579 18.6555C160.842 18.4709 160.973 18.2116 160.973 17.8778V17.8246C160.973 17.2777 160.785 16.8551 160.409 16.5568C160.032 16.2585 159.525 16.1094 158.885 16.1094C158.196 16.1094 157.642 16.2585 157.223 16.5568C156.804 16.8551 156.538 17.267 156.424 17.7926L151.62 17.6222C151.762 16.6278 152.128 15.7401 152.717 14.9588C153.314 14.1705 154.13 13.5526 155.167 13.1051C156.211 12.6506 157.465 12.4233 158.928 12.4233C159.972 12.4233 160.934 12.5476 161.815 12.7962C162.696 13.0376 163.463 13.3928 164.116 13.8615C164.77 14.3232 165.274 14.8913 165.629 15.5661C165.991 16.2408 166.172 17.0114 166.172 17.8778V29H161.272V26.7202H161.144C160.853 27.2741 160.48 27.7429 160.025 28.1264C159.578 28.5099 159.049 28.7976 158.438 28.9893C157.834 29.1811 157.152 29.277 156.392 29.277ZM158.001 25.8679C158.562 25.8679 159.066 25.7543 159.514 25.527C159.968 25.2997 160.331 24.9872 160.601 24.5895C160.87 24.1847 161.005 23.7159 161.005 23.1832V21.6278C160.856 21.706 160.675 21.777 160.462 21.8409C160.256 21.9048 160.029 21.9652 159.78 22.022C159.532 22.0788 159.276 22.1286 159.013 22.1712C158.75 22.2138 158.498 22.2528 158.257 22.2884C157.767 22.3665 157.348 22.4872 157 22.6506C156.659 22.8139 156.396 23.027 156.211 23.2898C156.034 23.5455 155.945 23.8509 155.945 24.206C155.945 24.7457 156.137 25.1577 156.52 25.4418C156.911 25.7259 157.405 25.8679 158.001 25.8679ZM183.944 17.6328L179.16 17.7607C179.111 17.4197 178.976 17.1179 178.756 16.8551C178.535 16.5852 178.248 16.3757 177.893 16.2266C177.545 16.0703 177.14 15.9922 176.678 15.9922C176.075 15.9922 175.56 16.1129 175.133 16.3544C174.714 16.5959 174.508 16.9226 174.516 17.3345C174.508 17.6541 174.636 17.9311 174.899 18.1655C175.169 18.3999 175.648 18.5881 176.337 18.7301L179.491 19.3267C181.124 19.6392 182.339 20.1577 183.134 20.8821C183.937 21.6065 184.342 22.5653 184.349 23.7585C184.342 24.8807 184.008 25.8572 183.347 26.6882C182.694 27.5192 181.799 28.1655 180.663 28.6271C179.526 29.0817 178.227 29.3089 176.763 29.3089C174.427 29.3089 172.584 28.8295 171.234 27.8707C169.892 26.9048 169.125 25.6122 168.933 23.9929L174.079 23.8651C174.192 24.4616 174.487 24.9162 174.963 25.2287C175.439 25.5412 176.046 25.6974 176.785 25.6974C177.452 25.6974 177.996 25.5732 178.415 25.3246C178.834 25.076 179.047 24.7457 179.054 24.3338C179.047 23.9645 178.883 23.6697 178.564 23.4496C178.244 23.2223 177.744 23.0447 177.062 22.9169L174.207 22.3736C172.566 22.0753 171.344 21.5249 170.542 20.7223C169.739 19.9126 169.342 18.8828 169.349 17.6328C169.342 16.5391 169.633 15.6051 170.222 14.831C170.812 14.0497 171.65 13.4531 172.736 13.0412C173.823 12.6293 175.105 12.4233 176.582 12.4233C178.798 12.4233 180.545 12.8885 181.824 13.8189C183.102 14.7422 183.809 16.0135 183.944 17.6328ZM194.863 29.3089C193.151 29.3089 191.674 28.9716 190.431 28.2969C189.195 27.6151 188.243 26.6456 187.576 25.3885C186.915 24.1243 186.585 22.6222 186.585 20.8821C186.585 19.1918 186.919 17.7145 187.586 16.4503C188.254 15.179 189.195 14.1918 190.41 13.4886C191.624 12.7784 193.055 12.4233 194.703 12.4233C195.868 12.4233 196.933 12.6044 197.899 12.9666C198.865 13.3288 199.699 13.8651 200.402 14.5753C201.106 15.2855 201.652 16.1626 202.043 17.2067C202.434 18.2436 202.629 19.4332 202.629 20.7756V22.0753H188.407V19.0497H197.782C197.775 18.4957 197.643 18.0021 197.388 17.5689C197.132 17.1357 196.78 16.7983 196.333 16.5568C195.892 16.3082 195.385 16.1839 194.809 16.1839C194.227 16.1839 193.705 16.3153 193.243 16.5781C192.782 16.8338 192.416 17.1854 192.146 17.6328C191.876 18.0732 191.734 18.5739 191.72 19.1349V22.2138C191.72 22.8814 191.851 23.4673 192.114 23.9716C192.377 24.4687 192.75 24.8558 193.233 25.1328C193.716 25.4098 194.291 25.5483 194.959 25.5483C195.42 25.5483 195.839 25.4844 196.216 25.3565C196.592 25.2287 196.915 25.0405 197.185 24.7919C197.455 24.5433 197.657 24.2379 197.792 23.8757L202.576 24.0142C202.377 25.0866 201.94 26.0206 201.265 26.8161C200.598 27.6044 199.721 28.2187 198.634 28.6591C197.547 29.0923 196.29 29.3089 194.863 29.3089Z" fill="#4848FF"/>
</svg>
