<svg width="40" height="40" viewBox="0 0 40 40" fill="none" xmlns="http://www.w3.org/2000/svg">
<path d="M36.2491 18.7961C38.1016 16.8884 39.2188 14.418 39.2188 11.7188C39.2188 5.67812 33.154 0.78125 26.25 0.78125C19.346 0.78125 13.75 5.67812 13.75 11.7188L26.25 22.6562C28.0945 22.6562 30.3149 22.3062 31.8914 21.6788C33.3195 23.2397 35.3736 24.2188 37.6562 24.2188C36.1883 22.7508 35.7188 20.6609 36.2491 18.7961Z" fill="#E87288"/>
<path d="M20.1914 13.2812C23.822 15.1953 26.25 18.6773 26.25 22.6562C26.25 28.6969 20.654 33.5938 13.75 33.5938C11.9055 33.5938 9.68508 33.2437 8.10859 32.6163C6.68055 34.1772 4.62641 35.1562 2.34375 35.1562C3.81172 33.6883 4.28125 31.5984 3.75094 29.7336C1.89844 27.8259 0.78125 25.3555 0.78125 22.6562C0.78125 16.6156 6.84602 11.7188 13.75 11.7188C16.1062 11.7188 18.3109 12.2891 20.1914 13.2812Z" fill="#CAE9FC"/>
<path d="M20 7.8125C19.5688 7.8125 19.2188 8.1625 19.2188 8.59375C19.2188 9.025 19.5688 9.375 20 9.375C20.4312 9.375 20.7812 9.025 20.7812 8.59375C20.7812 8.1625 20.4312 7.8125 20 7.8125ZM7.03125 21.875C7.4625 21.875 7.8125 21.525 7.8125 21.0938C7.8125 20.6625 7.4625 20.3125 7.03125 20.3125C6.6 20.3125 6.25 20.6625 6.25 21.0938C6.25 21.525 6.6 21.875 7.03125 21.875Z" fill="black"/>
<path d="M26.25 0C19.2166 0 13.4439 4.84922 12.9974 10.9573C6.29922 11.2933 0 16.1234 0 22.6562C0 25.3863 1.08031 28.0316 3.04688 30.1276C3.43594 31.7316 2.96359 33.4317 1.79141 34.6039C1.6821 34.7131 1.60766 34.8523 1.57748 35.0039C1.54731 35.1554 1.56276 35.3125 1.62189 35.4553C1.68102 35.5981 1.78117 35.7201 1.90966 35.8059C2.03816 35.8918 2.18922 35.9375 2.34375 35.9375C4.57188 35.9375 6.71906 35.0637 8.31453 33.5242C9.86875 34.0539 11.8966 34.375 13.75 34.375C20.7825 34.375 26.5545 29.527 27.0023 23.4201C28.638 23.3474 30.3394 23.0453 31.6855 22.5866C33.2809 24.1263 35.4281 25 37.6562 25C37.8108 25 37.9618 24.9542 38.0903 24.8684C38.2188 24.7826 38.319 24.6606 38.3781 24.5178C38.4372 24.375 38.4527 24.2179 38.4225 24.0664C38.3923 23.9148 38.3179 23.7756 38.2086 23.6664C37.0364 22.4942 36.5641 20.7941 36.9531 19.1901C38.9197 17.0941 40 14.4488 40 11.7188C40 4.9307 33.2156 0 26.25 0ZM13.75 32.8125C11.9061 32.8125 9.805 32.4505 8.3975 31.8906C8.25016 31.8319 8.08845 31.8194 7.93386 31.8549C7.77927 31.8903 7.63911 31.9719 7.53203 32.0889C6.58875 33.1202 5.36227 33.8391 4.02586 34.1696C4.77327 32.7375 4.94376 31.0735 4.50227 29.5196C4.46691 29.3954 4.40127 29.282 4.31125 29.1895C2.53875 27.3639 1.5625 25.0437 1.5625 22.6562C1.5625 17.1509 7.14359 12.5 13.75 12.5C19.9884 12.5 25.4688 16.838 25.4688 22.6562C25.4688 28.2566 20.2117 32.8125 13.75 32.8125ZM35.6888 18.252C35.5988 18.3446 35.5332 18.458 35.4977 18.5822C35.0562 20.1361 35.2267 21.8001 35.9741 23.2322C34.6377 22.902 33.4112 22.1826 32.4679 21.1514C32.3608 21.0345 32.2206 20.9529 32.0661 20.9175C31.9115 20.882 31.7498 20.8944 31.6025 20.953C30.3827 21.4383 28.6426 21.7743 26.9998 21.8555C26.7716 18.9011 25.2978 16.1242 22.7783 14.0625H32.9688C33.4002 14.0625 33.75 13.7127 33.75 13.2812C33.75 12.8498 33.4002 12.5 32.9688 12.5H20.3781C18.6047 11.5973 16.6134 11.0709 14.5639 10.9604C15.0128 5.7132 20.0827 1.5625 26.25 1.5625C32.8565 1.5625 38.4375 6.21336 38.4375 11.7188C38.4375 14.1062 37.4613 16.4264 35.6888 18.252Z" fill="black"/>
<path d="M20 20.3125H10.1562C9.72477 20.3125 9.375 20.6623 9.375 21.0938C9.375 21.5252 9.72477 21.875 10.1562 21.875H20C20.4315 21.875 20.7812 21.5252 20.7812 21.0938C20.7812 20.6623 20.4315 20.3125 20 20.3125ZM20 25H7.03125C6.59977 25 6.25 25.3498 6.25 25.7812C6.25 26.2127 6.59977 26.5625 7.03125 26.5625H20C20.4315 26.5625 20.7812 26.2127 20.7812 25.7812C20.7812 25.3498 20.4315 25 20 25ZM32.9688 7.8125H23.125C22.6935 7.8125 22.3438 8.16227 22.3438 8.59375C22.3438 9.02523 22.6935 9.375 23.125 9.375H32.9688C33.4002 9.375 33.75 9.02523 33.75 8.59375C33.75 8.16227 33.4002 7.8125 32.9688 7.8125Z" fill="black"/>
</svg>
