<svg width="40" height="40" viewBox="0 0 40 40" fill="none" xmlns="http://www.w3.org/2000/svg">
<g clip-path="url(#clip0_4024_477)">
<path d="M34.6252 14.7229L34.4473 12.9523L34.6252 12.6763L34.3287 9.49953L33.8135 9.17969H30.3326L29.9101 9.49953L29.6137 12.6763L29.7994 12.8819L29.6137 14.8134L29.398 14.988L28.6224 23.2991L29.0046 23.5832H35.2823L35.6164 23.2991L34.8409 14.988L34.6252 14.7229Z" fill="#DBEDFF"/>
<path d="M31.8393 14.988L32.055 14.8134L32.2407 12.8819L32.055 12.6763L32.3514 9.49953L32.7739 9.17969H30.3326L29.9101 9.49953L29.6137 12.6763L29.7994 12.8819L29.6137 14.8134L29.398 14.988L28.6224 23.2991L29.0046 23.5832H31.446L31.0638 23.2991L31.8393 14.988Z" fill="#B5DCFF"/>
<path d="M37.9287 23.3008H25.8613L25.2354 23.9097V37.8063H38.1931L38.3775 37.6413V23.7496C38.3775 23.6306 38.3303 23.5164 38.2461 23.4322C38.1619 23.3481 38.0477 23.3008 37.9287 23.3008Z" fill="#8479C2"/>
<path d="M28.6225 23.7496C28.6225 23.6306 28.6697 23.5164 28.7539 23.4322C28.8381 23.3481 28.9523 23.3008 29.0713 23.3008H25.8613L25.2354 23.9097V37.8063H28.8069L28.6225 37.6413V23.7496Z" fill="#6E60B8"/>
<path d="M34.5702 7.1875H29.6687C29.6136 7.18749 29.559 7.19834 29.5081 7.21943C29.4571 7.24052 29.4109 7.27144 29.3719 7.31042C29.3329 7.3494 29.302 7.39568 29.2809 7.44661C29.2598 7.49754 29.2489 7.55213 29.2489 7.60727V9.0793C29.2489 9.13443 29.2598 9.18902 29.2809 9.23995C29.302 9.29089 29.3329 9.33716 29.3719 9.37614C29.4109 9.41512 29.4571 9.44604 29.5081 9.46713C29.559 9.48822 29.6136 9.49907 29.6687 9.49906H34.5702C34.6254 9.49907 34.68 9.48822 34.7309 9.46713C34.7818 9.44604 34.8281 9.41512 34.8671 9.37614C34.9061 9.33716 34.937 9.29089 34.9581 9.23995C34.9792 9.18902 34.9901 9.13443 34.9901 9.0793V7.60727C34.99 7.49594 34.9458 7.38918 34.8671 7.31047C34.7883 7.23175 34.6816 7.18752 34.5702 7.1875Z" fill="#B5DCFF"/>
<path d="M31.6098 9.07938V7.60727C31.6098 7.55213 31.6206 7.49754 31.6417 7.44661C31.6628 7.39568 31.6937 7.3494 31.7327 7.31042C31.7717 7.27144 31.818 7.24052 31.8689 7.21943C31.9199 7.19834 31.9745 7.18749 32.0296 7.1875H29.6687C29.6136 7.18749 29.559 7.19834 29.5081 7.21943C29.4571 7.24052 29.4109 7.27144 29.3719 7.31042C29.3329 7.3494 29.302 7.39568 29.2809 7.44661C29.2598 7.49754 29.2489 7.55213 29.2489 7.60727V9.0793C29.2489 9.13443 29.2598 9.18902 29.2809 9.23995C29.302 9.29089 29.3329 9.33716 29.3719 9.37614C29.4109 9.41512 29.4571 9.44604 29.5081 9.46713C29.559 9.48822 29.6136 9.49907 29.6687 9.49906H32.0295C31.9744 9.49908 31.9198 9.48824 31.8689 9.46716C31.818 9.44608 31.7717 9.41516 31.7327 9.37619C31.6937 9.33722 31.6628 9.29094 31.6417 9.24001C31.6206 9.18908 31.6098 9.1345 31.6098 9.07938Z" fill="#8BCAFF"/>
<path d="M31.3991 1.4881C31.238 1.52442 31.0758 1.43864 31.0019 1.29091C30.3071 -0.0976855 28.4437 -0.433232 27.3075 0.619346C27.1719 0.745049 26.9599 0.744502 26.8239 0.619111C25.9281 -0.205967 24.5379 -0.206592 23.6415 0.618565C23.5054 0.743877 23.2929 0.744815 23.1576 0.618643C21.7133 -0.729014 19.2098 0.253174 19.2098 2.35489C19.2098 4.457 21.7135 5.43833 23.1576 4.09114C23.2929 3.96489 23.5053 3.96583 23.6415 4.09122C24.5377 4.91607 25.9284 4.91622 26.8245 4.09013C26.9603 3.96489 27.1718 3.9645 27.3077 4.08966C28.1154 4.83325 29.338 4.91708 30.2387 4.29271C30.3755 4.19786 30.5597 4.20169 30.6844 4.31185C31.6881 5.19833 33.3827 4.51919 33.3827 3.08005C33.3826 2.01177 32.3859 1.26552 31.3991 1.4881Z" fill="#DBEDFF"/>
<path d="M30.6844 2.47891C30.5596 2.36875 30.3755 2.36492 30.2387 2.45977C29.338 3.08414 28.1152 3.00031 27.3076 2.25672C27.1717 2.13156 26.9602 2.13195 26.8244 2.25719C25.9284 3.08328 24.5377 3.08312 23.6414 2.25828C23.5053 2.13297 23.2928 2.13203 23.1575 2.2582C21.9439 3.39039 19.9825 2.87766 19.3872 1.4375C19.2741 1.71094 19.2098 2.0175 19.2098 2.35297C19.2098 4.45508 21.7135 5.43641 23.1576 4.08922C23.2929 3.96297 23.5053 3.96391 23.6415 4.0893C24.5377 4.91414 25.9284 4.9143 26.8245 4.0882C26.9603 3.96297 27.1718 3.96258 27.3077 4.08773C28.1154 4.83133 29.338 4.91516 30.2387 4.29078C30.3755 4.19594 30.5597 4.19977 30.6844 4.30992C31.6881 5.19641 33.3827 4.51727 33.3827 3.07812C33.3827 2.73359 33.2786 2.42297 33.1049 2.16711C32.5826 2.92711 31.4385 3.145 30.6844 2.47891Z" fill="#B5DCFF"/>
<path d="M29.3979 14.9874H34.8408L34.6251 12.6758H29.6137L29.3979 14.9874Z" fill="#F27182"/>
<path d="M29.6137 12.6758L29.3979 14.9874H31.8392L32.055 12.6758H29.6137Z" fill="#ED5469"/>
<path d="M28.5145 35.3242H35.7244V37.7439H28.5145V35.3242Z" fill="#00D2FC"/>
<path d="M28.5145 35.3242H31.906V37.7439H28.5145V35.3242Z" fill="#00C2FB"/>
<path d="M28.5145 30.9062H35.7244V33.3259H28.5145V30.9062Z" fill="#00D2FC"/>
<path d="M28.5145 30.9062H31.906V33.3259H28.5145V30.9062Z" fill="#00C2FB"/>
<path d="M25.1503 19.2874L18.0517 22.861C17.9706 22.9019 17.9024 22.9645 17.8547 23.0418C17.8071 23.1192 17.7818 23.2083 17.7818 23.2991L17.5092 23.5833V37.8047H25.5306L25.8614 37.6397V19.7255C25.8613 19.3603 25.4766 19.1232 25.1503 19.2874Z" fill="#FFC365"/>
<path d="M28.5145 33.2227H35.7244V35.4325H28.5145V33.2227Z" fill="#62DDFC"/>
<path d="M28.5145 33.2227H31.906V35.4325H28.5145V33.2227Z" fill="#00D2FC"/>
<path d="M35.6165 28.5761H28.6225C28.5859 28.5755 28.5496 28.5696 28.5146 28.5586V31.013H35.7245V28.5586C35.6895 28.5696 35.6532 28.5755 35.6165 28.5761Z" fill="#62DDFC"/>
<path d="M31.8552 28.5761H28.5653C28.5477 28.5761 28.5309 28.5688 28.5145 28.5586V31.013H31.906V28.5586C31.8897 28.5688 31.8729 28.5761 31.8552 28.5761Z" fill="#00D2FC"/>
<path d="M35.6165 26.5039H28.6225C28.5674 26.5039 28.5128 26.5147 28.4618 26.5358C28.4109 26.5569 28.3646 26.5878 28.3256 26.6268C28.2866 26.6658 28.2557 26.7121 28.2346 26.763C28.2135 26.814 28.2026 26.8685 28.2026 26.9237V28.3957C28.2026 28.4508 28.2135 28.5054 28.2346 28.5564C28.2557 28.6073 28.2866 28.6536 28.3256 28.6926C28.3646 28.7315 28.4109 28.7624 28.4618 28.7835C28.5128 28.8046 28.5674 28.8155 28.6225 28.8155H35.6165C35.6716 28.8155 35.7262 28.8046 35.7771 28.7835C35.8281 28.7624 35.8743 28.7315 35.9133 28.6926C35.9523 28.6536 35.9832 28.6073 36.0043 28.5564C36.0254 28.5054 36.0363 28.4508 36.0363 28.3957V26.9237C36.0363 26.8685 36.0254 26.814 36.0043 26.763C35.9832 26.7121 35.9523 26.6658 35.9133 26.6268C35.8743 26.5878 35.8281 26.5569 35.7771 26.5358C35.7262 26.5147 35.6716 26.5039 35.6165 26.5039Z" fill="#DBEDFF"/>
<path d="M31.4862 28.3957V26.9237C31.4862 26.8685 31.497 26.814 31.5181 26.763C31.5392 26.7121 31.5701 26.6658 31.6091 26.6268C31.6481 26.5878 31.6944 26.5569 31.7453 26.5358C31.7963 26.5147 31.8509 26.5039 31.906 26.5039H28.6225C28.5674 26.5039 28.5128 26.5147 28.4618 26.5358C28.4109 26.5569 28.3646 26.5878 28.3256 26.6268C28.2866 26.6658 28.2557 26.7121 28.2346 26.763C28.2135 26.814 28.2026 26.8685 28.2026 26.9237V28.3957C28.2026 28.4508 28.2135 28.5054 28.2346 28.5564C28.2557 28.6073 28.2866 28.6536 28.3256 28.6926C28.3646 28.7315 28.4109 28.7624 28.4618 28.7835C28.5128 28.8046 28.5674 28.8155 28.6225 28.8155H31.906C31.7947 28.8155 31.6879 28.7712 31.6091 28.6925C31.5304 28.6138 31.4862 28.507 31.4862 28.3957Z" fill="#B5DCFF"/>
<path d="M20.0431 24.0808C20.0431 23.9899 20.0683 23.9008 20.116 23.8235C20.1636 23.7461 20.2318 23.6835 20.313 23.6426L25.8613 20.8495V19.7255C25.8613 19.3603 25.4765 19.1232 25.1503 19.2874L18.0517 22.861C17.9705 22.9019 17.9023 22.9645 17.8546 23.0418C17.807 23.1192 17.7817 23.2083 17.7817 23.2991V37.6397H20.0431V24.0808Z" fill="#FFA90F"/>
<path d="M17.0705 19.2874L9.97191 22.861C9.89076 22.9019 9.82256 22.9645 9.7749 23.0418C9.72724 23.1192 9.702 23.2083 9.70199 23.2991L9.35339 23.5833V38.0193H17.1602L17.7816 37.6397V19.7255C17.7816 19.3603 17.3968 19.1232 17.0705 19.2874Z" fill="#FFC365"/>
<path d="M11.9634 24.0808C11.9634 23.9899 11.9886 23.9008 12.0363 23.8235C12.0839 23.7461 12.1521 23.6835 12.2333 23.6426L17.7816 20.8495V19.7255C17.7816 19.3603 17.3968 19.1232 17.0705 19.2874L9.97195 22.861C9.8908 22.9019 9.8226 22.9645 9.77494 23.0418C9.72728 23.1192 9.70204 23.2083 9.70203 23.2991V37.6397H11.9634V24.0808Z" fill="#FFA90F"/>
<path d="M8.99095 19.2874L1.89236 22.861C1.81121 22.9019 1.74301 22.9645 1.69535 23.0418C1.64769 23.1192 1.62245 23.2083 1.62244 23.2991V37.6397H9.70205V19.7255C9.70205 19.3603 9.3172 19.1232 8.99095 19.2874Z" fill="#FFC365"/>
<path d="M3.88364 24.0808C3.88365 23.9899 3.90889 23.9008 3.95655 23.8235C4.00421 23.7461 4.07242 23.6835 4.15356 23.6426L9.70192 20.8495V19.7255C9.70192 19.3603 9.31708 19.1232 8.99083 19.2874L1.89224 22.861C1.81109 22.9019 1.74288 22.9645 1.69523 23.0418C1.64757 23.1192 1.62232 23.2083 1.62231 23.2991V37.6397H3.88364V24.0808Z" fill="#FFA90F"/>
<path d="M39.4166 37.5586H0.583359C0.428643 37.5586 0.280263 37.6201 0.170862 37.7295C0.0614609 37.8389 0 37.9872 0 38.142L0 39.4148C0 39.5696 0.0614609 39.7179 0.170862 39.8273C0.280263 39.9367 0.428643 39.9982 0.583359 39.9982H39.4166C39.5714 39.9982 39.7197 39.9367 39.8291 39.8273C39.9385 39.7179 40 39.5696 40 39.4148V38.142C40 37.9872 39.9385 37.8389 39.8291 37.7295C39.7197 37.6201 39.5714 37.5586 39.4166 37.5586Z" fill="#DBEDFF"/>
<path d="M39.4166 38.7787H0.583359C0.428643 38.7787 0.280263 38.7173 0.170862 38.6079C0.0614609 38.4985 0 38.3501 0 38.1954L0 39.4152C2.07182e-05 39.5699 0.0614908 39.7183 0.17089 39.8277C0.280288 39.9371 0.428656 39.9985 0.583359 39.9985H39.4166C39.5714 39.9985 39.7197 39.9371 39.8291 39.8277C39.9385 39.7183 40 39.5699 40 39.4152V38.1953C40 38.2719 39.9849 38.3478 39.9556 38.4186C39.9263 38.4894 39.8833 38.5537 39.8292 38.6079C39.775 38.662 39.7107 38.705 39.6399 38.7343C39.5691 38.7637 39.4933 38.7787 39.4166 38.7787Z" fill="#B5DCFF"/>
<path d="M23.1823 25.0977H20.4612C20.329 25.0977 20.2022 25.1502 20.1088 25.2436C20.0153 25.3371 19.9628 25.4639 19.9628 25.5961V28.6391C19.9628 28.7713 20.0153 28.8981 20.1088 28.9916C20.2022 29.0851 20.329 29.1376 20.4612 29.1376H23.1823C23.3145 29.1376 23.4413 29.0851 23.5347 28.9916C23.6282 28.8981 23.6807 28.7713 23.6807 28.6391V25.5961C23.6807 25.4639 23.6282 25.3371 23.5347 25.2436C23.4413 25.1502 23.3145 25.0977 23.1823 25.0977ZM15.1026 25.0977H12.3815C12.2493 25.0977 12.1225 25.1502 12.0291 25.2436C11.9356 25.3371 11.8831 25.4639 11.8831 25.5961V28.6391C11.8831 28.7713 11.9356 28.8981 12.0291 28.9916C12.1225 29.0851 12.2493 29.1376 12.3815 29.1376H15.1026C15.2348 29.1376 15.3616 29.0851 15.4551 28.9916C15.5485 28.8981 15.601 28.7713 15.601 28.6391V25.5961C15.601 25.4639 15.5485 25.3371 15.4551 25.2436C15.3616 25.1502 15.2348 25.0977 15.1026 25.0977ZM7.023 25.0977H4.3019C4.16971 25.0977 4.04293 25.1502 3.94946 25.2436C3.85598 25.3371 3.80347 25.4639 3.80347 25.5961V28.6391C3.80347 28.7713 3.85598 28.8981 3.94946 28.9916C4.04293 29.0851 4.16971 29.1376 4.3019 29.1376H7.023C7.15519 29.1376 7.28197 29.0851 7.37545 28.9916C7.46892 28.8981 7.52144 28.7713 7.52144 28.6391V25.5961C7.52144 25.4639 7.46892 25.3371 7.37545 25.2436C7.28197 25.1502 7.15519 25.0977 7.023 25.0977Z" fill="#00D2FC"/>
<path d="M21.8215 28.6391V25.596C21.8215 25.4638 21.874 25.3371 21.9675 25.2436C22.061 25.1502 22.1878 25.0977 22.3199 25.0977H20.461C20.3288 25.0977 20.202 25.1502 20.1085 25.2436C20.0151 25.3371 19.9625 25.4638 19.9625 25.596V28.6391C19.9625 28.7713 20.015 28.898 20.1085 28.9915C20.202 29.085 20.3288 29.1375 20.461 29.1375H22.3199C22.1877 29.1375 22.061 29.085 21.9675 28.9915C21.874 28.898 21.8215 28.7713 21.8215 28.6391ZM13.7418 28.6391V25.596C13.7418 25.4638 13.7944 25.3371 13.8878 25.2436C13.9813 25.1502 14.1081 25.0977 14.2403 25.0977H12.3813C12.2491 25.0977 12.1223 25.1502 12.0288 25.2436C11.9354 25.3371 11.8829 25.4638 11.8828 25.596V28.6391C11.8828 28.7713 11.9353 28.898 12.0288 28.9915C12.1223 29.085 12.2491 29.1375 12.3813 29.1375H14.2403C14.1081 29.1375 13.9813 29.085 13.8878 28.9915C13.7943 28.898 13.7418 28.7713 13.7418 28.6391ZM5.66221 28.6391V25.596C5.66223 25.4638 5.71475 25.3371 5.80822 25.2436C5.9017 25.1502 6.02846 25.0977 6.16064 25.0977H4.30166C4.16948 25.0977 4.04271 25.1502 3.94924 25.2436C3.85577 25.3371 3.80324 25.4638 3.80322 25.596V28.6391C3.80322 28.7713 3.85574 28.898 3.94921 28.9915C4.04269 29.085 4.16947 29.1375 4.30166 29.1375H6.16064C6.02845 29.1375 5.90167 29.085 5.8082 28.9915C5.71472 28.898 5.66221 28.7713 5.66221 28.6391Z" fill="#00C2FB"/>
</g>
<defs>
<clipPath id="clip0_4024_477">
<rect width="40" height="40" fill="white"/>
</clipPath>
</defs>
</svg>
