<svg width="40" height="40" viewBox="0 0 40 40" fill="none" xmlns="http://www.w3.org/2000/svg">
<rect width="40" height="40" rx="20" fill="black"/>
<path d="M22.9764 6.78953C21.5382 5.09648 20.2998 3.37697 20.0468 3.01984C20.0202 2.99339 19.9802 2.99339 19.9536 3.01984C19.7006 3.37697 18.4621 5.09648 17.024 6.78953C4.67976 22.4106 18.9682 32.9525 18.9682 32.9525L19.088 33.0319C19.1945 34.6588 19.4609 37 19.4609 37H19.9935H20.5262C20.5262 37 20.7925 34.672 20.899 33.0319L21.0189 32.9393C21.0322 32.9525 35.3206 22.4106 22.9764 6.78953ZM19.9935 32.7144C19.9935 32.7144 19.3543 32.1721 19.1812 31.8944V31.8678L19.9536 14.858C19.9536 14.8051 20.0335 14.8051 20.0335 14.858L20.8058 31.8678V31.8944C20.6327 32.1721 19.9935 32.7144 19.9935 32.7144Z" fill="#00ED64"/>
</svg>
