<svg width="40" height="40" viewBox="0 0 40 40" fill="none" xmlns="http://www.w3.org/2000/svg">
<g clip-path="url(#clip0_2382_1775)">
<path d="M29.6863 37.5056C29.5375 37.5843 29.55 37.6093 29.6925 37.5368C29.7388 37.5181 29.7775 37.4918 29.8113 37.4606C29.8113 37.4343 29.8113 37.4343 29.6863 37.5056ZM29.9862 37.3431C29.915 37.4018 29.915 37.4018 30 37.3631C30.045 37.3368 30.085 37.3118 30.085 37.3043C30.085 37.2706 30.065 37.2781 29.9862 37.3431ZM30.1813 37.2256C30.11 37.2843 30.11 37.2843 30.195 37.2456C30.2413 37.2193 30.28 37.1918 30.28 37.1856C30.28 37.1543 30.26 37.1606 30.1813 37.2256ZM30.3787 37.1093C30.3075 37.1681 30.3075 37.1681 30.39 37.1281C30.4363 37.1031 30.475 37.0768 30.475 37.0693C30.475 37.0381 30.455 37.0443 30.3787 37.1093ZM30.645 36.9331C30.5088 37.0243 30.4613 37.0831 30.5863 37.0181C30.67 36.9668 30.8125 36.8543 30.7875 36.8543C30.7337 36.8743 30.6887 36.9081 30.6437 36.9331H30.645ZM18.6912 0.0130938C18.6 0.0193438 18.3263 0.0443438 18.0863 0.0643438C12.4012 0.579344 7.0825 3.63934 3.71125 8.35309C1.8475 10.9368 0.6375 13.9381 0.18125 17.0893C0.02 18.1893 0 18.5143 0 20.0056C0 21.4956 0.02 21.8156 0.18125 22.9156C1.27 30.4293 6.615 36.7368 13.86 39.0743C15.1638 39.4906 16.53 39.7781 18.0863 39.9543C18.6912 40.0193 21.3075 40.0193 21.9125 39.9543C24.6025 39.6543 26.8738 38.9906 29.1213 37.8443C29.4663 37.6693 29.5312 37.6231 29.485 37.5843C28.385 36.1331 27.305 34.6806 26.2238 33.2156L23.0275 28.8993L19.0238 22.9681C17.6887 20.9831 16.3487 19.0031 14.9875 17.0381C14.9738 17.0381 14.9562 19.6743 14.9487 22.8893C14.935 28.5206 14.935 28.7493 14.8637 28.8793C14.7925 29.0356 14.675 29.1656 14.5187 29.2381C14.395 29.2968 14.2838 29.3093 13.6925 29.3093H13.0163L12.84 29.1993C12.73 29.1281 12.6388 29.0293 12.58 28.9131L12.495 28.7368L12.5013 20.8981L12.515 13.0593L12.6388 12.9031C12.7175 12.8068 12.815 12.7281 12.925 12.6693C13.0887 12.5906 13.1538 12.5781 13.83 12.5781C14.6237 12.5781 14.755 12.6093 14.9637 12.8381C16.5837 15.2531 18.1987 17.6743 19.7875 20.1031C22.3862 24.0431 25.9338 29.4193 27.6775 32.0568L30.8488 36.8556L31.005 36.7518C32.5288 35.7356 33.915 34.5256 35.1113 33.1456C37.6313 30.2606 39.2663 26.7118 39.82 22.9243C39.9813 21.8243 40.0013 21.4981 40.0013 20.0081C40.0013 18.5168 39.9813 18.1981 39.82 17.0981C38.7313 9.58434 33.3862 3.27684 26.1413 0.938094C24.7863 0.509344 23.3925 0.216844 21.9812 0.0668438C21.6025 0.0280938 19.0175 -0.0181562 18.6925 0.0155938L18.6912 0.0130938ZM26.875 12.1093C27.0637 12.1993 27.2062 12.3693 27.2712 12.5643C27.305 12.6693 27.3113 14.8431 27.305 19.7393L27.2913 26.7693L26.055 24.8693L24.8113 22.9681V17.8643C24.8113 14.5556 24.825 12.7006 24.8425 12.6093C24.9013 12.4006 25.0438 12.2256 25.2337 12.1156C25.3888 12.0368 25.4487 12.0306 26.0675 12.0306C26.6462 12.0306 26.745 12.0368 26.875 12.1093Z" fill="black"/>
</g>
<defs>
<clipPath id="clip0_2382_1775">
<rect width="40" height="40" fill="white"/>
</clipPath>
</defs>
</svg>
