<svg width="40" height="40" viewBox="0 0 40 40" fill="none" xmlns="http://www.w3.org/2000/svg">
<g clip-path="url(#clip0_2382_1787)">
<path d="M20.2841 33.9755L8.42227 27.1761C8.27831 27.0902 8.18234 26.9376 8.18234 26.766V16.2568C8.18234 16.0756 8.38388 15.9612 8.53743 16.047L22.309 23.9432C22.501 24.0576 22.7409 23.9146 22.7409 23.6953V18.5742C22.7409 18.3739 22.6353 18.1832 22.453 18.0783L5.88868 8.58C5.74472 8.49417 5.55278 8.49417 5.40883 8.58L3.23992 9.82927C3.09597 9.9151 3 10.0677 3 10.2393V29.7604C3 29.9321 3.09597 30.0847 3.23992 30.1705L20.2553 39.9358C20.3992 40.0217 20.5912 40.0217 20.7351 39.9358L35.025 31.7345C35.2169 31.62 35.2169 31.353 35.025 31.2386L30.572 28.6828C30.3896 28.5779 30.1785 28.5779 29.9962 28.6828L20.7735 33.9755C20.6296 34.0614 20.4376 34.0614 20.2937 33.9755H20.2841Z" fill="black"/>
<path d="M37.7504 9.82015L20.735 0.064371C20.5911 -0.021457 20.3991 -0.021457 20.2552 0.064371L11.2629 5.22359C11.0709 5.33802 11.0709 5.60504 11.2629 5.71948L15.6774 8.25618C15.8598 8.36108 16.0709 8.36108 16.2533 8.25618L20.284 5.94836C20.4279 5.86253 20.6199 5.86253 20.7638 5.94836L32.6256 12.7478C32.7696 12.8337 32.8655 12.9863 32.8655 13.1579V23.7148C32.8655 23.915 32.9711 24.1057 33.1534 24.2106L37.568 26.7378C37.76 26.8522 37.9999 26.7092 37.9999 26.4899V10.2398C37.9999 10.0681 37.9039 9.91552 37.76 9.82969L37.7504 9.82015Z" fill="black"/>
</g>
<defs>
<clipPath id="clip0_2382_1787">
<rect width="35" height="40" fill="white" transform="translate(3)"/>
</clipPath>
</defs>
</svg>
