<svg width="40" height="40" viewBox="0 0 40 40" fill="none" xmlns="http://www.w3.org/2000/svg">
<path d="M0 19.9988C0 25.8092 8.95452 30.5195 19.9999 30.5195C31.0455 30.5195 40 25.8092 40 19.9988C40 14.1885 31.0455 9.478 19.9999 9.478C8.95452 9.4781 0 14.1885 0 19.9988Z" fill="url(#paint0_radial_2382_1796)"/>
<path d="M19.9999 29.7371C30.614 29.7371 39.2187 25.3765 39.2187 19.9974C39.2187 14.6185 30.614 10.2578 19.9999 10.2578C9.38582 10.2578 0.78125 14.6185 0.78125 19.9974C0.78125 25.3765 9.3859 29.7371 19.9999 29.7371Z" fill="#777BB3"/>
<path d="M10.8662 21.2054C11.7389 21.2054 12.3905 21.0445 12.8027 20.7271C13.2105 20.4131 13.4922 19.8691 13.6399 19.1102C13.7776 18.4008 13.7252 17.9055 13.484 17.6383C13.2375 17.3653 12.7048 17.2269 11.9003 17.2269H10.5055L9.7323 21.2055H10.8662V21.2054ZM6.30443 26.1062C6.27241 26.1062 6.24078 26.0992 6.21182 26.0855C6.18286 26.0719 6.15727 26.052 6.13691 26.0273C6.11654 26.0026 6.1019 25.9737 6.09404 25.9427C6.08618 25.9116 6.08529 25.8792 6.09143 25.8478L8.1407 15.3045C8.15033 15.2551 8.17686 15.2105 8.21573 15.1785C8.2546 15.1464 8.3034 15.1289 8.35377 15.1289H12.7703C14.1583 15.1289 15.1914 15.5058 15.8407 16.2492C16.4936 16.9965 16.6952 18.0412 16.4399 19.3541C16.3361 19.8889 16.1574 20.3856 15.909 20.8305C15.6602 21.2757 15.3314 21.6876 14.9316 22.0551C14.4529 22.503 13.9113 22.8279 13.3231 23.019C12.7442 23.2075 12.0007 23.3032 11.1133 23.3032H9.32493L8.81416 25.9306C8.80456 25.98 8.77805 26.0246 8.73919 26.0566C8.70033 26.0887 8.65154 26.1062 8.60117 26.1062H6.30443Z" fill="black"/>
<path d="M10.6847 17.4459H11.9005C12.8713 17.4459 13.2086 17.659 13.3233 17.7859C13.5134 17.9967 13.5492 18.4412 13.4271 19.0712C13.2898 19.7764 13.0353 20.2765 12.6706 20.5573C12.2972 20.8448 11.6901 20.9904 10.8664 20.9904H9.99585L10.6847 17.4459ZM12.7702 14.9141H8.35364C8.25291 14.9141 8.15532 14.9491 8.0776 15.0132C7.99988 15.0773 7.94687 15.1664 7.92766 15.2653L5.87855 25.8087C5.86636 25.8715 5.86822 25.9362 5.88398 25.9982C5.89974 26.0603 5.92903 26.118 5.96974 26.1674C6.01045 26.2168 6.06157 26.2566 6.11945 26.2839C6.17733 26.3112 6.24054 26.3254 6.30453 26.3254H8.6012C8.70196 26.3254 8.79958 26.2904 8.87733 26.2263C8.95508 26.1622 9.00811 26.0731 9.02734 25.9742L9.50385 23.5223H11.1134C12.0235 23.5223 12.7897 23.423 13.3905 23.2274C14.0083 23.0267 14.5768 22.6864 15.0799 22.2158C15.496 21.8331 15.8387 21.4034 16.0983 20.9385C16.3581 20.4736 16.5447 19.9551 16.653 19.3976C16.9218 18.0157 16.7035 16.9091 16.0042 16.1087C15.3118 15.316 14.2236 14.9141 12.7702 14.9141ZM9.46928 21.4245H10.8664C11.7924 21.4245 12.482 21.25 12.9352 20.9012C13.3885 20.5523 13.6942 19.9698 13.8531 19.1538C14.005 18.3703 13.9357 17.8173 13.6454 17.4951C13.3546 17.173 12.773 17.0119 11.9005 17.0119H10.3269L9.46928 21.4245ZM12.7702 15.3481C14.0988 15.3481 15.0681 15.6968 15.6773 16.3942C16.2865 17.0916 16.47 18.065 16.2269 19.3148C16.1269 19.8297 15.9576 20.3004 15.7195 20.7268C15.481 21.1534 15.1696 21.5437 14.7847 21.8975C14.3261 22.3267 13.8167 22.6326 13.256 22.8147C12.6954 22.9974 11.9814 23.0883 11.1134 23.0883H9.146L8.6012 25.8913H6.30453L8.35364 15.3482L12.7702 15.3481Z" fill="white"/>
<path d="M21.706 23.3055C21.674 23.3055 21.6424 23.2984 21.6134 23.2848C21.5844 23.2711 21.5589 23.2512 21.5385 23.2265C21.5181 23.2018 21.5035 23.1729 21.4956 23.1419C21.4877 23.1109 21.4868 23.0785 21.4929 23.047L22.3995 18.382C22.4857 17.9385 22.4644 17.62 22.3396 17.4855C22.2632 17.4032 22.0337 17.2653 21.3553 17.2653H19.7131L18.5735 23.1299C18.5639 23.1793 18.5373 23.2239 18.4985 23.2559C18.4596 23.288 18.4108 23.3055 18.3604 23.3055H16.0818C16.0498 23.3055 16.0182 23.2984 15.9892 23.2848C15.9603 23.2711 15.9347 23.2512 15.9143 23.2265C15.8939 23.2018 15.8793 23.1729 15.8714 23.1419C15.8635 23.1109 15.8626 23.0785 15.8687 23.047L17.9178 12.5037C17.9275 12.4543 17.954 12.4097 17.9929 12.3777C18.0317 12.3457 18.0805 12.3281 18.1309 12.3281H20.4095C20.4415 12.3281 20.4732 12.3351 20.5022 12.3488C20.5311 12.3624 20.5567 12.3823 20.5771 12.407C20.5975 12.4317 20.6121 12.4606 20.62 12.4917C20.6278 12.5227 20.6287 12.5551 20.6226 12.5866L20.1281 15.1312H21.8947C23.2406 15.1312 24.1532 15.3685 24.6847 15.8566C25.2266 16.3545 25.3955 17.1508 25.1873 18.2234L24.2338 23.1296C24.2242 23.1791 24.1977 23.2236 24.1588 23.2557C24.12 23.2877 24.0712 23.3052 24.0208 23.3052H21.706V23.3055Z" fill="black"/>
<path d="M20.4095 12.1094H18.1309C18.0302 12.1094 17.9326 12.1444 17.8548 12.2085C17.7771 12.2726 17.7241 12.3617 17.7049 12.4606L15.6557 23.004C15.6435 23.0668 15.6453 23.1316 15.6611 23.1936C15.6768 23.2557 15.7061 23.3134 15.7469 23.3628C15.7876 23.4122 15.8388 23.452 15.8967 23.4793C15.9546 23.5066 16.0178 23.5207 16.0818 23.5207H18.3603C18.4611 23.5207 18.5587 23.4856 18.6364 23.4216C18.7142 23.3575 18.7672 23.2684 18.7865 23.1695L19.892 17.4805H21.3553C22.0326 17.4805 22.1748 17.6252 22.1804 17.6314C22.2215 17.6756 22.2756 17.8803 22.1864 18.3389L21.2799 23.0039C21.2677 23.0667 21.2695 23.1315 21.2853 23.1935C21.301 23.2556 21.3303 23.3134 21.3711 23.3627C21.4118 23.4121 21.4629 23.4519 21.5208 23.4792C21.5788 23.5065 21.642 23.5206 21.706 23.5206H24.0208C24.1216 23.5206 24.2192 23.4856 24.2969 23.4215C24.3747 23.3574 24.4277 23.2683 24.4469 23.1694L25.4002 18.2631C25.6239 17.1114 25.4326 16.2475 24.8316 15.695C24.258 15.1684 23.2974 14.9124 21.8947 14.9124H20.3913L20.8356 12.6261C20.8478 12.5633 20.8459 12.4985 20.8302 12.4365C20.8145 12.3745 20.7852 12.3167 20.7445 12.2673C20.7038 12.2179 20.6526 12.1782 20.5947 12.1509C20.5368 12.1236 20.4735 12.1094 20.4095 12.1094ZM20.4095 12.5434L19.8647 15.3465H21.8947C23.1721 15.3465 24.053 15.5694 24.5378 16.0148C25.0227 16.4603 25.168 17.1824 24.9742 18.1804L24.0208 23.0866H21.706L22.6125 18.4217C22.7156 17.891 22.6777 17.5291 22.4987 17.3361C22.3195 17.1431 21.9383 17.0465 21.3554 17.0465H19.5342L18.3605 23.0866H16.0819L18.131 12.5434H20.4095Z" fill="white"/>
<path d="M28.7926 21.2054C29.6653 21.2054 30.3169 21.0445 30.7291 20.7272C31.1369 20.4133 31.4186 19.8693 31.5664 19.1103C31.704 18.4009 31.6516 17.9056 31.4105 17.6384C31.164 17.3654 30.6313 17.227 29.8268 17.227H28.4321L27.6589 21.2056H28.7926V21.2054ZM24.2307 26.1063C24.1987 26.1063 24.1671 26.0992 24.1381 26.0855C24.1092 26.0719 24.0836 26.052 24.0632 26.0273C24.0429 26.0026 24.0282 25.9737 24.0203 25.9427C24.0125 25.9116 24.0116 25.8792 24.0177 25.8478L26.0669 15.3045C26.0765 15.2551 26.103 15.2105 26.1419 15.1785C26.1808 15.1464 26.2296 15.1289 26.28 15.1289H30.6965C32.0846 15.1289 33.1176 15.5058 33.7671 16.2492C34.4199 16.9965 34.6214 18.0411 34.3662 19.354C34.2622 19.8889 34.0835 20.3856 33.8351 20.8304C33.5864 21.2757 33.2575 21.6876 32.8578 22.0551C32.3791 22.503 31.8375 22.8279 31.2493 23.0189C30.6704 23.2075 29.9269 23.3032 29.0395 23.3032H27.2511L26.7406 25.9307C26.731 25.9801 26.7045 26.0247 26.6656 26.0567C26.6267 26.0888 26.5779 26.1063 26.5275 26.1063H24.2307Z" fill="black"/>
<path d="M28.6109 17.4459H29.8268C30.7976 17.4459 31.1348 17.659 31.2494 17.7859C31.4396 17.9967 31.4755 18.4412 31.3533 19.071C31.216 19.7764 30.9614 20.2765 30.5968 20.5573C30.2234 20.8448 29.6163 20.9904 28.7925 20.9904H27.9221L28.6109 17.4459ZM30.6964 14.9141H26.28C26.1793 14.9141 26.0817 14.9491 26.0039 15.0132C25.9262 15.0773 25.8732 15.1664 25.854 15.2653L23.8048 25.8087C23.7926 25.8715 23.7945 25.9362 23.8103 25.9982C23.826 26.0603 23.8553 26.118 23.896 26.1674C23.9367 26.2168 23.9878 26.2566 24.0457 26.2839C24.1036 26.3112 24.1668 26.3254 24.2308 26.3254H26.5275C26.6283 26.3254 26.7259 26.2903 26.8036 26.2262C26.8813 26.1622 26.9344 26.073 26.9536 25.9742L27.43 23.5223H29.0396C29.9497 23.5223 30.7159 23.423 31.3167 23.2274C31.9345 23.0267 32.5031 22.6862 33.0062 22.2157C33.4223 21.8329 33.7649 21.4034 34.0246 20.9385C34.2845 20.4736 34.4711 19.9551 34.5793 19.3976C34.8481 18.0156 34.6298 16.909 33.9305 16.1086C33.238 15.316 32.15 14.9141 30.6966 14.9141M27.3957 21.4245H28.7927C29.7187 21.4245 30.4084 21.25 30.8616 20.9012C31.315 20.5523 31.6205 19.9698 31.7793 19.1538C31.9314 18.3703 31.8622 17.8173 31.5717 17.4951C31.2809 17.173 30.6994 17.0119 29.8268 17.0119H28.2531L27.3957 21.4245ZM30.6966 15.3481C32.0252 15.3481 32.9944 15.6968 33.6036 16.3942C34.2129 17.0916 34.3962 18.065 34.1532 19.3148C34.0532 19.8297 33.884 20.3004 33.6457 20.7268C33.4073 21.1534 33.0958 21.5437 32.711 21.8975C32.2524 22.3267 31.743 22.6326 31.1824 22.8147C30.6217 22.9974 29.9077 23.0883 29.0396 23.0883H27.0723L26.5276 25.8913H24.231L26.2801 15.3482L30.6966 15.3481Z" fill="white"/>
<defs>
<radialGradient id="paint0_radial_2382_1796" cx="0" cy="0" r="1" gradientUnits="userSpaceOnUse" gradientTransform="translate(12.015 13.2006) scale(32.8352 32.8352)">
<stop stop-color="#AEB2D5"/>
<stop offset="0.3" stop-color="#AEB2D5"/>
<stop offset="0.75" stop-color="#484C89"/>
<stop offset="1" stop-color="#484C89"/>
</radialGradient>
</defs>
</svg>
