<svg width="40" height="40" viewBox="0 0 40 40" fill="none" xmlns="http://www.w3.org/2000/svg">
<g clip-path="url(#clip0_2382_1673)">
<path d="M21.4286 31.4297C21.4323 29.3915 22.0581 27.4029 23.2225 25.73C24.3869 24.0571 26.0343 22.7796 27.9443 22.0683C27.7464 21.867 27.5105 21.707 27.2504 21.5974C26.9902 21.4878 26.7109 21.4308 26.4286 21.4297H2.14291C1.83196 21.4302 1.52484 21.4984 1.24288 21.6295C0.960926 21.7607 0.710886 21.9516 0.510123 22.1891C0.30936 22.4265 0.162684 22.7048 0.0802775 23.0047C-0.00212875 23.3045 -0.0182905 23.6187 0.0329143 23.9254L2.0422 37.144H23.2336C22.0582 35.4704 21.4279 33.4748 21.4286 31.4297ZM14.2858 33.5725C13.3386 33.5725 12.4302 33.1963 11.7604 32.5265C11.0906 31.8567 10.7143 30.9483 10.7143 30.0011C10.7143 29.0539 11.0906 28.1455 11.7604 27.4757C12.4302 26.806 13.3386 26.4297 14.2858 26.4297C15.233 26.4297 16.1414 26.806 16.8112 27.4757C17.4809 28.1455 17.8572 29.0539 17.8572 30.0011C17.8572 30.9483 17.4809 31.8567 16.8112 32.5265C16.1414 33.1963 15.233 33.5725 14.2858 33.5725Z" fill="#8C8CFF"/>
<path d="M14.2858 32.1412C15.4693 32.1412 16.4287 31.1818 16.4287 29.9983C16.4287 28.8149 15.4693 27.8555 14.2858 27.8555C13.1023 27.8555 12.1429 28.8149 12.1429 29.9983C12.1429 31.1818 13.1023 32.1412 14.2858 32.1412Z" fill="black"/>
<path d="M14.2857 12.8571C17.8362 12.8571 20.7143 9.97897 20.7143 6.42857C20.7143 2.87817 17.8362 0 14.2857 0C10.7353 0 7.85718 2.87817 7.85718 6.42857C7.85718 9.97897 10.7353 12.8571 14.2857 12.8571Z" fill="#51A2FF"/>
<path d="M19.2858 14.2852H9.2858C7.70501 14.2871 6.18017 14.8705 5.00187 15.9243C3.82357 16.9782 3.07419 18.4287 2.89652 19.9994H25.6751C25.4974 18.4287 24.748 16.9782 23.5697 15.9243C22.3914 14.8705 20.8666 14.2871 19.2858 14.2852ZM2.14294 38.5709V39.2852C2.14294 39.4746 2.2182 39.6563 2.35215 39.7902C2.48611 39.9242 2.66779 39.9994 2.85723 39.9994H25.7144C25.8528 39.9975 25.9876 39.9545 26.1015 39.8759C25.5046 39.5003 24.9489 39.0629 24.4437 38.5709H2.14294Z" fill="#51A2FF"/>
<path d="M23 31.5C23 26.8059 26.8059 23 31.5 23C36.192 23.005 39.995 26.808 40 31.5C40 36.1941 36.1941 40 31.5 40C26.8059 40 23 36.1941 23 31.5Z" fill="#05DF72"/>
<path d="M30.0088 35.2504L37.0921 28.1671C37.2211 28.0335 37.2925 27.8546 37.2909 27.6688C37.2893 27.4831 37.2148 27.3055 37.0835 27.1741C36.9521 27.0428 36.7745 26.9683 36.5887 26.9667C36.403 26.9651 36.2241 27.0365 36.0905 27.1655L29.508 33.748L27.1754 31.4155C27.0418 31.2865 26.8629 31.2151 26.6772 31.2167C26.4915 31.2183 26.3138 31.2928 26.1825 31.4241C26.0511 31.5555 25.9766 31.7331 25.975 31.9188C25.9734 32.1046 26.0448 32.2835 26.1738 32.4171L29.0072 35.2504C29.14 35.3832 29.3201 35.4578 29.508 35.4578C29.6958 35.4578 29.8759 35.3832 30.0088 35.2504Z" fill="black"/>
</g>
<defs>
<clipPath id="clip0_2382_1673">
<rect width="40" height="40" fill="white"/>
</clipPath>
</defs>
</svg>
