<svg width="40" height="40" viewBox="0 0 40 40" fill="none" xmlns="http://www.w3.org/2000/svg">
<path d="M17.8912 27.7634C18.5787 27.7947 19.2812 27.8172 19.9925 27.8172C20.7112 27.8172 21.4212 27.8022 22.1175 27.7634C21.4212 28.6634 20.7337 29.4597 20.0062 30.2184L20.0162 30.2084C19.2925 29.4584 18.5975 28.6609 17.9425 27.8309L17.8912 27.7634ZM10.7687 26.7634C12.1225 27.1072 13.7737 27.3997 15.4587 27.5797L15.6225 27.5934C16.6537 29.0097 17.6962 30.2559 18.815 31.4284L18.8012 31.4134C17.1625 33.2422 14.9512 34.5272 12.45 34.9884L12.3812 34.9984C12.3762 34.9984 12.3712 34.9984 12.3662 34.9984C12.0562 34.9984 11.7637 34.9222 11.5075 34.7872L11.5175 34.7922C10.4775 34.1984 10.0262 31.9272 10.3775 29.0084C10.4612 28.2897 10.5987 27.5334 10.7675 26.7622L10.7687 26.7634ZM29.2475 26.7472C29.395 27.3397 29.5337 28.0947 29.6325 28.8622L29.6437 28.9697C30.0025 31.8872 29.56 34.1559 28.5287 34.7622C28.2987 34.8897 28.0237 34.9647 27.7312 34.9647C27.7025 34.9647 27.6737 34.9634 27.645 34.9622H27.6487C25.0825 34.4934 22.8725 33.2172 21.2375 31.4109L21.2287 31.4009C22.3275 30.2472 23.3625 29.0034 24.3112 27.6947L24.3837 27.5897C26.2287 27.3972 27.8825 27.0997 29.4937 26.6934L29.2475 26.7459V26.7472ZM12.23 22.0822C12.5425 22.6947 12.87 23.3047 13.23 23.9172C13.5891 24.5264 13.9562 25.1214 14.3312 25.7022C13.2462 25.5434 12.1987 25.3434 11.1975 25.0997C11.4787 24.1159 11.8312 23.0972 12.2287 22.0797L12.23 22.0822ZM27.765 22.0509C28.1787 23.0772 28.53 24.1009 28.8212 25.0934C27.8212 25.3384 26.765 25.5459 25.6725 25.7022C26.0475 25.1159 26.4225 24.5122 26.7737 23.8934C27.125 23.2847 27.4537 22.6622 27.7675 22.0497L27.765 22.0509ZM9.52373 15.3647C10.0687 17.2122 10.6537 18.7572 11.335 20.2472L11.2412 20.0197C10.6587 21.2759 10.0825 22.8122 9.60998 24.3934L9.54498 24.6497C8.66248 24.3784 7.95248 24.1122 7.26123 23.8134L7.40497 23.8684C4.69998 22.7172 2.94998 21.2034 2.94998 20.0034C2.94998 18.8034 4.69998 17.2822 7.40497 16.1359C8.06122 15.8547 8.78123 15.6009 9.52373 15.3647ZM30.4475 15.3584C31.2037 15.5922 31.9225 15.8534 32.595 16.1359C35.3 17.2922 37.05 18.8034 37.05 20.0034C37.0425 21.2034 35.2925 22.7209 32.5875 23.8697C31.9312 24.1509 31.2125 24.4034 30.4712 24.6397C29.9212 22.7859 29.3362 21.2422 28.6575 19.7497L28.7525 19.9847C29.3325 18.7297 29.91 17.1934 30.3812 15.6122L30.4475 15.3547V15.3584ZM25.6625 14.3047C26.7487 14.4659 27.795 14.6634 28.7962 14.9097C28.515 15.8972 28.1637 16.9122 27.765 17.9297C27.4525 17.3209 27.125 16.7072 26.765 16.0959C26.4137 15.4834 26.0387 14.8872 25.6637 14.3059L25.6625 14.3047ZM14.3225 14.3047C13.9475 14.8934 13.5725 15.4959 13.2225 16.1172C12.8712 16.7259 12.5425 17.3384 12.23 17.9509C11.8162 16.9259 11.465 15.9047 11.1737 14.9097C12.1737 14.6759 13.2275 14.4672 14.3212 14.3072L14.3225 14.3047ZM20 13.9072C21.1562 13.9072 22.3075 13.9597 23.44 14.0522C24.0741 14.9614 24.69 15.9297 25.2875 16.9572C25.8683 17.9572 26.3983 18.9705 26.8775 19.9972C26.3962 21.0209 25.8687 22.0434 25.295 23.0434C24.7012 24.0747 24.0875 25.0559 23.4512 25.9647C22.3137 26.0634 21.1612 26.1172 19.9987 26.1172C18.8425 26.1172 17.6912 26.0622 16.5587 25.9722C15.925 25.0634 15.3062 24.0909 14.7112 23.0672C14.1304 22.0672 13.6004 21.0539 13.1212 20.0272C13.595 19.0009 14.13 17.9759 14.7037 16.9747C15.2975 15.9434 15.9112 14.9659 16.5475 14.0572C17.685 13.9572 18.8375 13.9047 20 13.9047V13.9072ZM19.9762 9.80594C20.7012 10.5559 21.3962 11.3522 22.05 12.1822L22.1 12.2484C21.4125 12.2172 20.71 12.1959 19.9987 12.1959C19.28 12.1959 18.57 12.2109 17.8737 12.2484C18.5687 11.3484 19.2562 10.5522 19.985 9.79344L19.975 9.80344L19.9762 9.80594ZM12.35 5.04094C14.9162 5.51094 17.125 6.78719 18.7612 8.59219L18.77 8.60219C17.6712 9.75719 16.6362 11.0009 15.6875 12.3122L15.615 12.4172C13.7712 12.6084 12.1175 12.9034 10.5075 13.3097L10.7525 13.2572C10.5775 12.4922 10.4475 11.7509 10.3562 11.0397C9.99748 8.12219 10.44 5.85344 11.4712 5.24969C11.7287 5.12844 12.03 5.05344 12.3475 5.04344H12.3512L12.35 5.04094ZM27.6125 5.00969V5.01969C27.6287 5.01969 27.6475 5.01844 27.6675 5.01844C27.9662 5.01844 28.2475 5.09219 28.495 5.22219L28.485 5.21719C29.525 5.81344 29.9762 8.08344 29.625 11.0034C29.5412 11.7222 29.4037 12.4797 29.235 13.2522C27.8787 12.9047 26.2275 12.6109 24.5425 12.4322L24.3825 12.4184C23.35 11.0009 22.3075 9.75469 21.1887 8.58094L21.2037 8.59594C22.8425 6.77094 25.05 5.48594 27.5462 5.02219L27.6162 5.01094L27.6125 5.00969ZM27.62 3.30719C24.5675 3.77094 21.925 5.25344 19.995 7.39219L19.985 7.40344C18.0412 5.26594 15.3987 3.79344 12.4212 3.34719L12.3512 3.33844C12.335 3.33844 12.315 3.33844 12.295 3.33844C11.6812 3.33844 11.105 3.49969 10.6062 3.78219L10.6237 3.77344C8.47622 5.01219 7.99498 8.87219 9.10373 13.7159C4.34873 15.1847 1.25623 17.5322 1.25623 20.0059C1.25623 22.4897 4.36498 24.8434 9.13373 26.3009C8.03373 31.1634 8.52498 35.0297 10.6775 36.2672C11.15 36.5384 11.7175 36.6972 12.3212 36.6972C12.3487 36.6972 12.3762 36.6972 12.4025 36.6959H12.3987C15.4512 36.2322 18.0937 34.7484 20.0237 32.6084L20.0337 32.5972C21.9775 34.7359 24.62 36.2084 27.5975 36.6547L27.6675 36.6634C27.6862 36.6634 27.71 36.6634 27.7325 36.6634C28.3425 36.6634 28.9162 36.5034 29.4125 36.2247L29.395 36.2334C31.5412 34.9959 32.0237 31.1359 30.915 26.2909C35.6525 24.8347 38.745 22.4822 38.745 20.0047C38.745 17.5209 35.6362 15.1672 30.8675 13.7059C31.9675 8.84844 31.4762 4.97844 29.3237 3.73969C28.8462 3.46594 28.2737 3.30469 27.6637 3.30469C27.6475 3.30469 27.6312 3.30469 27.615 3.30469H27.6175L27.62 3.30719ZM23.4837 20.0059C23.4837 21.9347 21.92 23.4984 19.9912 23.4984C18.0625 23.4984 16.4987 21.9347 16.4987 20.0059C16.4987 18.0772 18.0625 16.5134 19.9912 16.5134C20.9562 16.5134 21.8287 16.9047 22.4612 17.5359C23.0937 18.1684 23.4837 19.0409 23.4837 20.0059Z" fill="#087EA4"/>
</svg>
