<svg width="40" height="40" viewBox="0 0 40 40" fill="none" xmlns="http://www.w3.org/2000/svg">
<path d="M35.3265 2.11719H22.8919C22.6728 2.11719 22.4934 2.29633 22.4934 2.51539V7.46305H22.5972C22.8163 7.46305 22.9957 7.64227 22.9957 7.86125V10.151H23.7846C24.0038 10.151 24.183 10.3302 24.183 10.5493V12.5244H25.1417C25.3609 12.5244 25.5402 12.7036 25.5402 12.9226V37.836H26.7108C26.93 37.836 27.1093 38.0152 27.1093 38.2342V39.4125H35.3265C35.5457 39.4125 35.725 39.2333 35.725 39.0142V2.51547C35.725 2.29641 35.5456 2.11719 35.3265 2.11719Z" fill="#FB8276"/>
<path d="M22.5971 7.46305C22.8162 7.46305 22.9956 7.64227 22.9956 7.86125V10.151H23.7845C24.0037 10.151 24.1829 10.3302 24.1829 10.5493V12.5244H24.6469V2.51539C24.6469 2.29633 24.8262 2.11719 25.0454 2.11719H22.8919C22.6728 2.11719 22.4934 2.29633 22.4934 2.51539V7.46305H22.5971Z" fill="black"/>
<path d="M32.6557 4.875H34.0106C34.166 4.875 34.315 4.81327 34.4249 4.70338C34.5348 4.5935 34.5965 4.44446 34.5965 4.28906C34.5965 4.13366 34.5348 3.98463 34.4249 3.87474C34.315 3.76486 34.166 3.70312 34.0106 3.70312H32.6557C32.5003 3.70313 32.3513 3.76486 32.2414 3.87474C32.1315 3.98463 32.0698 4.13366 32.0698 4.28906C32.0698 4.44446 32.1315 4.5935 32.2414 4.70338C32.3513 4.81327 32.5003 4.875 32.6557 4.875ZM25.5626 3.70312H24.2078C24.0524 3.70313 23.9033 3.76486 23.7934 3.87474C23.6836 3.98463 23.6218 4.13366 23.6218 4.28906C23.6218 4.44446 23.6836 4.5935 23.7934 4.70338C23.9033 4.81327 24.0524 4.875 24.2078 4.875H25.5626C25.718 4.875 25.867 4.81327 25.9769 4.70338C26.0868 4.5935 26.1485 4.44446 26.1485 4.28906C26.1485 4.13366 26.0868 3.98463 25.9769 3.87474C25.867 3.76486 25.718 3.70312 25.5626 3.70312ZM34.0106 5.53492H32.6557C32.5003 5.53492 32.3513 5.59665 32.2414 5.70654C32.1315 5.81642 32.0698 5.96546 32.0698 6.12086C32.0698 6.27626 32.1315 6.42529 32.2414 6.53518C32.3513 6.64506 32.5003 6.7068 32.6557 6.7068H34.0106C34.166 6.7068 34.315 6.64506 34.4249 6.53518C34.5348 6.42529 34.5965 6.27626 34.5965 6.12086C34.5965 5.96546 34.5348 5.81642 34.4249 5.70654C34.315 5.59665 34.166 5.53492 34.0106 5.53492ZM25.5626 5.53492H24.2078C24.0524 5.53492 23.9033 5.59665 23.7934 5.70654C23.6836 5.81642 23.6218 5.96546 23.6218 6.12086C23.6218 6.27626 23.6836 6.42529 23.7934 6.53518C23.9033 6.64506 24.0524 6.7068 24.2078 6.7068H25.5626C25.718 6.7068 25.867 6.64506 25.9769 6.53518C26.0868 6.42529 26.1485 6.27626 26.1485 6.12086C26.1485 5.96546 26.0868 5.81642 25.9769 5.70654C25.867 5.59665 25.718 5.53492 25.5626 5.53492ZM34.0106 7.3668H32.6557C32.5003 7.3668 32.3513 7.42853 32.2414 7.53841C32.1315 7.6483 32.0698 7.79733 32.0698 7.95273C32.0698 8.10813 32.1315 8.25717 32.2414 8.36705C32.3513 8.47694 32.5003 8.53867 32.6557 8.53867H34.0106C34.166 8.53867 34.315 8.47694 34.4249 8.36705C34.5348 8.25717 34.5965 8.10813 34.5965 7.95273C34.5965 7.79733 34.5348 7.6483 34.4249 7.53841C34.315 7.42853 34.166 7.3668 34.0106 7.3668ZM25.5626 7.3668H24.2078C24.0524 7.3668 23.9033 7.42853 23.7934 7.53841C23.6836 7.6483 23.6218 7.79733 23.6218 7.95273C23.6218 8.10813 23.6836 8.25717 23.7934 8.36705C23.9033 8.47694 24.0524 8.53867 24.2078 8.53867H25.5626C25.718 8.53867 25.867 8.47694 25.9769 8.36705C26.0868 8.25717 26.1485 8.10813 26.1485 7.95273C26.1485 7.79733 26.0868 7.6483 25.9769 7.53841C25.867 7.42853 25.718 7.3668 25.5626 7.3668ZM34.0106 9.19867H32.6557C32.5003 9.19867 32.3513 9.2604 32.2414 9.37029C32.1315 9.48017 32.0698 9.62921 32.0698 9.78461C32.0698 9.94001 32.1315 10.089 32.2414 10.1989C32.3513 10.3088 32.5003 10.3705 32.6557 10.3705H34.0106C34.166 10.3705 34.315 10.3088 34.4249 10.1989C34.5348 10.089 34.5965 9.94001 34.5965 9.78461C34.5965 9.62921 34.5348 9.48017 34.4249 9.37029C34.315 9.2604 34.166 9.19867 34.0106 9.19867ZM25.5626 9.19867H24.2078C24.0524 9.19867 23.9033 9.2604 23.7934 9.37029C23.6836 9.48017 23.6218 9.62921 23.6218 9.78461C23.6218 9.94001 23.6836 10.089 23.7934 10.1989C23.9033 10.3088 24.0524 10.3705 24.2078 10.3705H25.5626C25.718 10.3705 25.867 10.3088 25.9769 10.1989C26.0868 10.089 26.1485 9.94001 26.1485 9.78461C26.1485 9.62921 26.0868 9.48017 25.9769 9.37029C25.867 9.2604 25.718 9.19867 25.5626 9.19867ZM34.0106 11.0305H32.6557C32.5003 11.0305 32.3513 11.0922 32.2414 11.2021C32.1315 11.312 32.0698 11.461 32.0698 11.6164C32.0698 11.7718 32.1315 11.9208 32.2414 12.0307C32.3513 12.1406 32.5003 12.2023 32.6557 12.2023H34.0106C34.166 12.2023 34.315 12.1406 34.4249 12.0307C34.5348 11.9208 34.5965 11.7718 34.5965 11.6164C34.5965 11.461 34.5348 11.312 34.4249 11.2021C34.315 11.0922 34.166 11.0305 34.0106 11.0305ZM25.5626 11.0305H24.2078C24.0524 11.0305 23.9033 11.0922 23.7934 11.2021C23.6836 11.312 23.6218 11.461 23.6218 11.6164C23.6218 11.7718 23.6836 11.9208 23.7934 12.0307C23.9033 12.1406 24.0524 12.2023 24.2078 12.2023H25.5626C25.718 12.2023 25.867 12.1406 25.9769 12.0307C26.0868 11.9208 26.1485 11.7718 26.1485 11.6164C26.1485 11.461 26.0868 11.312 25.9769 11.2021C25.867 11.0922 25.718 11.0305 25.5626 11.0305ZM34.0106 12.8623H32.6557C32.5003 12.8623 32.3513 12.9241 32.2414 13.034C32.1315 13.1438 32.0698 13.2929 32.0698 13.4483C32.0698 13.6037 32.1315 13.7527 32.2414 13.8626C32.3513 13.9725 32.5003 14.0342 32.6557 14.0342H34.0106C34.166 14.0342 34.315 13.9725 34.4249 13.8626C34.5348 13.7527 34.5965 13.6037 34.5965 13.4483C34.5965 13.2929 34.5348 13.1438 34.4249 13.034C34.315 12.9241 34.166 12.8623 34.0106 12.8623ZM25.5401 12.9229V14.0342H25.5626C25.718 14.0342 25.867 13.9725 25.9769 13.8626C26.0868 13.7527 26.1485 13.6037 26.1485 13.4483C26.1485 13.2929 26.0868 13.1438 25.9769 13.034C25.867 12.9241 25.718 12.8623 25.5626 12.8623H25.5339C25.5371 12.8822 25.5401 12.9022 25.5401 12.9229ZM34.0106 14.6941H32.6557C32.5003 14.6941 32.3513 14.7559 32.2414 14.8658C32.1315 14.9756 32.0698 15.1247 32.0698 15.2801C32.0698 15.4355 32.1315 15.5845 32.2414 15.6944C32.3513 15.8043 32.5003 15.866 32.6557 15.866H34.0106C34.166 15.866 34.315 15.8043 34.4249 15.6944C34.5348 15.5845 34.5965 15.4355 34.5965 15.2801C34.5965 15.1247 34.5348 14.9756 34.4249 14.8658C34.315 14.7559 34.166 14.6941 34.0106 14.6941ZM25.5401 15.866H25.5626C25.718 15.866 25.867 15.8043 25.9769 15.6944C26.0868 15.5845 26.1485 15.4355 26.1485 15.2801C26.1485 15.1247 26.0868 14.9756 25.9769 14.8658C25.867 14.7559 25.718 14.6941 25.5626 14.6941H25.5401V15.866ZM34.0106 16.526H32.6557C32.5003 16.526 32.3513 16.5877 32.2414 16.6976C32.1315 16.8075 32.0698 16.9566 32.0698 17.112C32.0698 17.2674 32.1315 17.4164 32.2414 17.5263C32.3513 17.6362 32.5003 17.6979 32.6557 17.6979H34.0106C34.166 17.6979 34.315 17.6362 34.4249 17.5263C34.5348 17.4164 34.5965 17.2674 34.5965 17.112C34.5965 16.9566 34.5348 16.8075 34.4249 16.6976C34.315 16.5877 34.166 16.526 34.0106 16.526ZM25.5401 17.6979H25.5626C25.718 17.6979 25.867 17.6362 25.9769 17.5263C26.0868 17.4164 26.1485 17.2674 26.1485 17.112C26.1485 16.9566 26.0868 16.8075 25.9769 16.6976C25.867 16.5877 25.718 16.526 25.5626 16.526H25.5401V17.6979ZM34.0106 18.3579H32.6557C32.5003 18.3579 32.3513 18.4196 32.2414 18.5295C32.1315 18.6394 32.0698 18.7884 32.0698 18.9438C32.0698 19.0992 32.1315 19.2483 32.2414 19.3581C32.3513 19.468 32.5003 19.5298 32.6557 19.5298H34.0106C34.166 19.5298 34.315 19.468 34.4249 19.3581C34.5348 19.2483 34.5965 19.0992 34.5965 18.9438C34.5965 18.7884 34.5348 18.6394 34.4249 18.5295C34.315 18.4196 34.166 18.3579 34.0106 18.3579ZM25.5401 19.5298H25.5626C25.718 19.5298 25.867 19.468 25.9769 19.3581C26.0868 19.2483 26.1485 19.0992 26.1485 18.9438C26.1485 18.7884 26.0868 18.6394 25.9769 18.5295C25.867 18.4196 25.718 18.3579 25.5626 18.3579H25.5401V19.5298ZM34.0106 20.1898H32.6557C32.5003 20.1898 32.3513 20.2515 32.2414 20.3614C32.1315 20.4713 32.0698 20.6203 32.0698 20.7757C32.0698 20.9311 32.1315 21.0801 32.2414 21.19C32.3513 21.2999 32.5003 21.3616 32.6557 21.3616H34.0106C34.166 21.3616 34.315 21.2999 34.4249 21.19C34.5348 21.0801 34.5965 20.9311 34.5965 20.7757C34.5965 20.6203 34.5348 20.4713 34.4249 20.3614C34.315 20.2515 34.166 20.1898 34.0106 20.1898ZM25.5401 21.3616H25.5626C25.718 21.3616 25.867 21.2999 25.9769 21.19C26.0868 21.0801 26.1485 20.9311 26.1485 20.7757C26.1485 20.6203 26.0868 20.4713 25.9769 20.3614C25.867 20.2515 25.718 20.1898 25.5626 20.1898H25.5401V21.3616ZM34.0106 22.0216H32.6557C32.5003 22.0216 32.3513 22.0833 32.2414 22.1932C32.1315 22.3031 32.0698 22.4521 32.0698 22.6075C32.0698 22.7629 32.1315 22.9119 32.2414 23.0218C32.3513 23.1317 32.5003 23.1934 32.6557 23.1934H34.0106C34.166 23.1934 34.315 23.1317 34.4249 23.0218C34.5348 22.9119 34.5965 22.7629 34.5965 22.6075C34.5965 22.4521 34.5348 22.3031 34.4249 22.1932C34.315 22.0833 34.166 22.0216 34.0106 22.0216ZM25.5401 23.1934H25.5626C25.718 23.1934 25.867 23.1317 25.9769 23.0218C26.0868 22.9119 26.1485 22.7629 26.1485 22.6075C26.1485 22.4521 26.0868 22.3031 25.9769 22.1932C25.867 22.0833 25.718 22.0216 25.5626 22.0216H25.5401V23.1934ZM34.0106 23.8534H32.6557C32.5003 23.8534 32.3513 23.9152 32.2414 24.0251C32.1315 24.1349 32.0698 24.284 32.0698 24.4394C32.0698 24.5948 32.1315 24.7438 32.2414 24.8537C32.3513 24.9636 32.5003 25.0253 32.6557 25.0253H34.0106C34.166 25.0253 34.315 24.9636 34.4249 24.8537C34.5348 24.7438 34.5965 24.5948 34.5965 24.4394C34.5965 24.284 34.5348 24.1349 34.4249 24.0251C34.315 23.9152 34.166 23.8534 34.0106 23.8534ZM25.5401 25.0253H25.5626C25.718 25.0253 25.867 24.9636 25.9769 24.8537C26.0868 24.7438 26.1485 24.5948 26.1485 24.4394C26.1485 24.284 26.0868 24.1349 25.9769 24.0251C25.867 23.9152 25.718 23.8534 25.5626 23.8534H25.5401V25.0253ZM34.0106 25.6852H32.6557C32.5003 25.6852 32.3513 25.747 32.2414 25.8569C32.1315 25.9667 32.0698 26.1158 32.0698 26.2712C32.0698 26.4266 32.1315 26.5756 32.2414 26.6855C32.3513 26.7954 32.5003 26.8571 32.6557 26.8571H34.0106C34.166 26.8571 34.315 26.7954 34.4249 26.6855C34.5348 26.5756 34.5965 26.4266 34.5965 26.2712C34.5965 26.1158 34.5348 25.9667 34.4249 25.8569C34.315 25.747 34.166 25.6852 34.0106 25.6852ZM25.5401 26.8571H25.5626C25.718 26.8571 25.867 26.7954 25.9769 26.6855C26.0868 26.5756 26.1485 26.4266 26.1485 26.2712C26.1485 26.1158 26.0868 25.9667 25.9769 25.8569C25.867 25.747 25.718 25.6852 25.5626 25.6852H25.5401V26.8571ZM34.0106 27.5171H32.6557C32.5003 27.5171 32.3513 27.5788 32.2414 27.6887C32.1315 27.7986 32.0698 27.9476 32.0698 28.103C32.0698 28.2584 32.1315 28.4075 32.2414 28.5174C32.3513 28.6273 32.5003 28.689 32.6557 28.689H34.0106C34.166 28.689 34.315 28.6273 34.4249 28.5174C34.5348 28.4075 34.5965 28.2584 34.5965 28.103C34.5965 27.9476 34.5348 27.7986 34.4249 27.6887C34.315 27.5788 34.166 27.5171 34.0106 27.5171ZM25.5401 28.689H25.5626C25.718 28.689 25.867 28.6273 25.9769 28.5174C26.0868 28.4075 26.1485 28.2584 26.1485 28.103C26.1485 27.9476 26.0868 27.7986 25.9769 27.6887C25.867 27.5788 25.718 27.5171 25.5626 27.5171H25.5401V28.689ZM34.0106 29.3489H32.6557C32.5003 29.3489 32.3513 29.4106 32.2414 29.5205C32.1315 29.6304 32.0698 29.7794 32.0698 29.9348C32.0698 30.0902 32.1315 30.2393 32.2414 30.3492C32.3513 30.459 32.5003 30.5208 32.6557 30.5208H34.0106C34.166 30.5208 34.315 30.459 34.4249 30.3492C34.5348 30.2393 34.5965 30.0902 34.5965 29.9348C34.5965 29.7794 34.5348 29.6304 34.4249 29.5205C34.315 29.4106 34.166 29.3489 34.0106 29.3489ZM25.5401 30.5208H25.5626C25.718 30.5208 25.867 30.459 25.9769 30.3492C26.0868 30.2393 26.1485 30.0902 26.1485 29.9348C26.1485 29.7794 26.0868 29.6304 25.9769 29.5205C25.867 29.4106 25.718 29.3489 25.5626 29.3489H25.5401V30.5208ZM34.0106 31.1808H32.6557C32.5003 31.1808 32.3513 31.2425 32.2414 31.3524C32.1315 31.4623 32.0698 31.6113 32.0698 31.7667C32.0698 31.9221 32.1315 32.0712 32.2414 32.181C32.3513 32.2909 32.5003 32.3527 32.6557 32.3527H34.0106C34.166 32.3527 34.315 32.2909 34.4249 32.181C34.5348 32.0712 34.5965 31.9221 34.5965 31.7667C34.5965 31.6113 34.5348 31.4623 34.4249 31.3524C34.315 31.2425 34.166 31.1808 34.0106 31.1808ZM25.5401 32.3527H25.5626C25.718 32.3527 25.867 32.2909 25.9769 32.181C26.0868 32.0712 26.1485 31.9221 26.1485 31.7667C26.1485 31.6113 26.0868 31.4623 25.9769 31.3524C25.867 31.2425 25.718 31.1808 25.5626 31.1808H25.5401V32.3527ZM34.0106 33.0127H32.6557C32.5003 33.0127 32.3513 33.0744 32.2414 33.1843C32.1315 33.2942 32.0698 33.4432 32.0698 33.5986C32.0698 33.754 32.1315 33.903 32.2414 34.0129C32.3513 34.1228 32.5003 34.1845 32.6557 34.1845H34.0106C34.166 34.1845 34.315 34.1228 34.4249 34.0129C34.5348 33.903 34.5965 33.754 34.5965 33.5986C34.5965 33.4432 34.5348 33.2942 34.4249 33.1843C34.315 33.0744 34.166 33.0127 34.0106 33.0127ZM25.5401 34.1845H25.5626C25.718 34.1845 25.867 34.1228 25.9769 34.0129C26.0868 33.903 26.1485 33.754 26.1485 33.5986C26.1485 33.4432 26.0868 33.2942 25.9769 33.1843C25.867 33.0744 25.718 33.0127 25.5626 33.0127H25.5401V34.1845ZM34.0106 34.8445H32.6557C32.5003 34.8445 32.3513 34.9063 32.2414 35.0161C32.1315 35.126 32.0698 35.2751 32.0698 35.4305C32.0698 35.5859 32.1315 35.7349 32.2414 35.8448C32.3513 35.9547 32.5003 36.0164 32.6557 36.0164H34.0106C34.166 36.0164 34.315 35.9547 34.4249 35.8448C34.5348 35.7349 34.5965 35.5859 34.5965 35.4305C34.5965 35.2751 34.5348 35.126 34.4249 35.0161C34.315 34.9063 34.166 34.8445 34.0106 34.8445ZM25.5401 36.0164H25.5626C25.718 36.0164 25.867 35.9547 25.9769 35.8448C26.0868 35.7349 26.1485 35.5859 26.1485 35.4305C26.1485 35.2751 26.0868 35.126 25.9769 35.0161C25.867 34.9063 25.718 34.8445 25.5626 34.8445H25.5401V36.0164ZM30.7469 3.70312H27.4714C27.316 3.70313 27.1669 3.76486 27.057 3.87474C26.9472 3.98463 26.8854 4.13366 26.8854 4.28906C26.8854 4.44446 26.9472 4.5935 27.057 4.70338C27.1669 4.81327 27.316 4.875 27.4714 4.875H30.7469C30.8239 4.875 30.9 4.85984 30.9711 4.8304C31.0422 4.80095 31.1068 4.75779 31.1612 4.70338C31.2156 4.64897 31.2588 4.58438 31.2882 4.51329C31.3177 4.4422 31.3328 4.36601 31.3328 4.28906C31.3328 4.13366 31.2711 3.98463 31.1612 3.87474C31.0513 3.76486 30.9023 3.70312 30.7469 3.70312ZM30.7469 5.53492H27.4714C27.316 5.53492 27.1669 5.59665 27.057 5.70654C26.9472 5.81642 26.8854 5.96546 26.8854 6.12086C26.8854 6.27626 26.9472 6.42529 27.057 6.53518C27.1669 6.64506 27.316 6.7068 27.4714 6.7068H30.7469C30.9023 6.7068 31.0513 6.64506 31.1612 6.53518C31.2711 6.42529 31.3328 6.27626 31.3328 6.12086C31.3328 5.96546 31.2711 5.81642 31.1612 5.70654C31.0513 5.59665 30.9023 5.53492 30.7469 5.53492ZM30.7469 7.3668H27.4714C27.316 7.3668 27.1669 7.42853 27.057 7.53841C26.9472 7.6483 26.8854 7.79733 26.8854 7.95273C26.8854 8.10813 26.9472 8.25717 27.057 8.36705C27.1669 8.47694 27.316 8.53867 27.4714 8.53867H30.7469C30.9023 8.53867 31.0513 8.47694 31.1612 8.36705C31.2711 8.25717 31.3328 8.10813 31.3328 7.95273C31.3328 7.79733 31.2711 7.6483 31.1612 7.53841C31.0513 7.42853 30.9023 7.3668 30.7469 7.3668ZM30.7469 9.19867H27.4714C27.316 9.19867 27.1669 9.2604 27.057 9.37029C26.9472 9.48017 26.8854 9.62921 26.8854 9.78461C26.8854 9.94001 26.9472 10.089 27.057 10.1989C27.1669 10.3088 27.316 10.3705 27.4714 10.3705H30.7469C30.9023 10.3705 31.0513 10.3088 31.1612 10.1989C31.2711 10.089 31.3328 9.94001 31.3328 9.78461C31.3328 9.62921 31.2711 9.48017 31.1612 9.37029C31.0513 9.2604 30.9023 9.19867 30.7469 9.19867ZM30.7469 11.0305H27.4714C27.316 11.0305 27.1669 11.0922 27.057 11.2021C26.9472 11.312 26.8854 11.461 26.8854 11.6164C26.8854 11.7718 26.9472 11.9208 27.057 12.0307C27.1669 12.1406 27.316 12.2023 27.4714 12.2023H30.7469C30.9023 12.2023 31.0513 12.1406 31.1612 12.0307C31.2711 11.9208 31.3328 11.7718 31.3328 11.6164C31.3328 11.461 31.2711 11.312 31.1612 11.2021C31.0513 11.0922 30.9023 11.0305 30.7469 11.0305ZM30.7469 12.8623H27.4714C27.316 12.8623 27.1669 12.9241 27.057 13.034C26.9472 13.1438 26.8854 13.2929 26.8854 13.4483C26.8854 13.6037 26.9472 13.7527 27.057 13.8626C27.1669 13.9725 27.316 14.0342 27.4714 14.0342H30.7469C30.9023 14.0342 31.0513 13.9725 31.1612 13.8626C31.2711 13.7527 31.3328 13.6037 31.3328 13.4483C31.3328 13.2929 31.2711 13.1438 31.1612 13.034C31.0513 12.9241 30.9023 12.8623 30.7469 12.8623ZM30.7469 14.6941H27.4714C27.316 14.6941 27.1669 14.7559 27.057 14.8658C26.9472 14.9756 26.8854 15.1247 26.8854 15.2801C26.8854 15.4355 26.9472 15.5845 27.057 15.6944C27.1669 15.8043 27.316 15.866 27.4714 15.866H30.7469C30.9023 15.866 31.0513 15.8043 31.1612 15.6944C31.2711 15.5845 31.3328 15.4355 31.3328 15.2801C31.3328 15.1247 31.2711 14.9756 31.1612 14.8658C31.0513 14.7559 30.9023 14.6941 30.7469 14.6941ZM30.7469 16.526H27.4714C27.316 16.526 27.1669 16.5877 27.057 16.6976C26.9472 16.8075 26.8854 16.9566 26.8854 17.112C26.8854 17.2674 26.9472 17.4164 27.057 17.5263C27.1669 17.6362 27.316 17.6979 27.4714 17.6979H30.7469C30.9023 17.6979 31.0513 17.6362 31.1612 17.5263C31.2711 17.4164 31.3328 17.2674 31.3328 17.112C31.3328 16.9566 31.2711 16.8075 31.1612 16.6976C31.0513 16.5877 30.9023 16.526 30.7469 16.526ZM30.7469 18.3579H27.4714C27.316 18.3579 27.1669 18.4196 27.057 18.5295C26.9472 18.6394 26.8854 18.7884 26.8854 18.9438C26.8854 19.0992 26.9472 19.2483 27.057 19.3581C27.1669 19.468 27.316 19.5298 27.4714 19.5298H30.7469C30.9023 19.5298 31.0513 19.468 31.1612 19.3581C31.2711 19.2483 31.3328 19.0992 31.3328 18.9438C31.3328 18.7884 31.2711 18.6394 31.1612 18.5295C31.0513 18.4196 30.9023 18.3579 30.7469 18.3579ZM30.7469 20.1898H27.4714C27.316 20.1898 27.1669 20.2515 27.057 20.3614C26.9472 20.4713 26.8854 20.6203 26.8854 20.7757C26.8854 20.9311 26.9472 21.0801 27.057 21.19C27.1669 21.2999 27.316 21.3616 27.4714 21.3616H30.7469C30.9023 21.3616 31.0513 21.2999 31.1612 21.19C31.2711 21.0801 31.3328 20.9311 31.3328 20.7757C31.3328 20.6203 31.2711 20.4713 31.1612 20.3614C31.0513 20.2515 30.9023 20.1898 30.7469 20.1898ZM30.7469 22.0216H27.4714C27.316 22.0216 27.1669 22.0833 27.057 22.1932C26.9472 22.3031 26.8854 22.4521 26.8854 22.6075C26.8854 22.7629 26.9472 22.9119 27.057 23.0218C27.1669 23.1317 27.316 23.1934 27.4714 23.1934H30.7469C30.9023 23.1934 31.0513 23.1317 31.1612 23.0218C31.2711 22.9119 31.3328 22.7629 31.3328 22.6075C31.3328 22.4521 31.2711 22.3031 31.1612 22.1932C31.0513 22.0833 30.9023 22.0216 30.7469 22.0216ZM30.7469 23.8534H27.4714C27.316 23.8534 27.1669 23.9152 27.057 24.0251C26.9472 24.1349 26.8854 24.284 26.8854 24.4394C26.8854 24.5948 26.9472 24.7438 27.057 24.8537C27.1669 24.9636 27.316 25.0253 27.4714 25.0253H30.7469C30.9023 25.0253 31.0513 24.9636 31.1612 24.8537C31.2711 24.7438 31.3328 24.5948 31.3328 24.4394C31.3328 24.284 31.2711 24.1349 31.1612 24.0251C31.0513 23.9152 30.9023 23.8534 30.7469 23.8534ZM30.7469 25.6852H27.4714C27.316 25.6852 27.1669 25.747 27.057 25.8569C26.9472 25.9667 26.8854 26.1158 26.8854 26.2712C26.8854 26.4266 26.9472 26.5756 27.057 26.6855C27.1669 26.7954 27.316 26.8571 27.4714 26.8571H30.7469C30.9023 26.8571 31.0513 26.7954 31.1612 26.6855C31.2711 26.5756 31.3328 26.4266 31.3328 26.2712C31.3328 26.1158 31.2711 25.9667 31.1612 25.8569C31.0513 25.747 30.9023 25.6852 30.7469 25.6852ZM30.7469 27.5171H27.4714C27.316 27.5171 27.1669 27.5788 27.057 27.6887C26.9472 27.7986 26.8854 27.9476 26.8854 28.103C26.8854 28.2584 26.9472 28.4075 27.057 28.5174C27.1669 28.6273 27.316 28.689 27.4714 28.689H30.7469C30.9023 28.689 31.0513 28.6273 31.1612 28.5174C31.2711 28.4075 31.3328 28.2584 31.3328 28.103C31.3328 27.9476 31.2711 27.7986 31.1612 27.6887C31.0513 27.5788 30.9023 27.5171 30.7469 27.5171ZM30.7469 29.3489H27.4714C27.316 29.3489 27.1669 29.4106 27.057 29.5205C26.9472 29.6304 26.8854 29.7794 26.8854 29.9348C26.8854 30.0902 26.9472 30.2393 27.057 30.3492C27.1669 30.459 27.316 30.5208 27.4714 30.5208H30.7469C30.9023 30.5208 31.0513 30.459 31.1612 30.3492C31.2711 30.2393 31.3328 30.0902 31.3328 29.9348C31.3328 29.7794 31.2711 29.6304 31.1612 29.5205C31.0513 29.4106 30.9023 29.3489 30.7469 29.3489ZM30.7469 31.1808H27.4714C27.316 31.1808 27.1669 31.2425 27.057 31.3524C26.9472 31.4623 26.8854 31.6113 26.8854 31.7667C26.8854 31.9221 26.9472 32.0712 27.057 32.181C27.1669 32.2909 27.316 32.3527 27.4714 32.3527H30.7469C30.9023 32.3527 31.0513 32.2909 31.1612 32.181C31.2711 32.0712 31.3328 31.9221 31.3328 31.7667C31.3328 31.6113 31.2711 31.4623 31.1612 31.3524C31.0513 31.2425 30.9023 31.1808 30.7469 31.1808ZM30.7469 33.0127H27.4714C27.316 33.0127 27.1669 33.0744 27.057 33.1843C26.9472 33.2942 26.8854 33.4432 26.8854 33.5986C26.8854 33.754 26.9472 33.903 27.057 34.0129C27.1669 34.1228 27.316 34.1845 27.4714 34.1845H30.7469C30.9023 34.1845 31.0513 34.1228 31.1612 34.0129C31.2711 33.903 31.3328 33.754 31.3328 33.5986C31.3328 33.4432 31.2711 33.2942 31.1612 33.1843C31.0513 33.0744 30.9023 33.0127 30.7469 33.0127ZM30.7469 34.8445H27.4714C27.316 34.8445 27.1669 34.9063 27.057 35.0161C26.9472 35.126 26.8854 35.2751 26.8854 35.4305C26.8854 35.5859 26.9472 35.7349 27.057 35.8448C27.1669 35.9547 27.316 36.0164 27.4714 36.0164H30.7469C30.9023 36.0164 31.0513 35.9547 31.1612 35.8448C31.2711 35.7349 31.3328 35.5859 31.3328 35.4305C31.3328 35.2751 31.2711 35.126 31.1612 35.0161C31.0513 34.9063 30.9023 34.8445 30.7469 34.8445Z" fill="#EF5050"/>
<path d="M14.4537 15.2628V12.9242C14.4537 12.7052 14.633 12.526 14.8522 12.526H15.8108V10.5509C15.8108 10.3319 15.9901 10.1527 16.2093 10.1527H16.9982V7.86288C16.9982 7.65281 17.1638 7.48109 17.3707 7.46734V0.22851C17.3707 0.0094473 17.225 -0.0653183 17.0468 0.0623379L9.89113 5.19234C9.71309 5.31999 9.56738 5.60367 9.56738 5.82265V15.2627L14.4537 15.2628Z" fill="#D5E962"/>
<path d="M11.6389 15.2628V6.39617C11.6389 6.17718 11.7846 5.89351 11.9626 5.76585L17.3707 1.88882V0.22851C17.3707 0.0094473 17.225 -0.0653183 17.0468 0.0623379L9.89113 5.19234C9.71309 5.31999 9.56738 5.60367 9.56738 5.82265V15.2627L11.6389 15.2628Z" fill="black"/>
<path d="M11.313 7.90234H16.3339C16.4893 7.90234 16.6384 7.84061 16.7482 7.73073C16.8581 7.62084 16.9199 7.47181 16.9199 7.31641C16.9199 7.16101 16.8581 7.01197 16.7482 6.90209C16.6384 6.7922 16.4893 6.73047 16.3339 6.73047H11.313C11.1576 6.73047 11.0086 6.7922 10.8987 6.90209C10.7888 7.01197 10.7271 7.16101 10.7271 7.31641C10.7271 7.47181 10.7888 7.62084 10.8987 7.73073C11.0086 7.84061 11.1576 7.90234 11.313 7.90234ZM16.3339 8.44289H11.313C11.1576 8.44289 11.0086 8.50462 10.8987 8.61451C10.7888 8.72439 10.7271 8.87343 10.7271 9.02883C10.7271 9.18423 10.7888 9.33326 10.8987 9.44315C11.0086 9.55303 11.1576 9.61477 11.313 9.61477H16.3339C16.4893 9.61477 16.6384 9.55303 16.7482 9.44315C16.8581 9.33326 16.9199 9.18423 16.9199 9.02883C16.9199 8.87343 16.8581 8.72439 16.7482 8.61451C16.6384 8.50462 16.4893 8.44289 16.3339 8.44289ZM11.313 11.3271H15.8109V10.5505C15.8109 10.3417 15.9742 10.171 16.1793 10.1552H11.313C11.1576 10.1552 11.0086 10.217 10.8987 10.3269C10.7888 10.4367 10.7271 10.5858 10.7271 10.7412C10.7271 10.8966 10.7888 11.0456 10.8987 11.1555C11.0086 11.2654 11.1576 11.3271 11.313 11.3271ZM11.313 13.0395H14.4538V12.9237C14.4538 12.7048 14.6331 12.5255 14.8523 12.5255H15.8109V11.8677H11.313C11.1588 11.8694 11.0115 11.9319 10.903 12.0416C10.7946 12.1513 10.7338 12.2993 10.7338 12.4536C10.7338 12.6078 10.7946 12.7558 10.903 12.8655C11.0115 12.9752 11.1588 13.0377 11.313 13.0395ZM11.313 14.7519H14.4538V13.58H11.313C11.1576 13.58 11.0086 13.6417 10.8987 13.7516C10.7888 13.8615 10.7271 14.0105 10.7271 14.1659C10.7271 14.3213 10.7888 14.4704 10.8987 14.5803C11.0086 14.6901 11.1576 14.7519 11.313 14.7519Z" fill="#89C947"/>
<path d="M16.0134 39.0147C16.0134 39.2338 15.8341 39.413 15.6149 39.413H4.53735C4.31813 39.413 4.13892 39.2338 4.13892 39.0147V15.2302C4.13892 15.0113 4.31821 14.832 4.53735 14.832H15.6149C15.834 14.832 16.0134 15.0113 16.0134 15.2302V39.0147Z" fill="#F7931E"/>
<path d="M5.73438 39.0147V15.2302C5.73438 15.0113 5.91368 14.832 6.1329 14.832H4.53735C4.31813 14.832 4.13892 15.0113 4.13892 15.2302V39.0147C4.13892 39.2338 4.31821 39.413 4.53735 39.413H6.13282C5.91376 39.413 5.73438 39.2338 5.73438 39.0147Z" fill="black"/>
<path d="M6.42896 35.0809C6.27355 35.0809 6.12452 35.0192 6.01463 34.9093C5.90475 34.7994 5.84302 34.6504 5.84302 34.495V17.7969C5.84302 17.6415 5.90475 17.4924 6.01463 17.3826C6.12452 17.2727 6.27355 17.2109 6.42896 17.2109C6.58436 17.2109 6.73339 17.2727 6.84328 17.3826C6.95316 17.4924 7.01489 17.6415 7.01489 17.7969V34.4949C7.0149 34.5719 6.99975 34.6481 6.97031 34.7192C6.94087 34.7903 6.89771 34.8549 6.8433 34.9093C6.78889 34.9637 6.7243 35.0069 6.6532 35.0363C6.58211 35.0658 6.50591 35.0809 6.42896 35.0809ZM8.29497 35.0809C8.13957 35.0809 7.99054 35.0192 7.88065 34.9093C7.77077 34.7994 7.70903 34.6504 7.70903 34.495V17.7969C7.70903 17.6415 7.77077 17.4924 7.88065 17.3826C7.99054 17.2727 8.13957 17.2109 8.29497 17.2109C8.45037 17.2109 8.59941 17.2727 8.70929 17.3826C8.81918 17.4924 8.88091 17.6415 8.88091 17.7969V34.4949C8.88092 34.5719 8.86577 34.6481 8.83633 34.7192C8.80689 34.7903 8.76373 34.8549 8.70932 34.9093C8.65491 34.9637 8.59031 35.0069 8.51922 35.0363C8.44812 35.0658 8.37192 35.0809 8.29497 35.0809ZM10.161 35.0809C10.0056 35.0809 9.85655 35.0192 9.74667 34.9093C9.63678 34.7994 9.57505 34.6504 9.57505 34.495V17.7969C9.57505 17.6415 9.63678 17.4924 9.74667 17.3826C9.85655 17.2727 10.0056 17.2109 10.161 17.2109C10.3164 17.2109 10.4654 17.2727 10.5753 17.3826C10.6852 17.4924 10.7469 17.6415 10.7469 17.7969V34.4949C10.7469 34.5719 10.7318 34.6481 10.7023 34.7192C10.6729 34.7903 10.6297 34.8549 10.5753 34.9093C10.5209 34.9637 10.4563 35.0069 10.3852 35.0363C10.3141 35.0658 10.2379 35.0809 10.161 35.0809ZM12.0269 35.0809C11.8715 35.0809 11.7225 35.0192 11.6126 34.9093C11.5027 34.7994 11.441 34.6504 11.441 34.495V17.7969C11.441 17.6415 11.5027 17.4924 11.6126 17.3826C11.7225 17.2727 11.8715 17.2109 12.0269 17.2109C12.1823 17.2109 12.3314 17.2727 12.4412 17.3826C12.5511 17.4924 12.6129 17.6415 12.6129 17.7969V34.4949C12.6129 34.5719 12.5977 34.6481 12.5683 34.7192C12.5388 34.7903 12.4957 34.8549 12.4413 34.9093C12.3869 34.9637 12.3223 35.0069 12.2512 35.0363C12.1801 35.0658 12.1039 35.0809 12.0269 35.0809Z" fill="#FFC502"/>
<path d="M20.5857 7.49953V1.35547C20.5857 1.20007 20.524 1.05103 20.4141 0.941148C20.3042 0.831264 20.1552 0.769531 19.9998 0.769531C19.8444 0.769531 19.6953 0.831264 19.5854 0.941148C19.4756 1.05103 19.4138 1.20007 19.4138 1.35547V7.49953H20.5857Z" fill="#C5CCD3"/>
<path d="M23.3926 10.1564V7.43336C23.3926 7.21438 23.2133 7.03516 22.9941 7.03516H17.0057C16.7866 7.03516 16.6072 7.21438 16.6072 7.43336V10.1564H23.3926Z" fill="#E6E9ED"/>
<path d="M18.2465 10.1564V7.43336C18.2465 7.21438 18.4258 7.03516 18.645 7.03516H17.0057C16.7866 7.03516 16.6072 7.21438 16.6072 7.43336V10.1564H18.2465Z" fill="black"/>
<path d="M24.5798 12.4868V10.1209C24.5798 9.90187 24.4005 9.72266 24.1813 9.72266H15.8182C15.599 9.72266 15.4197 9.90187 15.4197 10.1209V12.4868H24.5798Z" fill="#C5CCD3"/>
<path d="M17.9276 12.4868V10.1209C17.9276 9.90187 18.1069 9.72266 18.3261 9.72266H15.8182C15.599 9.72266 15.4197 9.90187 15.4197 10.1209V12.4868H17.9276Z" fill="black"/>
<path d="M25.9372 37.8022C25.9372 38.0212 25.7579 38.2004 25.5387 38.2004H14.4613C14.242 38.2004 14.0627 38.0212 14.0627 37.8022V12.492C14.0627 12.273 14.242 12.0938 14.4613 12.0938H25.5387C25.7579 12.0938 25.9372 12.273 25.9372 12.492V37.8022Z" fill="#E6E9ED"/>
<path d="M15.6968 37.8022V12.492C15.6968 12.273 15.8761 12.0938 16.0953 12.0938H14.4613C14.242 12.0938 14.0627 12.273 14.0627 12.492V37.8022C14.0627 38.0212 14.242 38.2004 14.4613 38.2004H16.0953C15.8761 38.2004 15.6968 38.0212 15.6968 37.8022Z" fill="black"/>
<path d="M5.9624 36.4764C7.66672 36.4764 9.04834 35.0957 9.04834 33.3925C9.04834 31.6893 7.66672 30.3086 5.9624 30.3086C4.25809 30.3086 2.87646 31.6893 2.87646 33.3925C2.87646 35.0957 4.25809 36.4764 5.9624 36.4764Z" fill="#89C947"/>
<path d="M5.96265 36.0133C5.76218 36.0133 5.56647 35.9935 5.37671 35.957V39.0602H6.54858V35.957C6.35882 35.9935 6.16304 36.0133 5.96265 36.0133Z" fill="#775436"/>
<path d="M4.70601 33.3925C4.70601 32.0076 5.6196 30.8359 6.87733 30.4464C6.58109 30.3548 6.27273 30.3083 5.96265 30.3086C4.25827 30.3086 2.87671 31.6893 2.87671 33.3925C2.87671 35.0956 4.25827 36.4764 5.96265 36.4764C6.28116 36.4764 6.58827 36.4281 6.87733 36.3386C5.6196 35.9491 4.70601 34.7774 4.70601 33.3925Z" fill="black"/>
<path d="M33.9099 36.0133C33.7095 36.0133 33.5137 35.9935 33.324 35.957V39.0602H34.4958V35.957C34.3061 35.9935 34.1103 36.0133 33.9099 36.0133Z" fill="#775436"/>
<path d="M33.9102 36.4764C35.6145 36.4764 36.9961 35.0957 36.9961 33.3925C36.9961 31.6893 35.6145 30.3086 33.9102 30.3086C32.2058 30.3086 30.8242 31.6893 30.8242 33.3925C30.8242 35.0957 32.2058 36.4764 33.9102 36.4764Z" fill="#89C947"/>
<path d="M32.6836 33.3926C32.6836 32.0133 33.5899 30.8456 34.8398 30.4513C34.5391 30.3565 34.2255 30.3084 33.9102 30.3086C32.2058 30.3086 30.8242 31.6893 30.8242 33.3925C30.8242 35.0956 32.2058 36.4764 33.9102 36.4764C34.2342 36.4764 34.5465 36.4262 34.8398 36.3337C33.5899 35.9395 32.6836 34.7719 32.6836 33.3926Z" fill="black"/>
<path d="M15.759 31.983C15.6036 31.983 15.4546 32.0447 15.3447 32.1546C15.2348 32.2645 15.1731 32.4135 15.1731 32.5689V33.3954C15.1731 33.5508 15.2348 33.6998 15.3447 33.8097C15.4546 33.9196 15.6036 33.9813 15.759 33.9813C15.9144 33.9813 16.0635 33.9196 16.1734 33.8097C16.2832 33.6998 16.345 33.5508 16.345 33.3954V32.5689C16.345 32.4135 16.2832 32.2645 16.1734 32.1546C16.0635 32.0447 15.9144 31.983 15.759 31.983ZM24.2408 31.983C24.0854 31.983 23.9363 32.0447 23.8264 32.1546C23.7165 32.2645 23.6548 32.4135 23.6548 32.5689V33.3954C23.6548 33.5508 23.7165 33.6998 23.8264 33.8097C23.9363 33.9196 24.0854 33.9813 24.2408 33.9813C24.3962 33.9813 24.5452 33.9196 24.6551 33.8097C24.765 33.6998 24.8267 33.5508 24.8267 33.3954V32.5689C24.8267 32.4135 24.765 32.2645 24.6551 32.1546C24.5452 32.0447 24.3962 31.983 24.2408 31.983ZM15.759 13.3672C15.6036 13.3672 15.4546 13.4289 15.3447 13.5388C15.2348 13.6487 15.1731 13.7977 15.1731 13.9531V14.7795C15.1731 14.9349 15.2348 15.084 15.3447 15.1939C15.4546 15.3037 15.6036 15.3655 15.759 15.3655C15.9144 15.3655 16.0635 15.3037 16.1734 15.1939C16.2832 15.084 16.345 14.9349 16.345 14.7795V13.9531C16.345 13.7977 16.2832 13.6487 16.1734 13.5388C16.0635 13.4289 15.9144 13.3672 15.759 13.3672ZM17.4554 13.3672C17.3 13.3672 17.1509 13.4289 17.041 13.5388C16.9312 13.6487 16.8694 13.7977 16.8694 13.9531V14.7795C16.8694 14.9349 16.9312 15.084 17.041 15.1939C17.1509 15.3037 17.3 15.3655 17.4554 15.3655C17.6108 15.3655 17.7598 15.3037 17.8697 15.1939C17.9796 15.084 18.0413 14.9349 18.0413 14.7795V13.9531C18.0413 13.7977 17.9796 13.6487 17.8697 13.5388C17.7598 13.4289 17.6108 13.3672 17.4554 13.3672ZM19.1517 13.3672C18.9963 13.3672 18.8473 13.4289 18.7374 13.5388C18.6275 13.6487 18.5658 13.7977 18.5658 13.9531V14.7795C18.5658 14.9349 18.6275 15.084 18.7374 15.1939C18.8473 15.3037 18.9963 15.3655 19.1517 15.3655C19.3071 15.3655 19.4561 15.3037 19.566 15.1939C19.6759 15.084 19.7376 14.9349 19.7376 14.7795V13.9531C19.7376 13.7977 19.6759 13.6487 19.566 13.5388C19.4561 13.4289 19.3071 13.3672 19.1517 13.3672ZM20.8481 13.3672C20.6927 13.3672 20.5437 13.4289 20.4338 13.5388C20.3239 13.6487 20.2622 13.7977 20.2622 13.9531V14.7795C20.2622 14.9349 20.3239 15.084 20.4338 15.1939C20.5437 15.3037 20.6927 15.3655 20.8481 15.3655C21.0035 15.3655 21.1525 15.3037 21.2624 15.1939C21.3723 15.084 21.434 14.9349 21.434 14.7795V13.9531C21.434 13.7977 21.3723 13.6487 21.2624 13.5388C21.1525 13.4289 21.0035 13.3672 20.8481 13.3672ZM22.5444 13.3672C22.389 13.3672 22.24 13.4289 22.1301 13.5388C22.0202 13.6487 21.9585 13.7977 21.9585 13.9531V14.7795C21.9585 14.9349 22.0202 15.084 22.1301 15.1939C22.24 15.3037 22.389 15.3655 22.5444 15.3655C22.6998 15.3655 22.8489 15.3037 22.9587 15.1939C23.0686 15.084 23.1304 14.9349 23.1304 14.7795V13.9531C23.1304 13.7977 23.0686 13.6487 22.9587 13.5388C22.8489 13.4289 22.6998 13.3672 22.5444 13.3672ZM24.2408 13.3672C24.0854 13.3672 23.9363 13.4289 23.8264 13.5388C23.7165 13.6487 23.6548 13.7977 23.6548 13.9531V14.7795C23.6548 14.9349 23.7165 15.084 23.8264 15.1939C23.9363 15.3037 24.0854 15.3655 24.2408 15.3655C24.3962 15.3655 24.5452 15.3037 24.6551 15.1939C24.765 15.084 24.8267 14.9349 24.8267 14.7795V13.9531C24.8267 13.7977 24.765 13.6487 24.6551 13.5388C24.5452 13.4289 24.3962 13.3672 24.2408 13.3672ZM15.759 16.0266C15.6036 16.0266 15.4546 16.0884 15.3447 16.1983C15.2348 16.3081 15.1731 16.4572 15.1731 16.6126V17.439C15.1731 17.5944 15.2348 17.7434 15.3447 17.8533C15.4546 17.9632 15.6036 18.0249 15.759 18.0249C15.9144 18.0249 16.0635 17.9632 16.1734 17.8533C16.2832 17.7434 16.345 17.5944 16.345 17.439V16.6126C16.345 16.4572 16.2832 16.3081 16.1734 16.1983C16.0635 16.0884 15.9144 16.0266 15.759 16.0266ZM17.4554 16.0266C17.3 16.0266 17.1509 16.0884 17.041 16.1983C16.9312 16.3081 16.8694 16.4572 16.8694 16.6126V17.439C16.8694 17.5944 16.9312 17.7434 17.041 17.8533C17.1509 17.9632 17.3 18.0249 17.4554 18.0249C17.6108 18.0249 17.7598 17.9632 17.8697 17.8533C17.9796 17.7434 18.0413 17.5944 18.0413 17.439V16.6126C18.0413 16.4572 17.9796 16.3081 17.8697 16.1983C17.7598 16.0884 17.6108 16.0266 17.4554 16.0266ZM19.1517 16.0266C18.9963 16.0266 18.8473 16.0884 18.7374 16.1983C18.6275 16.3081 18.5658 16.4572 18.5658 16.6126V17.439C18.5658 17.5944 18.6275 17.7434 18.7374 17.8533C18.8473 17.9632 18.9963 18.0249 19.1517 18.0249C19.3071 18.0249 19.4561 17.9632 19.566 17.8533C19.6759 17.7434 19.7376 17.5944 19.7376 17.439V16.6126C19.7376 16.4572 19.6759 16.3081 19.566 16.1983C19.4561 16.0884 19.3071 16.0266 19.1517 16.0266ZM20.8481 16.0266C20.6927 16.0266 20.5437 16.0884 20.4338 16.1983C20.3239 16.3081 20.2622 16.4572 20.2622 16.6126V17.439C20.2622 17.5944 20.3239 17.7434 20.4338 17.8533C20.5437 17.9632 20.6927 18.0249 20.8481 18.0249C21.0035 18.0249 21.1525 17.9632 21.2624 17.8533C21.3723 17.7434 21.434 17.5944 21.434 17.439V16.6126C21.434 16.4572 21.3723 16.3081 21.2624 16.1983C21.1525 16.0884 21.0035 16.0266 20.8481 16.0266ZM22.5444 16.0266C22.389 16.0266 22.24 16.0884 22.1301 16.1983C22.0202 16.3081 21.9585 16.4572 21.9585 16.6126V17.439C21.9585 17.5944 22.0202 17.7434 22.1301 17.8533C22.24 17.9632 22.389 18.0249 22.5444 18.0249C22.6998 18.0249 22.8489 17.9632 22.9587 17.8533C23.0686 17.7434 23.1304 17.5944 23.1304 17.439V16.6126C23.1304 16.4572 23.0686 16.3081 22.9587 16.1983C22.8489 16.0884 22.6998 16.0266 22.5444 16.0266ZM24.2408 16.0266C24.0854 16.0266 23.9363 16.0884 23.8264 16.1983C23.7165 16.3081 23.6548 16.4572 23.6548 16.6126V17.439C23.6548 17.5944 23.7165 17.7434 23.8264 17.8533C23.9363 17.9632 24.0854 18.0249 24.2408 18.0249C24.3962 18.0249 24.5452 17.9632 24.6551 17.8533C24.765 17.7434 24.8267 17.5944 24.8267 17.439V16.6126C24.8267 16.4572 24.765 16.3081 24.6551 16.1983C24.5452 16.0884 24.3962 16.0266 24.2408 16.0266ZM15.759 18.686C15.6036 18.686 15.4546 18.7477 15.3447 18.8576C15.2348 18.9675 15.1731 19.1166 15.1731 19.272V20.0984C15.1731 20.2538 15.2348 20.4028 15.3447 20.5127C15.4546 20.6226 15.6036 20.6843 15.759 20.6843C15.9144 20.6843 16.0635 20.6226 16.1734 20.5127C16.2832 20.4028 16.345 20.2538 16.345 20.0984V19.272C16.345 19.1166 16.2832 18.9675 16.1734 18.8576C16.0635 18.7477 15.9144 18.686 15.759 18.686ZM17.4554 18.686C17.3 18.686 17.1509 18.7477 17.041 18.8576C16.9312 18.9675 16.8694 19.1166 16.8694 19.272V20.0984C16.8694 20.2538 16.9312 20.4028 17.041 20.5127C17.1509 20.6226 17.3 20.6843 17.4554 20.6843C17.6108 20.6843 17.7598 20.6226 17.8697 20.5127C17.9796 20.4028 18.0413 20.2538 18.0413 20.0984V19.272C18.0413 19.1166 17.9796 18.9675 17.8697 18.8576C17.7598 18.7477 17.6108 18.686 17.4554 18.686ZM19.1517 18.686C18.9963 18.686 18.8473 18.7477 18.7374 18.8576C18.6275 18.9675 18.5658 19.1166 18.5658 19.272V20.0984C18.5658 20.2538 18.6275 20.4028 18.7374 20.5127C18.8473 20.6226 18.9963 20.6843 19.1517 20.6843C19.3071 20.6843 19.4561 20.6226 19.566 20.5127C19.6759 20.4028 19.7376 20.2538 19.7376 20.0984V19.272C19.7376 19.1166 19.6759 18.9675 19.566 18.8576C19.4561 18.7477 19.3071 18.686 19.1517 18.686ZM20.8481 18.686C20.6927 18.686 20.5437 18.7477 20.4338 18.8576C20.3239 18.9675 20.2622 19.1166 20.2622 19.272V20.0984C20.2622 20.2538 20.3239 20.4028 20.4338 20.5127C20.5437 20.6226 20.6927 20.6843 20.8481 20.6843C21.0035 20.6843 21.1525 20.6226 21.2624 20.5127C21.3723 20.4028 21.434 20.2538 21.434 20.0984V19.272C21.434 19.1166 21.3723 18.9675 21.2624 18.8576C21.1525 18.7477 21.0035 18.686 20.8481 18.686ZM22.5444 18.686C22.389 18.686 22.24 18.7477 22.1301 18.8576C22.0202 18.9675 21.9585 19.1166 21.9585 19.272V20.0984C21.9585 20.2538 22.0202 20.4028 22.1301 20.5127C22.24 20.6226 22.389 20.6843 22.5444 20.6843C22.6998 20.6843 22.8489 20.6226 22.9587 20.5127C23.0686 20.4028 23.1304 20.2538 23.1304 20.0984V19.272C23.1304 19.1166 23.0686 18.9675 22.9587 18.8576C22.8489 18.7477 22.6998 18.686 22.5444 18.686ZM24.2408 18.686C24.0854 18.686 23.9363 18.7477 23.8264 18.8576C23.7165 18.9675 23.6548 19.1166 23.6548 19.272V20.0984C23.6548 20.2538 23.7165 20.4028 23.8264 20.5127C23.9363 20.6226 24.0854 20.6843 24.2408 20.6843C24.3962 20.6843 24.5452 20.6226 24.6551 20.5127C24.765 20.4028 24.8267 20.2538 24.8267 20.0984V19.272C24.8267 19.1166 24.765 18.9675 24.6551 18.8576C24.5452 18.7477 24.3962 18.686 24.2408 18.686ZM15.759 21.3454C15.6036 21.3454 15.4546 21.4071 15.3447 21.517C15.2348 21.6269 15.1731 21.7759 15.1731 21.9313V22.7578C15.1731 22.9132 15.2348 23.0622 15.3447 23.1721C15.4546 23.282 15.6036 23.3438 15.759 23.3438C15.9144 23.3438 16.0635 23.282 16.1734 23.1721C16.2832 23.0622 16.345 22.9132 16.345 22.7578V21.9313C16.345 21.7759 16.2832 21.6269 16.1734 21.517C16.0635 21.4071 15.9144 21.3454 15.759 21.3454ZM17.4554 21.3454C17.3 21.3454 17.1509 21.4071 17.041 21.517C16.9312 21.6269 16.8694 21.7759 16.8694 21.9313V22.7578C16.8694 22.9132 16.9312 23.0622 17.041 23.1721C17.1509 23.282 17.3 23.3438 17.4554 23.3438C17.6108 23.3438 17.7598 23.282 17.8697 23.1721C17.9796 23.0622 18.0413 22.9132 18.0413 22.7578V21.9313C18.0413 21.7759 17.9796 21.6269 17.8697 21.517C17.7598 21.4071 17.6108 21.3454 17.4554 21.3454ZM19.1517 21.3454C18.9963 21.3454 18.8473 21.4071 18.7374 21.517C18.6275 21.6269 18.5658 21.7759 18.5658 21.9313V22.7578C18.5658 22.9132 18.6275 23.0622 18.7374 23.1721C18.8473 23.282 18.9963 23.3438 19.1517 23.3438C19.3071 23.3438 19.4561 23.282 19.566 23.1721C19.6759 23.0622 19.7376 22.9132 19.7376 22.7578V21.9313C19.7376 21.7759 19.6759 21.6269 19.566 21.517C19.4561 21.4071 19.3071 21.3454 19.1517 21.3454ZM20.8481 21.3454C20.6927 21.3454 20.5437 21.4071 20.4338 21.517C20.3239 21.6269 20.2622 21.7759 20.2622 21.9313V22.7578C20.2622 22.9132 20.3239 23.0622 20.4338 23.1721C20.5437 23.282 20.6927 23.3438 20.8481 23.3438C21.0035 23.3438 21.1525 23.282 21.2624 23.1721C21.3723 23.0622 21.434 22.9132 21.434 22.7578V21.9313C21.434 21.7759 21.3723 21.6269 21.2624 21.517C21.1525 21.4071 21.0035 21.3454 20.8481 21.3454ZM22.5444 21.3454C22.389 21.3454 22.24 21.4071 22.1301 21.517C22.0202 21.6269 21.9585 21.7759 21.9585 21.9313V22.7578C21.9585 22.9132 22.0202 23.0622 22.1301 23.1721C22.24 23.282 22.389 23.3438 22.5444 23.3438C22.6998 23.3438 22.8489 23.282 22.9587 23.1721C23.0686 23.0622 23.1304 22.9132 23.1304 22.7578V21.9313C23.1304 21.7759 23.0686 21.6269 22.9587 21.517C22.8489 21.4071 22.6998 21.3454 22.5444 21.3454ZM24.2408 21.3454C24.0854 21.3454 23.9363 21.4071 23.8264 21.517C23.7165 21.6269 23.6548 21.7759 23.6548 21.9313V22.7578C23.6548 22.9132 23.7165 23.0622 23.8264 23.1721C23.9363 23.282 24.0854 23.3438 24.2408 23.3438C24.3962 23.3438 24.5452 23.282 24.6551 23.1721C24.765 23.0622 24.8267 22.9132 24.8267 22.7578V21.9313C24.8267 21.7759 24.765 21.6269 24.6551 21.517C24.5452 21.4071 24.3962 21.3454 24.2408 21.3454ZM15.759 24.0048C15.6036 24.0048 15.4546 24.0666 15.3447 24.1765C15.2348 24.2863 15.1731 24.4354 15.1731 24.5908V25.4172C15.1731 25.5726 15.2348 25.7216 15.3447 25.8315C15.4546 25.9414 15.6036 26.0031 15.759 26.0031C15.9144 26.0031 16.0635 25.9414 16.1734 25.8315C16.2832 25.7216 16.345 25.5726 16.345 25.4172V24.5908C16.345 24.4354 16.2832 24.2863 16.1734 24.1765C16.0635 24.0666 15.9144 24.0048 15.759 24.0048ZM17.4554 24.0048C17.3 24.0048 17.1509 24.0666 17.041 24.1765C16.9312 24.2863 16.8694 24.4354 16.8694 24.5908V25.4172C16.8694 25.5726 16.9312 25.7216 17.041 25.8315C17.1509 25.9414 17.3 26.0031 17.4554 26.0031C17.6108 26.0031 17.7598 25.9414 17.8697 25.8315C17.9796 25.7216 18.0413 25.5726 18.0413 25.4172V24.5908C18.0413 24.4354 17.9796 24.2863 17.8697 24.1765C17.7598 24.0666 17.6108 24.0048 17.4554 24.0048ZM19.1517 24.0048C18.9963 24.0048 18.8473 24.0666 18.7374 24.1765C18.6275 24.2863 18.5658 24.4354 18.5658 24.5908V25.4172C18.5658 25.5726 18.6275 25.7216 18.7374 25.8315C18.8473 25.9414 18.9963 26.0031 19.1517 26.0031C19.3071 26.0031 19.4561 25.9414 19.566 25.8315C19.6759 25.7216 19.7376 25.5726 19.7376 25.4172V24.5908C19.7376 24.4354 19.6759 24.2863 19.566 24.1765C19.4561 24.0666 19.3071 24.0048 19.1517 24.0048ZM20.8481 24.0048C20.6927 24.0048 20.5437 24.0666 20.4338 24.1765C20.3239 24.2863 20.2622 24.4354 20.2622 24.5908V25.4172C20.2622 25.5726 20.3239 25.7216 20.4338 25.8315C20.5437 25.9414 20.6927 26.0031 20.8481 26.0031C21.0035 26.0031 21.1525 25.9414 21.2624 25.8315C21.3723 25.7216 21.434 25.5726 21.434 25.4172V24.5908C21.434 24.4354 21.3723 24.2863 21.2624 24.1765C21.1525 24.0666 21.0035 24.0048 20.8481 24.0048ZM22.5444 24.0048C22.389 24.0048 22.24 24.0666 22.1301 24.1765C22.0202 24.2863 21.9585 24.4354 21.9585 24.5908V25.4172C21.9585 25.5726 22.0202 25.7216 22.1301 25.8315C22.24 25.9414 22.389 26.0031 22.5444 26.0031C22.6998 26.0031 22.8489 25.9414 22.9587 25.8315C23.0686 25.7216 23.1304 25.5726 23.1304 25.4172V24.5908C23.1304 24.4354 23.0686 24.2863 22.9587 24.1765C22.8489 24.0666 22.6998 24.0048 22.5444 24.0048ZM24.2408 24.0048C24.0854 24.0048 23.9363 24.0666 23.8264 24.1765C23.7165 24.2863 23.6548 24.4354 23.6548 24.5908V25.4172C23.6548 25.5726 23.7165 25.7216 23.8264 25.8315C23.9363 25.9414 24.0854 26.0031 24.2408 26.0031C24.3962 26.0031 24.5452 25.9414 24.6551 25.8315C24.765 25.7216 24.8267 25.5726 24.8267 25.4172V24.5908C24.8267 24.4354 24.765 24.2863 24.6551 24.1765C24.5452 24.0666 24.3962 24.0048 24.2408 24.0048ZM15.759 26.6642C15.6036 26.6642 15.4546 26.726 15.3447 26.8358C15.2348 26.9457 15.1731 27.0948 15.1731 27.2502V28.0766C15.1731 28.232 15.2348 28.3811 15.3447 28.491C15.4546 28.6008 15.6036 28.6626 15.759 28.6626C15.9144 28.6626 16.0635 28.6008 16.1734 28.491C16.2832 28.3811 16.345 28.232 16.345 28.0766V27.2502C16.345 27.0948 16.2832 26.9457 16.1734 26.8358C16.0635 26.726 15.9144 26.6642 15.759 26.6642ZM17.4554 26.6642C17.3 26.6642 17.1509 26.726 17.041 26.8358C16.9312 26.9457 16.8694 27.0948 16.8694 27.2502V28.0766C16.8694 28.232 16.9312 28.3811 17.041 28.491C17.1509 28.6008 17.3 28.6626 17.4554 28.6626C17.6108 28.6626 17.7598 28.6008 17.8697 28.491C17.9796 28.3811 18.0413 28.232 18.0413 28.0766V27.2502C18.0413 27.0948 17.9796 26.9457 17.8697 26.8358C17.7598 26.726 17.6108 26.6642 17.4554 26.6642ZM19.1517 26.6642C18.9963 26.6642 18.8473 26.726 18.7374 26.8358C18.6275 26.9457 18.5658 27.0948 18.5658 27.2502V28.0766C18.5658 28.232 18.6275 28.3811 18.7374 28.491C18.8473 28.6008 18.9963 28.6626 19.1517 28.6626C19.3071 28.6626 19.4561 28.6008 19.566 28.491C19.6759 28.3811 19.7376 28.232 19.7376 28.0766V27.2502C19.7376 27.0948 19.6759 26.9457 19.566 26.8358C19.4561 26.726 19.3071 26.6642 19.1517 26.6642ZM20.8481 26.6642C20.6927 26.6642 20.5437 26.726 20.4338 26.8358C20.3239 26.9457 20.2622 27.0948 20.2622 27.2502V28.0766C20.2622 28.232 20.3239 28.3811 20.4338 28.491C20.5437 28.6008 20.6927 28.6626 20.8481 28.6626C21.0035 28.6626 21.1525 28.6008 21.2624 28.491C21.3723 28.3811 21.434 28.232 21.434 28.0766V27.2502C21.434 27.0948 21.3723 26.9457 21.2624 26.8358C21.1525 26.726 21.0035 26.6642 20.8481 26.6642ZM22.5444 26.6642C22.389 26.6642 22.24 26.726 22.1301 26.8358C22.0202 26.9457 21.9585 27.0948 21.9585 27.2502V28.0766C21.9585 28.232 22.0202 28.3811 22.1301 28.491C22.24 28.6008 22.389 28.6626 22.5444 28.6626C22.6998 28.6626 22.8489 28.6008 22.9587 28.491C23.0686 28.3811 23.1304 28.232 23.1304 28.0766V27.2502C23.1304 27.0948 23.0686 26.9457 22.9587 26.8358C22.8489 26.726 22.6998 26.6642 22.5444 26.6642ZM24.2408 26.6642C24.0854 26.6642 23.9363 26.726 23.8264 26.8358C23.7165 26.9457 23.6548 27.0948 23.6548 27.2502V28.0766C23.6548 28.232 23.7165 28.3811 23.8264 28.491C23.9363 28.6008 24.0854 28.6626 24.2408 28.6626C24.3962 28.6626 24.5452 28.6008 24.6551 28.491C24.765 28.3811 24.8267 28.232 24.8267 28.0766V27.2502C24.8267 27.0948 24.765 26.9457 24.6551 26.8358C24.5452 26.726 24.3962 26.6642 24.2408 26.6642ZM15.759 29.3236C15.6036 29.3236 15.4546 29.3853 15.3447 29.4952C15.2348 29.6051 15.1731 29.7541 15.1731 29.9095V30.736C15.1731 30.8914 15.2348 31.0405 15.3447 31.1503C15.4546 31.2602 15.6036 31.322 15.759 31.322C15.9144 31.322 16.0635 31.2602 16.1734 31.1503C16.2832 31.0405 16.345 30.8914 16.345 30.736V29.9095C16.345 29.7541 16.2832 29.6051 16.1734 29.4952C16.0635 29.3853 15.9144 29.3236 15.759 29.3236ZM24.2408 29.3236C24.0854 29.3236 23.9363 29.3853 23.8264 29.4952C23.7165 29.6051 23.6548 29.7541 23.6548 29.9095V30.736C23.6548 30.8914 23.7165 31.0405 23.8264 31.1503C23.9363 31.2602 24.0854 31.322 24.2408 31.322C24.3962 31.322 24.5452 31.2602 24.6551 31.1503C24.765 31.0405 24.8267 30.8914 24.8267 30.736V29.9095C24.8267 29.7541 24.765 29.6051 24.6551 29.4952C24.5452 29.3853 24.3962 29.3236 24.2408 29.3236Z" fill="#9EA7AF"/>
<path d="M22.8992 37.6402C22.8992 37.8856 22.6982 38.0865 22.4526 38.0865H17.547C17.3013 38.0865 17.1003 37.8856 17.1003 37.6402V29.8877C17.1003 29.6423 17.3013 29.4414 17.547 29.4414H22.4526C22.6982 29.4414 22.8992 29.6423 22.8992 29.8877V37.6402Z" fill="#7FDEE9"/>
<path d="M19.4138 29.4414H20.5857V37.4055H19.4138V29.4414Z" fill="#9EA7AF"/>
<path d="M27.5061 39.0141C27.5061 39.2331 27.3268 39.4123 27.1076 39.4123H12.8919C12.6727 39.4123 12.4934 39.2331 12.4934 39.0141V37.8045C12.4934 37.5854 12.6727 37.4062 12.8919 37.4062H27.1076C27.3268 37.4062 27.5061 37.5854 27.5061 37.8045V39.0141Z" fill="#C5CCD3"/>
<path d="M14.9788 39.0141V37.8045C14.9788 37.5854 15.1582 37.4062 15.3773 37.4062H12.8919C12.6727 37.4062 12.4934 37.5854 12.4934 37.8045V39.0141C12.4934 39.2331 12.6727 39.4123 12.8919 39.4123H15.3773C15.1582 39.4123 14.9788 39.2331 14.9788 39.0141Z" fill="black"/>
<path d="M37.3875 40H2.6123C2.4569 40 2.30787 39.9383 2.19798 39.8284C2.0881 39.7185 2.02637 39.5695 2.02637 39.4141C2.02637 39.2587 2.0881 39.1096 2.19798 38.9997C2.30787 38.8899 2.4569 38.8281 2.6123 38.8281H37.3875C37.5429 38.8281 37.6919 38.8899 37.8018 38.9997C37.9117 39.1096 37.9734 39.2587 37.9734 39.4141C37.9734 39.5695 37.9117 39.7185 37.8018 39.8284C37.6919 39.9383 37.5429 40 37.3875 40Z" fill="#9EA7AF"/>
</svg>
