<svg width="198" height="127" viewBox="0 0 198 127" fill="none" xmlns="http://www.w3.org/2000/svg">
<path d="M5.99044 126.64C6.34383 127.064 6.97437 127.122 7.39879 126.768L14.3151 121.01C14.7395 120.656 14.7971 120.026 14.4437 119.601C14.0903 119.177 13.4597 119.119 13.0353 119.473L6.88751 124.592L1.76848 118.444C1.41509 118.019 0.784544 117.962 0.360126 118.315C-0.064291 118.669 -0.121866 119.299 0.231529 119.724L5.99044 126.64ZM6.75891 126L7.75477 126.091C7.84651 125.086 7.94939 124.089 8.06322 123.099L7.06976 122.985L6.07631 122.871C5.96069 123.876 5.85621 124.889 5.76305 125.909L6.75891 126ZM7.88934 117.087L8.87625 117.249C9.20057 115.264 9.57019 113.311 9.98356 111.388L9.0059 111.178L8.02825 110.968C7.60786 112.923 7.23208 114.909 6.90243 116.926L7.88934 117.087ZM10.4106 105.368L11.3763 105.628C11.8932 103.707 12.455 101.819 13.0602 99.9624L12.1095 99.6525L11.1587 99.3426C10.5427 101.232 9.97092 103.154 9.445 105.108L10.4106 105.368ZM14.1224 93.9956L15.0552 94.356C15.7728 92.4987 16.5351 90.6752 17.3404 88.8848L16.4284 88.4746L15.5163 88.0644C14.6964 89.8875 13.9202 91.7443 13.1896 93.6352L14.1224 93.9956ZM19.0249 83.0947L19.9134 83.5535C20.8255 81.7872 21.7807 80.0551 22.777 78.3567L21.9144 77.8507L21.0519 77.3447C20.0376 79.0738 19.065 80.8374 18.1363 82.6359L19.0249 83.0947ZM25.0808 72.7688L25.9152 73.3199C27.0078 71.6659 28.1406 70.0459 29.3117 68.4594L28.5072 67.8656L27.7027 67.2717C26.5112 68.8857 25.3584 70.5342 24.2464 72.2176L25.0808 72.7688ZM32.1812 63.1455L32.9546 63.7795C34.2108 62.2473 35.5038 60.7485 36.8316 59.2826L36.0904 58.6113L35.3493 57.94C33.9999 59.4297 32.6853 60.9534 31.4079 62.5115L32.1812 63.1455ZM40.2129 54.2732L40.9213 54.979C42.3183 53.5767 43.748 52.207 45.2083 50.8692L44.5328 50.1318L43.8573 49.3945C42.3751 50.7524 40.9234 52.1432 39.5045 53.5674L40.2129 54.2732ZM49.0348 46.1862L49.6774 46.9524C51.1938 45.6804 52.7386 44.4398 54.3096 43.2299L53.6994 42.4376L53.0892 41.6454C51.4967 42.8718 49.9303 44.1298 48.3921 45.42L49.0348 46.1862ZM58.5131 38.8819L59.0913 39.6978C60.7074 38.5525 62.3474 37.4374 64.0093 36.3518L63.4624 35.5146L62.9156 34.6774C61.233 35.7765 59.5721 36.9058 57.9349 38.066L58.5131 38.8819ZM68.5337 32.332L69.05 33.1884C70.747 32.1652 72.4636 31.1708 74.1977 30.2048L73.711 29.3312L73.2244 28.4576C71.4708 29.4345 69.7344 30.4403 68.0173 31.4756L68.5337 32.332ZM78.9876 26.5046L79.4454 27.3936C81.2097 26.4851 82.9893 25.6042 84.7821 24.7506L84.3522 23.8477L83.9224 22.9448C82.1112 23.8072 80.3129 24.6972 78.5298 25.6156L78.9876 26.5046ZM89.7944 21.3561L90.1972 22.2714C92.0159 21.471 93.8459 20.6973 95.6849 19.9499L95.3084 19.0235L94.9319 18.0971C93.0756 18.8515 91.2281 19.6326 89.3916 20.4408L89.7944 21.3561ZM100.886 16.846L101.237 17.7823C103.099 17.0842 104.969 16.412 106.843 15.7651L106.517 14.8198L106.191 13.8745C104.3 14.527 102.414 15.2051 100.535 15.9096L100.886 16.846ZM112.199 12.94L112.501 13.8933C114.402 13.2909 116.306 12.7138 118.21 12.1616L117.932 11.2012L117.653 10.2408C115.733 10.7975 113.814 11.3792 111.897 11.9867L112.199 12.94ZM123.702 9.60299L123.957 10.5698C125.886 10.0604 127.813 9.57586 129.736 9.11569L129.503 8.14315L129.27 7.17061C127.332 7.63436 125.39 8.12268 123.447 8.63616L123.702 9.60299ZM135.337 6.81764L135.548 7.79525C137.506 7.37384 139.458 6.97734 141.4 6.60515L141.212 5.62301L141.024 4.64087C139.067 5.01588 137.1 5.41538 135.127 5.84002L135.337 6.81764ZM147.108 4.56208L147.274 5.5482C149.25 5.21547 151.214 4.90777 153.163 4.62443L153.019 3.63483L152.875 2.64524C150.911 2.93071 148.933 3.24073 146.942 3.57596L147.108 4.56208ZM158.942 2.84192L159.063 3.83452C161.059 3.59031 163.035 3.37179 164.99 3.17818L164.891 2.18305L164.792 1.18792C162.823 1.38304 160.831 1.60326 158.82 1.84933L158.942 2.84192ZM170.866 1.66224L170.941 2.65943C172.956 2.50798 174.943 2.38351 176.898 2.28511L176.848 1.28637L176.798 0.287635C174.826 0.386874 172.823 0.512378 170.791 0.665051L170.866 1.66224ZM182.835 1.06271L182.859 2.06242C184.888 2.01348 186.876 1.99365 188.819 2.00176L188.823 1.00177L188.827 0.00178105C186.865 -0.00641441 184.858 0.0136204 182.81 0.0630002L182.835 1.06271ZM194.81 1.11881L194.775 2.11818C195.767 2.15345 196.744 2.19646 197.706 2.24706L197.759 1.24844L197.811 0.249816C196.838 0.198617 195.849 0.155102 194.846 0.119445L194.81 1.11881Z" fill="#4848FF"/>
</svg>
