<svg width="177" height="332" viewBox="0 0 177 332" fill="none" xmlns="http://www.w3.org/2000/svg">
<path d="M0.189697 171.52L0.0072941 170.536L4.38392e-05 172.502L0.189697 171.52ZM95.7415 330.809C95.912 331.334 96.476 331.622 97.0013 331.451L105.562 328.673C106.087 328.503 106.375 327.939 106.204 327.413C106.034 326.888 105.47 326.6 104.945 326.771L97.3352 329.24L94.866 321.631C94.6955 321.105 94.1314 320.818 93.6061 320.988C93.0808 321.159 92.7931 321.723 92.9636 322.248L95.7415 330.809ZM96.6927 330.5L97.5835 330.954C98.0522 330.035 98.5057 329.119 98.9443 328.204L98.0426 327.772L97.1409 327.339C96.7095 328.239 96.2632 329.141 95.8018 330.046L96.6927 330.5ZM100.483 322.34L101.405 322.727C102.2 320.83 102.931 318.943 103.6 317.067L102.658 316.731L101.716 316.395C101.059 318.237 100.342 320.09 99.5605 321.954L100.483 322.34ZM104.512 311.023L105.471 311.305C106.046 309.343 106.553 307.394 106.995 305.457L106.02 305.235L105.045 305.012C104.612 306.909 104.115 308.819 103.552 310.742L104.512 311.023ZM107.167 299.371L108.154 299.532C108.482 297.513 108.74 295.51 108.93 293.523L107.934 293.428L106.939 293.333C106.753 295.276 106.501 297.236 106.18 299.211L107.167 299.371ZM108.303 287.439L109.303 287.466C109.359 285.427 109.344 283.407 109.261 281.405L108.262 281.446L107.263 281.487C107.344 283.444 107.358 285.418 107.303 287.411L108.303 287.439ZM107.808 275.474L108.802 275.364C108.578 273.345 108.286 271.347 107.928 269.37L106.944 269.548L105.96 269.727C106.31 271.659 106.595 273.611 106.814 275.584L107.808 275.474ZM105.678 263.695L106.648 263.451C106.154 261.487 105.596 259.547 104.977 257.63L104.025 257.937L103.074 258.244C103.679 260.12 104.225 262.018 104.708 263.939L105.678 263.695ZM102.003 252.297L102.933 251.93C102.192 250.051 101.393 248.197 100.54 246.369L99.6338 246.792L98.7277 247.215C99.564 249.007 100.347 250.824 101.073 252.664L102.003 252.297ZM96.9418 241.439L97.8219 240.964C96.8652 239.191 95.8579 237.444 94.8036 235.724L93.9511 236.247L93.0985 236.769C94.1341 238.459 95.1229 240.174 96.0618 241.914L96.9418 241.439ZM90.6851 231.223L91.5091 230.656C90.3686 228.998 89.1849 227.367 87.9614 225.765L87.1666 226.372L86.3718 226.978C87.5757 228.555 88.7399 230.159 89.8611 231.789L90.6851 231.223ZM83.4168 221.696L84.182 221.052C82.8867 219.513 81.5552 218.002 80.191 216.521L79.4555 217.198L78.72 217.876C80.0644 219.335 81.376 220.824 82.6516 222.34L83.4168 221.696ZM75.3008 212.879L76.0066 212.17C74.581 210.75 73.1261 209.36 71.6452 208.001L70.9691 208.738L70.293 209.475C71.7541 210.815 73.1892 212.187 74.595 213.587L75.3008 212.879ZM66.4734 204.774L67.1199 204.011C65.5826 202.709 64.0225 201.438 62.4429 200.201L61.8261 200.988L61.2094 201.775C62.7692 202.997 64.3095 204.252 65.827 205.537L66.4734 204.774ZM57.0386 197.38L57.6255 196.57C55.9915 195.385 54.341 194.235 52.6777 193.12L52.1208 193.951L51.5639 194.781C53.2072 195.883 54.8377 197.019 56.4517 198.189L57.0386 197.38ZM47.0815 190.703L47.6079 189.853C45.8883 188.788 44.1589 187.761 42.4235 186.772L41.9283 187.641L41.4331 188.509C43.1476 189.487 44.8562 190.502 46.5552 191.553L47.0815 190.703ZM36.6676 184.768L37.1306 183.882C35.333 182.942 33.5328 182.044 31.7343 181.189L31.3046 182.092L30.875 182.995C32.6509 183.84 34.4288 184.726 36.2045 185.654L36.6676 184.768ZM25.8439 179.621L26.2383 178.702C24.3663 177.899 22.5005 177.143 20.6456 176.435L20.289 177.369L19.9324 178.303C21.7615 179.001 23.6021 179.747 25.4496 180.54L25.8439 179.621ZM14.6433 175.352L14.9588 174.403C13.0133 173.756 11.0852 173.165 9.18036 172.631L8.91036 173.594L8.64036 174.556C10.5137 175.082 12.4113 175.664 14.3277 176.301L14.6433 175.352ZM3.09594 172.126L3.31421 171.15C2.32749 170.929 1.34892 170.725 0.379351 170.538L0.189697 171.52L4.38392e-05 172.502C0.950005 172.685 1.9095 172.885 2.87768 173.102L3.09594 172.126ZM0.189697 171.52L0.3721 172.503C1.35711 172.32 2.33879 172.134 3.31712 171.943L3.1263 170.962L2.93548 169.98C1.96275 170.169 0.986683 170.355 0.0072941 170.536L0.189697 171.52ZM8.93918 169.78L9.14679 170.758C11.0765 170.349 12.9927 169.925 14.8951 169.487L14.6708 168.513L14.4465 167.538C12.5552 167.973 10.6501 168.395 8.73158 168.802L8.93918 169.78ZM20.4538 167.128L20.6952 168.098C22.6226 167.619 24.5354 167.125 26.4333 166.618L26.1749 165.652L25.9165 164.686C24.0299 165.19 22.1285 165.681 20.2124 166.158L20.4538 167.128ZM31.8474 164.08L32.1229 165.041C34.0451 164.491 35.9512 163.925 37.8413 163.346L37.5484 162.39L37.2555 161.434C35.377 162.01 33.4824 162.571 31.5719 163.119L31.8474 164.08ZM43.1525 160.618L43.4627 161.569C45.3612 160.949 47.2427 160.316 49.1068 159.669L48.779 158.724L48.4511 157.779C46.5987 158.422 44.729 159.051 42.8423 159.667L43.1525 160.618ZM54.3444 156.734L54.6899 157.673C56.5501 156.988 58.3921 156.29 60.2158 155.579L59.8526 154.647L59.4893 153.715C57.6774 154.422 55.8472 155.115 53.9989 155.796L54.3444 156.734ZM65.3675 152.435L65.7488 153.359C67.5739 152.607 69.3795 151.841 71.1655 151.063L70.7662 150.146L70.3669 149.229C68.5929 150.002 66.7992 150.763 64.9862 151.51L65.3675 152.435ZM76.2046 147.712L76.6223 148.621C78.4245 147.792 80.2055 146.951 81.9651 146.098L81.5289 145.199L81.0927 144.299C79.3455 145.146 77.5767 145.981 75.7868 146.804L76.2046 147.712ZM86.8355 142.558L87.2905 143.448C89.0646 142.542 90.8156 141.624 92.543 140.694L92.0691 139.814L91.5952 138.933C89.8804 139.856 88.1421 140.767 86.3806 141.667L86.8355 142.558ZM97.2369 136.96L97.7299 137.83C99.4699 136.844 101.184 135.846 102.873 134.838L102.36 133.98L101.848 133.121C100.172 134.121 98.4708 135.111 96.7438 136.09L97.2369 136.96ZM107.38 130.904L107.912 131.751C109.611 130.683 111.281 129.605 112.923 128.516L112.371 127.683L111.818 126.849C110.19 127.929 108.533 128.998 106.848 130.058L107.38 130.904ZM117.231 124.375L117.804 125.195C119.452 124.043 121.068 122.881 122.653 121.711L122.059 120.906L121.466 120.102C119.895 121.262 118.292 122.413 116.658 123.555L117.231 124.375ZM126.744 117.351L127.359 118.139C128.945 116.901 130.497 115.654 132.013 114.401L131.375 113.63L130.738 112.859C129.237 114.101 127.7 115.336 126.128 116.562L126.744 117.351ZM135.861 109.808L136.521 110.559C138.031 109.233 139.502 107.9 140.933 106.561L140.25 105.831L139.567 105.101C138.151 106.425 136.696 107.744 135.201 109.056L135.861 109.808ZM144.503 101.718L145.211 102.426C146.626 101.01 147.997 99.59 149.322 98.1667L148.59 97.4852L147.859 96.8037C146.55 98.2092 145.195 99.6123 143.796 101.011L144.503 101.718ZM152.561 93.0545L153.319 93.7072C154.627 92.1894 155.882 90.6698 157.085 89.1499L156.301 88.5293L155.517 87.9087C154.332 89.4062 153.094 90.9045 151.804 92.4018L152.561 93.0545ZM159.88 83.7913L160.691 84.3751C161.877 82.7267 162.999 81.08 164.058 79.4374L163.217 78.8957L162.377 78.354C161.337 79.9671 160.234 81.5856 159.068 83.2074L159.88 83.7913ZM166.26 73.8733L167.13 74.3666C168.137 72.5916 169.067 70.8238 169.918 69.0662L169.018 68.6301L168.118 68.1941C167.287 69.9112 166.377 71.6408 165.391 73.38L166.26 73.8733ZM171.411 63.1989L172.34 63.5669C173.094 61.6634 173.751 59.7754 174.31 57.9068L173.352 57.6201L172.394 57.3334C171.852 59.1443 171.214 60.9781 170.481 62.831L171.411 63.1989ZM174.763 51.8982L175.745 52.0872C176.133 50.0711 176.399 48.0832 176.539 46.1288L175.542 46.0572L174.544 45.9856C174.41 47.8568 174.155 49.7663 173.781 51.7092L174.763 51.8982ZM175.566 40.1575L176.563 40.0904C176.426 38.0396 176.134 36.036 175.686 34.0873L174.712 34.3115L173.737 34.5357C174.161 36.3766 174.437 38.2749 174.568 40.2245L175.566 40.1575ZM172.896 28.686L173.817 28.2965C173.03 26.4356 172.077 24.6423 170.956 22.9242L170.119 23.4706L169.281 24.0171C170.337 25.6356 171.234 27.3238 171.975 29.0754L172.896 28.686ZM166.481 18.8224L167.215 18.1425C165.879 16.7024 164.401 15.334 162.778 14.0428L162.155 14.8254L161.533 15.608C163.08 16.8389 164.484 18.1389 165.748 19.5022L166.481 18.8224ZM157.321 11.4797L157.837 10.6232C156.181 9.62511 154.414 8.68977 152.534 7.82047L152.114 8.72811L151.695 9.63574C153.512 10.4761 155.214 11.3776 156.805 12.3362L157.321 11.4797ZM146.614 6.49396L146.948 5.5516C145.122 4.90292 143.208 4.3069 141.207 3.76578L140.946 4.73112L140.685 5.69645C142.639 6.22485 144.503 6.80572 146.279 7.43632L146.614 6.49396ZM135.265 3.39418L135.464 2.41409C133.553 2.02689 131.573 1.6841 129.523 1.38729L129.379 2.37697L129.236 3.36665C131.251 3.65834 133.194 3.99483 135.066 4.37426L135.265 3.39418ZM123.562 1.67866L123.658 0.683289C121.73 0.497226 119.748 0.348253 117.71 0.237491L117.655 1.23602L117.601 2.23454C119.613 2.34385 121.567 2.49076 123.466 2.67403L123.562 1.67866ZM111.754 1.02648L111.772 0.0266275C110.757 0.0089159 109.73 0 108.69 0V1V2C109.718 2 110.734 2.00882 111.737 2.02632L111.754 1.02648Z" fill="#4848FF"/>
</svg>
