<svg width="129" height="134" viewBox="0 0 129 134" fill="none" xmlns="http://www.w3.org/2000/svg">
<path d="M7.39733 133.78C7.82827 134.126 8.45763 134.056 8.80304 133.625L14.4317 126.603C14.7772 126.172 14.7078 125.542 14.2769 125.197C13.8459 124.852 13.2166 124.921 12.8712 125.352L7.86786 131.594L1.6255 126.591C1.19456 126.246 0.565202 126.315 0.219796 126.746C-0.125609 127.177 -0.0562658 127.806 0.374679 128.152L7.39733 133.78ZM8.02274 133L9.01673 132.89C8.90265 131.855 8.80297 130.826 8.71743 129.804L7.72091 129.887L6.72439 129.97C6.81141 131.011 6.91277 132.057 7.02876 133.11L8.02274 133ZM7.3707 123.733L8.37025 123.703C8.30867 121.637 8.30546 119.599 8.35823 117.588L7.35857 117.562L6.35892 117.536C6.30516 119.584 6.30845 121.66 6.37114 123.762L7.3707 123.733ZM7.70065 111.375L8.69708 111.46C8.87153 109.401 9.10538 107.372 9.39589 105.374L8.40629 105.23L7.41669 105.086C7.12045 107.124 6.88204 109.192 6.70422 111.291L7.70065 111.375ZM9.48054 99.1443L10.4596 99.3481C10.8789 97.3338 11.3564 95.3516 11.8892 93.4015L10.9245 93.138L9.95986 92.8744C9.41639 94.8638 8.92924 96.8858 8.50153 98.9405L9.48054 99.1443ZM12.7348 87.232L13.6815 87.5543C14.343 85.6113 15.0598 83.7021 15.8287 81.8266L14.9035 81.4473L13.9782 81.0679C13.1941 82.9805 12.4629 84.9277 11.7882 86.9097L12.7348 87.232ZM17.4182 75.8031L18.3191 76.2372C19.2092 74.3899 20.1501 72.5777 21.1384 70.8004L20.2645 70.3144L19.3905 69.8284C18.3836 71.6392 17.4246 73.486 16.5173 75.3691L17.4182 75.8031ZM23.4225 64.9981L24.2675 65.5329C25.3631 63.8016 26.5037 62.1062 27.6857 60.4466L26.8711 59.8665L26.0566 59.2864C24.854 60.975 23.693 62.7006 22.5775 64.4634L23.4225 64.9981ZM30.5895 54.9271L31.3725 55.5491C32.647 53.9449 33.9598 52.3771 35.3073 50.8457L34.5565 50.1851L33.8058 49.5245C32.4367 51.0805 31.1023 52.6739 29.8065 54.305L30.5895 54.9271ZM38.7518 45.6435L39.47 46.3394C40.8971 44.8665 42.3555 43.4307 43.8413 42.0319L43.1558 41.3038L42.4704 40.5757C40.9628 41.995 39.4826 43.4523 38.0336 44.9477L38.7518 45.6435ZM47.7504 37.166L48.4032 37.9235C49.9593 36.5823 51.5393 35.2791 53.1391 34.0137L52.5188 33.2294L51.8984 32.4451C50.2771 33.7275 48.6754 35.0486 47.0975 36.4085L47.7504 37.166ZM57.4457 29.4928L58.0338 30.3016C59.699 29.0907 61.3804 27.919 63.0735 26.7863L62.5175 25.9552L61.9615 25.124C60.2471 26.2709 58.5443 27.4575 56.8576 28.6841L57.4457 29.4928ZM67.722 22.6155L68.2461 23.4672C70.0048 22.3851 71.7712 21.3442 73.5406 20.3443L73.0487 19.4737L72.5567 18.6031C70.766 19.615 68.9782 20.6685 67.198 21.7638L67.722 22.6155ZM78.4878 16.5306L78.9475 17.4187C80.7883 16.4659 82.6269 15.5574 84.4582 14.6931L84.0313 13.7887L83.6045 12.8844C81.7514 13.759 79.8908 14.6783 78.0282 15.6425L78.4878 16.5306ZM89.6715 11.253L90.0645 12.1726C91.9792 11.3542 93.8793 10.5851 95.7586 9.8653L95.4008 8.93147L95.0431 7.99763C93.1402 8.72658 91.2165 9.50515 89.2784 10.3335L89.6715 11.253ZM101.211 6.83669L101.531 7.78408C103.516 7.11352 105.468 6.50079 107.379 5.94562L107.1 4.98531L106.822 4.025C104.882 4.58835 102.902 5.20974 100.891 5.8893L101.211 6.83669ZM113.099 3.39652L113.331 4.36925C115.398 3.87623 117.401 3.45772 119.327 3.11322L119.151 2.12883L118.975 1.14445C117.009 1.49604 114.969 1.92246 112.867 2.42379L113.099 3.39652ZM125.264 1.25209L125.368 2.24664C126.405 2.13788 127.41 2.05516 128.38 1.99828L128.321 1L128.263 0.00171518C127.26 0.0604945 126.225 0.145797 125.16 0.257547L125.264 1.25209Z" fill="#4848FF"/>
</svg>
