<svg width="40" height="40" viewBox="0 0 40 40" fill="none" xmlns="http://www.w3.org/2000/svg">
<path d="M37.3715 5.59817C37.3364 5.34579 37.2283 5.10918 37.0605 4.91742C36.8927 4.72566 36.6725 4.5871 36.427 4.51878L20.3503 0.0478449C20.1211 -0.0159483 19.8789 -0.0159483 19.6497 0.0478449L3.573 4.51878C3.3275 4.58706 3.1073 4.7256 2.9395 4.91737C2.7717 5.10914 2.6636 5.34578 2.62851 5.59817C2.53527 6.26867 0.408035 22.1111 5.86424 29.9922C11.314 37.864 19.3536 39.8812 19.6931 39.9633C19.8948 40.0121 20.1052 40.0121 20.3069 39.9633C20.6466 39.8812 28.6862 37.864 34.1358 29.9922C39.592 22.1113 37.4648 6.26885 37.3715 5.59817ZM30.3674 14.8471L19.4015 25.8131C19.1463 26.0682 18.8117 26.196 18.4772 26.196C18.1428 26.196 17.8081 26.0684 17.553 25.8131L10.7728 19.0329C10.6514 18.9116 10.5551 18.7675 10.4893 18.6089C10.4236 18.4503 10.3898 18.2803 10.3898 18.1087C10.3898 17.937 10.4236 17.767 10.4893 17.6084C10.5551 17.4498 10.6514 17.3057 10.7728 17.1844L12.1191 15.8382C12.3642 15.5931 12.6967 15.4554 13.0433 15.4554C13.39 15.4554 13.7225 15.5931 13.9676 15.8382L18.4772 20.3478L27.1727 11.6522C27.294 11.5308 27.4381 11.4344 27.5967 11.3687C27.7553 11.303 27.9253 11.2692 28.0969 11.2692C28.2686 11.2692 28.4386 11.303 28.5972 11.3687C28.7558 11.4344 28.8998 11.5308 29.0212 11.6522L30.3674 12.9984C30.4888 13.1198 30.5851 13.2639 30.6508 13.4225C30.7165 13.5811 30.7503 13.7511 30.7503 13.9228C30.7503 14.0945 30.7165 14.2645 30.6508 14.4231C30.5851 14.5817 30.4888 14.7258 30.3674 14.8471Z" fill="#2B7FFF"/>
</svg>
