<svg width="40" height="40" viewBox="0 0 40 40" fill="none" xmlns="http://www.w3.org/2000/svg">
<path d="M33.2683 7.70231C33.2407 7.50035 33.0638 7.38863 32.9179 7.37645C32.7721 7.36426 29.9247 7.32098 29.9247 7.32098C29.9247 7.32098 27.5434 5.00824 27.3081 4.77285C27.0729 4.53746 26.6134 4.60887 26.435 4.66137L25.2384 5.03184C25.1133 4.62543 24.9288 4.12629 24.6658 3.62473C23.8178 2.00723 22.5765 1.15106 21.0761 1.14887H21.071C20.9671 1.14887 20.8634 1.15863 20.7596 1.16809C20.716 1.11476 20.6707 1.06273 20.624 1.01207C19.9708 0.312931 19.132 -0.0276943 18.128 0.00175878C16.1899 0.0573057 14.2607 1.45676 12.696 3.94207C11.5945 5.69129 10.7577 7.88871 10.5197 9.58942C8.29487 10.2784 6.73823 10.7605 6.70456 10.7711C5.58151 11.1235 5.5462 11.1588 5.39893 12.2168C5.28745 13.0179 2.34924 35.7411 2.34924 35.7411L26.9769 39.9999L37.6507 37.3468C37.6507 37.3468 33.2959 7.90426 33.2683 7.70231ZM11.8994 9.16207C12.5653 6.04832 15.1744 1.37699 18.1653 1.29098C18.6203 1.28145 19.0035 1.38129 19.3307 1.59668C18.8073 1.86848 18.301 2.2591 17.826 2.76848C16.5951 4.08895 15.6522 6.13926 15.2762 8.11637L11.8994 9.16207ZM20.8052 6.40441L16.6935 7.67754C17.0914 6.15582 17.8443 4.64074 18.7696 3.64817C19.1139 3.27895 19.5954 2.86691 20.1656 2.63168C20.702 3.74942 20.8181 5.33395 20.8052 6.40441ZM22.0935 6.00551C22.0792 5.02418 21.962 3.65926 21.5049 2.47934C22.9753 2.75793 23.6992 4.42168 24.0048 5.41371L22.0935 6.00551Z" fill="#95BF47"/>
<path d="M32.9179 7.3768C32.7721 7.36461 29.9247 7.32133 29.9247 7.32133C29.9247 7.32133 27.5434 5.00859 27.3082 4.7732C27.2204 4.68539 27.1014 4.64047 26.9775 4.62109L26.9782 40L37.6507 37.3472C37.6507 37.3472 33.296 7.90461 33.2683 7.70266C33.2407 7.5007 33.0638 7.38898 32.9179 7.3768Z" fill="#5E8E3E"/>
<path d="M21.0619 12.8638L19.8221 17.5014C19.8221 17.5014 18.4393 16.8717 16.7998 16.9752C14.396 17.127 14.3705 18.6434 14.3944 19.0234C14.5254 21.0975 19.9818 21.5507 20.2885 26.4087C20.5298 30.2307 18.2612 32.8451 14.9924 33.0515C11.0698 33.2991 8.90991 30.9845 8.90991 30.9845L9.74108 27.4482C9.74108 27.4482 11.9148 29.0882 13.6548 28.9784C14.7913 28.9066 15.1974 27.9822 15.1562 27.3284C14.9853 24.6228 10.5422 24.7822 10.2615 20.3366C10.0252 16.5951 12.4821 12.8047 17.9033 12.4624C19.9922 12.3306 21.0619 12.8638 21.0619 12.8638Z" fill="white"/>
</svg>
