<svg width="40" height="40" viewBox="0 0 40 40" fill="none" xmlns="http://www.w3.org/2000/svg">
<path d="M4.28571 15.7143C4.28571 7.03571 11.3214 0 20 0C28.6786 0 35.7143 7.03571 35.7143 15.7143V17.3229C38.1786 17.9571 40 20.1943 40 22.8571V28.5714C40.0001 29.4038 39.8185 30.2261 39.4676 30.9809C39.1168 31.7357 38.6053 32.4048 37.9689 32.9413C37.3326 33.4778 36.5867 33.8688 35.7834 34.087C34.9801 34.3051 34.1389 34.3452 33.3186 34.2043C32.3487 36.0366 30.8759 37.554 29.0734 38.5781C27.2708 39.6023 25.2134 40.0906 23.1429 39.9857C23.0479 39.9952 22.9526 40 22.8571 40H20C19.2422 40 18.5155 39.699 17.9797 39.1632C17.4439 38.6273 17.1429 37.9006 17.1429 37.1429C17.1429 36.3851 17.4439 35.6584 17.9797 35.1226C18.5155 34.5867 19.2422 34.2857 20 34.2857H22.8571C23.5706 34.2857 24.2583 34.5527 24.7849 35.0341C25.3116 35.5155 25.639 36.1765 25.7029 36.8871C26.7549 36.6161 27.7409 36.1342 28.6011 35.4707C29.4613 34.8071 30.1778 33.9758 30.7071 33.0271C30.0398 32.4921 29.5014 31.8139 29.1317 31.0426C28.762 30.2713 28.5705 29.4267 28.5714 28.5714V22.8571C28.5716 21.5902 28.9926 20.3592 29.7683 19.3575C30.5441 18.3557 31.6305 17.6401 32.8571 17.3229V15.7143C32.8571 12.3044 31.5026 9.03409 29.0914 6.62291C26.6802 4.21173 23.4099 2.85714 20 2.85714C16.5901 2.85714 13.3198 4.21173 10.9086 6.62291C8.49745 9.03409 7.14286 12.3044 7.14286 15.7143V17.3229C9.60714 17.9571 11.4286 20.1943 11.4286 22.8571V28.5714C11.4286 30.087 10.8265 31.5404 9.7549 32.612C8.68326 33.6837 7.22981 34.2857 5.71429 34.2857C4.19876 34.2857 2.74531 33.6837 1.67368 32.612C0.602039 31.5404 0 30.087 0 28.5714V22.8571C0.000168497 21.5902 0.421177 20.3592 1.1969 19.3575C1.97262 18.3557 3.05911 17.6401 4.28571 17.3229V15.7143Z" fill="#51A2FF"/>
</svg>
