<svg width="40" height="40" viewBox="0 0 40 40" fill="none" xmlns="http://www.w3.org/2000/svg">
<path fill-rule="evenodd" clip-rule="evenodd" d="M20 8.01172C14.666 8.01172 11.334 10.6617 10 15.9637C12 13.3137 14.334 12.3197 17 12.9817C18.522 13.3597 19.61 14.4577 20.812 15.6717C22.774 17.6497 25.044 19.9397 30 19.9397C35.334 19.9397 38.666 17.2897 40 11.9877C38 14.6377 35.668 15.6317 33 14.9697C31.478 14.5917 30.39 13.4937 29.186 12.2797C27.226 10.2997 24.958 8.01172 20 8.01172ZM10 19.9397C4.666 19.9397 1.334 22.5897 0 27.8917C2 25.2397 4.334 24.2477 7 24.9097C8.522 25.2877 9.61 26.3857 10.814 27.5997C12.774 29.5777 15.044 31.8677 20.002 31.8677C25.336 31.8677 28.668 29.2177 30.002 23.9157C28.002 26.5657 25.668 27.5597 23.002 26.8977C21.48 26.5197 20.392 25.4217 19.19 24.2077C17.226 22.2297 14.956 19.9397 10 19.9397Z" fill="#00BCFF"/>
</svg>
