<svg width="40" height="40" viewBox="0 0 40 40" fill="none" xmlns="http://www.w3.org/2000/svg">
<path d="M9.16577 19.25H9.16772C10.6512 19.2471 12.0883 19.7686 13.2244 20.7227C14.3604 21.6767 15.1222 23.0022 15.3757 24.4639V24.4648L15.739 26.5381C15.7642 26.6851 15.7455 26.8352 15.6863 26.9697L15.614 27.0977C15.4629 27.3124 14.0872 29.083 9.16675 29.083C4.24241 29.083 2.87009 27.3096 2.72437 27.0996L2.72339 27.0986L2.65015 26.9697C2.59098 26.8352 2.57224 26.685 2.59741 26.5381L2.96069 24.4648V24.4639C3.2141 23.0027 3.97574 21.6777 5.11108 20.7236C6.24643 19.7696 7.68284 19.2479 9.16577 19.25ZM30.8328 19.25H30.8347C32.318 19.2472 33.7545 19.7688 34.8904 20.7227C36.0264 21.6768 36.7892 23.0021 37.0427 24.4639V24.4658L37.4089 26.5391C37.4339 26.6858 37.4153 26.8354 37.3562 26.9697L37.2839 27.0977C37.1327 27.3125 35.7569 29.083 30.8367 29.083C25.9163 29.083 24.5406 27.3124 24.3894 27.0977H24.3884C24.275 26.9349 24.2309 26.7337 24.2644 26.5381L24.6277 24.4648V24.4639C24.8811 23.0027 25.6427 21.6777 26.7781 20.7236C27.9135 19.7696 29.3498 19.2478 30.8328 19.25Z" fill="#51A2FF" stroke="black"/>
<path d="M9.16638 9.25C11.4214 9.25 13.2502 11.078 13.2504 13.333C13.2504 15.5882 11.4215 17.417 9.16638 17.417C6.91137 17.4168 5.08337 15.5881 5.08337 13.333C5.08355 11.0781 6.91148 9.25018 9.16638 9.25Z" fill="#51A2FF" stroke="black"/>
<path d="M30.833 9.25C33.0881 9.25 34.9168 11.078 34.917 13.333C34.917 15.5882 33.0882 17.417 30.833 17.417C28.578 17.4168 26.75 15.5881 26.75 13.333C26.7502 11.0781 28.5781 9.25018 30.833 9.25Z" fill="#51A2FF" stroke="black"/>
<path d="M20.8862 19.25L21.2192 19.2588C22.8826 19.3409 24.4741 19.9786 25.7368 21.0742C27.0836 22.2428 27.9674 23.8551 28.2271 25.6191L29.0796 31.5586V31.5596C29.0959 31.6748 29.0853 31.7929 29.0483 31.9033C29.0114 32.0136 28.9491 32.1141 28.8667 32.1963L28.8657 32.1973C28.6556 32.4084 26.767 34.083 20.0034 34.083C13.2408 34.083 11.3459 32.4021 11.1401 32.1963L11.0815 32.1309C11.0277 32.0629 10.9862 31.9859 10.9585 31.9033C10.9215 31.7929 10.911 31.6748 10.9272 31.5596L10.9263 31.5586L11.7769 25.6191C12.0365 23.8552 12.9195 22.2427 14.2661 21.0742C15.5288 19.9787 17.1205 19.341 18.7837 19.2588L19.1177 19.25H20.8862Z" fill="#FF8904" stroke="black"/>
<path d="M20 5.91797C23.1756 5.91797 25.75 8.49233 25.75 11.668C25.75 14.8436 23.1756 17.418 20 17.418C16.8244 17.418 14.25 14.8436 14.25 11.668C14.25 8.49233 16.8244 5.91797 20 5.91797Z" fill="#FF8904" stroke="black"/>
</svg>
