<svg width="40" height="40" viewBox="0 0 40 40" fill="none" xmlns="http://www.w3.org/2000/svg">
<path fill-rule="evenodd" clip-rule="evenodd" d="M1.5 0H38.5C39.3284 0 40 0.671572 40 1.5V38.5C40 39.3285 39.3284 40 38.5 40H1.5C0.671572 40 0 39.3285 0 38.5V1.5C0 0.671572 0.671572 0 1.5 0ZM22.2357 21.2806V18H7.99999V21.2806H13.0824V35.8877H17.1284V21.2806H22.2357ZM23.8488 35.502C24.5012 35.8346 25.2729 36.0842 26.1637 36.2505C27.0547 36.4168 27.9935 36.5 28.9806 36.5C29.9426 36.5 30.8564 36.4085 31.7222 36.2255C32.5879 36.0426 33.347 35.7411 33.9994 35.3211C34.6519 34.9011 35.1684 34.3523 35.549 33.6745C35.9296 32.9966 36.1199 32.1588 36.1199 31.1608C36.1199 30.4372 36.0112 29.8032 35.7937 29.2585C35.5763 28.7137 35.2626 28.2292 34.8527 27.8051C34.4429 27.3809 33.9514 27.0005 33.3783 26.6637C32.8053 26.3269 32.1593 26.0088 31.4399 25.7094C30.9128 25.4931 30.4402 25.2831 30.022 25.0794C29.6037 24.8757 29.2482 24.6677 28.9555 24.4557C28.6627 24.2435 28.437 24.0191 28.278 23.782C28.119 23.5451 28.0396 23.2768 28.0396 22.9774C28.0396 22.7029 28.1107 22.4555 28.2529 22.2352C28.3951 22.0148 28.5958 21.8255 28.8551 21.6675C29.1145 21.5095 29.4323 21.3869 29.8088 21.2995C30.1851 21.2123 30.6034 21.1686 31.0634 21.1686C31.3981 21.1686 31.7514 21.1935 32.1237 21.2434C32.4959 21.2934 32.8703 21.3703 33.2466 21.4742C33.6231 21.5782 33.9891 21.7091 34.3446 21.8672C34.7001 22.0252 35.0284 22.2082 35.3295 22.416V18.6862C34.7188 18.4532 34.0518 18.2806 33.3281 18.1685C32.6047 18.0562 31.7744 18 30.8375 18C29.884 18 28.9806 18.1018 28.1274 18.3057C27.2742 18.5094 26.5235 18.8275 25.8752 19.26C25.2268 19.6925 24.7145 20.2434 24.3382 20.9128C23.9617 21.5823 23.7735 22.3828 23.7735 23.3142C23.7735 24.5035 24.1185 25.5182 24.8087 26.358C25.4988 27.198 26.5464 27.9091 27.9517 28.4912C28.5039 28.7158 29.0182 28.9362 29.4951 29.1525C29.9718 29.3686 30.3838 29.5932 30.7309 29.826C31.078 30.0589 31.352 30.3125 31.5528 30.5869C31.7536 30.8614 31.854 31.1732 31.854 31.5226C31.854 31.7805 31.7911 32.0195 31.6656 32.2398C31.5402 32.4603 31.3499 32.6515 31.0947 32.8137C30.8396 32.9758 30.5219 33.1028 30.1413 33.1942C29.7607 33.2857 29.3151 33.3314 28.8049 33.3314C27.935 33.3314 27.0734 33.1797 26.2202 32.8762C25.3671 32.5726 24.5765 32.1172 23.8488 31.5102V35.502Z" fill="#3178C6"/>
</svg>
