<svg width="40" height="40" viewBox="0 0 40 40" fill="none" xmlns="http://www.w3.org/2000/svg">
<path d="M14.5455 31.8178L10.4546 23.636L19.091 6.36328V21.0951C18.6124 21.304 18.2204 21.6712 17.9808 22.1351C17.7411 22.599 17.6686 23.1313 17.7753 23.6424C17.8819 24.1536 18.1614 24.6124 18.5665 24.9417C18.9717 25.271 19.4779 25.4508 20 25.4508C20.5222 25.4508 21.0284 25.271 21.4336 24.9417C21.8387 24.6124 22.1182 24.1536 22.2248 23.6424C22.3315 23.1313 22.2589 22.599 22.0193 22.1351C21.7797 21.6712 21.3877 21.304 20.9091 21.0951V6.36328L29.5455 23.636L25.4546 31.8178H14.5455ZM13.6364 34.5451H26.3637V39.0906H13.6364V34.5451Z" fill="#EFB100"/>
<path d="M12.2728 31.8164H27.7273V34.5437H12.2728V31.8164Z" fill="#51A2FF"/>
<path d="M18.6364 0.90625H21.3637V3.63352H18.6364V0.90625ZM4.09094 16.8153H6.81822V19.5426H4.09094V16.8153ZM33.1819 16.8153H35.9091V19.5426H33.1819V16.8153Z" fill="#51A2FF"/>
<path d="M34.5455 3.63352C35.2986 3.63352 35.9091 3.023 35.9091 2.26989C35.9091 1.51677 35.2986 0.90625 34.5455 0.90625C33.7923 0.90625 33.1818 1.51677 33.1818 2.26989C33.1818 3.023 33.7923 3.63352 34.5455 3.63352Z" fill="#51A2FF"/>
<path d="M5.45458 3.63352C6.20769 3.63352 6.81822 3.023 6.81822 2.26989C6.81822 1.51677 6.20769 0.90625 5.45458 0.90625C4.70146 0.90625 4.09094 1.51677 4.09094 2.26989C4.09094 3.023 4.70146 3.63352 5.45458 3.63352Z" fill="#51A2FF"/>
<path d="M21.3159 6.15804C21.2702 6.06632 21.1948 5.99274 21.102 5.94923C21.0092 5.90573 20.9045 5.89486 20.8047 5.91839C20.705 5.94192 20.6161 5.99846 20.5526 6.07885C20.489 6.15923 20.4545 6.25874 20.4545 6.36122V21.093C20.4546 21.181 20.4801 21.2671 20.5282 21.3409C20.5762 21.4146 20.6445 21.4729 20.725 21.5085C21.1083 21.6751 21.4224 21.9687 21.6146 22.3399C21.8067 22.711 21.8652 23.137 21.7801 23.5461C21.695 23.9553 21.4715 24.3227 21.1473 24.5864C20.8231 24.8501 20.4179 24.9941 20 24.9941C19.5821 24.9941 19.1769 24.8501 18.8527 24.5864C18.5285 24.3227 18.305 23.9553 18.2199 23.5461C18.1348 23.137 18.1933 22.711 18.3854 22.3399C18.5776 21.9687 18.8917 21.6751 19.275 21.5085C19.3555 21.4729 19.4238 21.4146 19.4718 21.3409C19.5199 21.2671 19.5454 21.181 19.5455 21.093V6.36122C19.5453 6.2589 19.5107 6.15962 19.4472 6.07942C19.3836 5.99923 19.2949 5.94282 19.1953 5.91931C19.0957 5.89581 18.9911 5.90659 18.8984 5.94992C18.8058 5.99324 18.7304 6.06657 18.6845 6.15804L10.0482 23.4308C10.0167 23.4939 10.0002 23.5634 10.0002 23.6339C10.0002 23.7045 10.0167 23.774 10.0482 23.8371L13.81 31.3612H12.2727C12.1522 31.3612 12.0366 31.4091 11.9513 31.4944C11.8661 31.5796 11.8182 31.6952 11.8182 31.8158V34.543C11.8182 34.6636 11.8661 34.7792 11.9513 34.8645C12.0366 34.9497 12.1522 34.9976 12.2727 34.9976H13.1818V39.0885C13.1818 39.209 13.2297 39.3247 13.315 39.4099C13.4002 39.4952 13.5158 39.543 13.6364 39.543C13.7569 39.543 13.8725 39.4952 13.9578 39.4099C14.043 39.3247 14.0909 39.209 14.0909 39.0885V34.9976H25.9091V39.0885C25.9091 39.209 25.957 39.3247 26.0422 39.4099C26.1275 39.4952 26.2431 39.543 26.3636 39.543C26.4842 39.543 26.5998 39.4952 26.6851 39.4099C26.7703 39.3247 26.8182 39.209 26.8182 39.0885V34.9976H27.7273C27.8478 34.9976 27.9634 34.9497 28.0487 34.8645C28.1339 34.7792 28.1818 34.6636 28.1818 34.543V31.8158C28.1818 31.6952 28.1339 31.5796 28.0487 31.4944C27.9634 31.4091 27.8478 31.3612 27.7273 31.3612H26.19L29.9523 23.8371C29.9838 23.774 30.0002 23.7045 30.0002 23.6339C30.0002 23.5634 29.9838 23.4939 29.9523 23.4308L21.3159 6.15804ZM27.2727 34.0885H12.7273V32.2703H27.2727V34.0885ZM25.1736 31.3612H14.8264L10.9627 23.6339L18.6364 8.28668V20.8158C18.1164 21.1159 17.7101 21.5793 17.4803 22.134C17.2506 22.6886 17.2103 23.3036 17.3657 23.8835C17.521 24.4634 17.8634 24.9759 18.3397 25.3413C18.816 25.7068 19.3996 25.9049 20 25.9049C20.6004 25.9049 21.184 25.7068 21.6603 25.3413C22.1366 24.9759 22.479 24.4634 22.6343 23.8835C22.7897 23.3036 22.7494 22.6886 22.5197 22.134C22.2899 21.5793 21.8836 21.1159 21.3636 20.8158V8.28668L29.0373 23.6339L25.1736 31.3612Z" fill="#32233F"/>
<path d="M35.9091 16.3622H34.9896C34.9134 13.3657 33.9359 10.4617 32.1844 8.02919C30.433 5.59663 27.989 3.74848 25.1714 2.72586H32.7918C32.9025 3.15434 33.1656 3.52776 33.5318 3.77613C33.8981 4.0245 34.3424 4.13076 34.7814 4.075C35.2204 4.01924 35.624 3.80528 35.9165 3.47324C36.2091 3.14119 36.3705 2.71384 36.3705 2.27131C36.3705 1.82878 36.2091 1.40144 35.9165 1.06939C35.624 0.737339 35.2204 0.523382 34.7814 0.467621C34.3424 0.41186 33.8981 0.518123 33.5318 0.766492C33.1656 1.01486 32.9025 1.38828 32.7918 1.81677H21.8182V0.907675C21.8182 0.787122 21.7703 0.671507 21.6851 0.586263C21.5998 0.501019 21.4842 0.453129 21.3637 0.453129H18.6364C18.5158 0.453129 18.4002 0.501019 18.315 0.586263C18.2297 0.671507 18.1818 0.787122 18.1818 0.907675V1.81677H7.20821C7.09757 1.38828 6.83447 1.01486 6.4682 0.766492C6.10194 0.518123 5.65767 0.41186 5.21866 0.467621C4.77965 0.523382 4.37605 0.737339 4.08351 1.06939C3.79097 1.40144 3.62958 1.82878 3.62958 2.27131C3.62958 2.71384 3.79097 3.14119 4.08351 3.47324C4.37605 3.80528 4.77965 4.01924 5.21866 4.075C5.65767 4.13076 6.10194 4.0245 6.4682 3.77613C6.83447 3.52776 7.09757 3.15434 7.20821 2.72586H14.8287C12.011 3.74848 9.56704 5.59663 7.81561 8.02919C6.06417 10.4617 5.08661 13.3657 5.01048 16.3622H4.09093C3.97038 16.3622 3.85477 16.4101 3.76952 16.4954C3.68428 16.5806 3.63639 16.6962 3.63639 16.8168V19.544C3.63639 19.6646 3.68428 19.7802 3.76952 19.8655C3.85477 19.9507 3.97038 19.9986 4.09093 19.9986H6.81821C6.93876 19.9986 7.05437 19.9507 7.13962 19.8655C7.22486 19.7802 7.27275 19.6646 7.27275 19.544V16.8168C7.27275 16.6962 7.22486 16.5806 7.13962 16.4954C7.05437 16.4101 6.93876 16.3622 6.81821 16.3622H5.91957C6.01078 13.0155 7.29769 9.81223 9.54715 7.33262C11.7966 4.85302 14.8598 3.26114 18.1818 2.8454V3.63495C18.1818 3.7555 18.2297 3.87112 18.315 3.95636C18.4002 4.0416 18.5158 4.08949 18.6364 4.08949H21.3637C21.4842 4.08949 21.5998 4.0416 21.6851 3.95636C21.7703 3.87112 21.8182 3.7555 21.8182 3.63495V2.8454C25.1402 3.26114 28.2034 4.85302 30.4529 7.33262C32.7024 9.81223 33.9893 13.0155 34.0805 16.3622H33.1818C33.0613 16.3622 32.9457 16.4101 32.8604 16.4954C32.7752 16.5806 32.7273 16.6962 32.7273 16.8168V19.544C32.7273 19.6646 32.7752 19.7802 32.8604 19.8655C32.9457 19.9507 33.0613 19.9986 33.1818 19.9986H35.9091C36.0297 19.9986 36.1453 19.9507 36.2305 19.8655C36.3158 19.7802 36.3637 19.6646 36.3637 19.544V16.8168C36.3637 16.6962 36.3158 16.5806 36.2305 16.4954C36.1453 16.4101 36.0297 16.3622 35.9091 16.3622ZM6.36366 19.0895H4.54548V17.2713H6.36366V19.0895ZM34.5455 1.36222C34.7253 1.36222 34.901 1.41554 35.0505 1.51543C35.2 1.61532 35.3166 1.7573 35.3854 1.92342C35.4542 2.08953 35.4722 2.27232 35.4371 2.44867C35.402 2.62501 35.3154 2.787 35.1883 2.91414C35.0612 3.04127 34.8992 3.12786 34.7228 3.16293C34.5465 3.19801 34.3637 3.18001 34.1976 3.1112C34.0315 3.04239 33.8895 2.92587 33.7896 2.77638C33.6897 2.62688 33.6364 2.45111 33.6364 2.27131C33.6366 2.03028 33.7325 1.79919 33.9029 1.62875C34.0734 1.45832 34.3044 1.36246 34.5455 1.36222ZM5.45457 3.1804C5.27477 3.1804 5.09901 3.12708 4.94951 3.02719C4.80001 2.9273 4.68349 2.78532 4.61468 2.61921C4.54587 2.45309 4.52787 2.2703 4.56295 2.09396C4.59802 1.91761 4.68461 1.75563 4.81175 1.62849C4.93888 1.50135 5.10087 1.41477 5.27722 1.37969C5.45356 1.34461 5.63635 1.36261 5.80246 1.43142C5.96858 1.50023 6.11056 1.61675 6.21045 1.76625C6.31034 1.91575 6.36366 2.09151 6.36366 2.27131C6.36342 2.51234 6.26756 2.74343 6.09713 2.91387C5.92669 3.08431 5.6956 3.18016 5.45457 3.1804ZM20.9091 3.1804H19.0909V1.36222H20.9091V3.1804ZM35.4546 19.0895H33.6364V17.2713H35.4546V19.0895Z" fill="#32233F"/>
</svg>
