<svg width="40" height="40" viewBox="0 0 40 40" fill="none" xmlns="http://www.w3.org/2000/svg">
<path d="M32.7117 14.5867C32.453 15.3793 32.0097 16.0991 31.4183 16.6867C30.8269 17.2744 30.1043 17.7131 29.31 17.9667C28.1654 18.3446 26.9271 18.3286 25.7926 17.9212C24.6581 17.5137 23.6926 16.7382 23.05 15.7183C23.0061 15.6423 22.983 15.5561 22.983 15.4683C22.983 15.3806 23.0061 15.2943 23.05 15.2183C24.0659 13.3937 24.4192 11.2738 24.05 9.21833C24.0334 9.13339 24.039 9.04557 24.0665 8.96348C24.094 8.88138 24.1423 8.80782 24.2067 8.75C25.1542 7.94476 26.3566 7.50181 27.6 7.5C28.453 7.50069 29.2937 7.70381 30.0529 8.09267C30.8121 8.48153 31.4681 9.04503 31.9671 9.73683C32.4662 10.4286 32.7938 11.229 32.9233 12.0721C33.0527 12.9152 32.9802 13.777 32.7117 14.5867Z" fill="#FF8904"/>
<path d="M37.5 27.8011C37.5717 28.4387 37.4982 29.0841 37.2851 29.6893C37.0721 30.2944 36.725 30.8435 36.2697 31.2955C35.8145 31.7476 35.2629 32.0908 34.6563 32.2996C34.0497 32.5084 33.4037 32.5773 32.7667 32.5011H30.3334C30.2683 32.5009 30.2039 32.4878 30.144 32.4624C30.0841 32.4371 30.0298 32.4 29.9844 32.3535C29.9389 32.307 29.9032 32.2518 29.8793 32.1913C29.8553 32.1308 29.8437 32.0662 29.845 32.0011C29.8443 31.9333 29.8516 31.8656 29.8667 31.7995C29.9632 31.2162 30.0078 30.6256 30 30.0345C30.0395 28.4347 29.7575 26.8433 29.1706 25.3546C28.5837 23.8659 27.7039 22.5102 26.5834 21.3678L26.5334 21.3178C26.4845 21.2738 26.4457 21.2197 26.4198 21.1593C26.3939 21.0989 26.3815 21.0335 26.3834 20.9678C26.3834 20.8352 26.436 20.708 26.5298 20.6142C26.6236 20.5205 26.7508 20.4678 26.8834 20.4678H30.1834C31.1622 20.4038 32.1434 20.5498 33.0613 20.8959C33.9791 21.242 34.8123 21.7803 35.5052 22.4747C36.198 23.1692 36.7344 24.0036 37.0785 24.9223C37.4225 25.8409 37.5662 26.8224 37.5 27.8011Z" fill="#51A2FF"/>
<path d="M15.0166 17.5013C18.6985 17.5013 21.6833 14.5165 21.6833 10.8346C21.6833 7.15274 18.6985 4.16797 15.0166 4.16797C11.3347 4.16797 8.34998 7.15274 8.34998 10.8346C8.34998 14.5165 11.3347 17.5013 15.0166 17.5013Z" fill="#FF8904"/>
<path d="M27.5 30.0359C27.5 33.8359 25.4833 35.8359 21.6667 35.8359H8.33333C4.51667 35.8359 2.5 33.8359 2.5 30.0359C2.5 25.7859 4.9 20.8359 11.6667 20.8359H18.3333C25.1 20.8359 27.5 25.7859 27.5 30.0359Z" fill="#51A2FF"/>
</svg>
