<svg width="40" height="40" viewBox="0 0 40 40" fill="none" xmlns="http://www.w3.org/2000/svg">
<path d="M30 0H10C4.47715 0 0 4.47715 0 10V30C0 35.5228 4.47715 40 10 40H30C35.5228 40 40 35.5228 40 30V10C40 4.47715 35.5228 0 30 0Z" fill="black"/>
<path d="M13.9999 25.5005C13.8029 25.5006 13.6078 25.4618 13.4258 25.3865C13.2437 25.3112 13.0783 25.2007 12.9389 25.0615L8.93895 21.0615C8.79956 20.9222 8.68898 20.7568 8.61354 20.5747C8.5381 20.3927 8.49927 20.1975 8.49927 20.0005C8.49927 19.8034 8.5381 19.6083 8.61354 19.4262C8.68898 19.2442 8.79956 19.0788 8.93895 18.9395L12.9389 14.9395C13.2203 14.6581 13.602 14.5 13.9999 14.5C14.3979 14.5 14.7796 14.6581 15.0609 14.9395C15.3423 15.2209 15.5004 15.6025 15.5004 16.0005C15.5004 16.3984 15.3423 16.7801 15.0609 17.0615L12.1209 20.0005L15.0609 22.9395C15.2709 23.1493 15.4138 23.4166 15.4718 23.7077C15.5297 23.9987 15.5 24.3004 15.3864 24.5746C15.2728 24.8488 15.0805 25.0831 14.8337 25.2479C14.5869 25.4127 14.2967 25.5006 13.9999 25.5005ZM25.9999 25.5005C25.7032 25.5006 25.413 25.4127 25.1662 25.2479C24.9194 25.0831 24.7271 24.8488 24.6135 24.5746C24.4999 24.3004 24.4702 23.9987 24.5281 23.7077C24.5861 23.4166 24.729 23.1493 24.9389 22.9395L27.8789 20.0005L24.9389 17.0615C24.7996 16.9221 24.6891 16.7567 24.6137 16.5747C24.5383 16.3926 24.4995 16.1975 24.4995 16.0005C24.4995 15.8034 24.5383 15.6083 24.6137 15.4263C24.6891 15.2442 24.7996 15.0788 24.9389 14.9395C25.2203 14.6581 25.602 14.5 25.9999 14.5C26.197 14.5 26.3921 14.5388 26.5742 14.6142C26.7562 14.6896 26.9216 14.8001 27.0609 14.9395L31.0609 18.9395C31.2003 19.0788 31.3109 19.2442 31.3864 19.4262C31.4618 19.6083 31.5006 19.8034 31.5006 20.0005C31.5006 20.1975 31.4618 20.3927 31.3864 20.5747C31.3109 20.7568 31.2003 20.9222 31.0609 21.0615L27.0609 25.0615C26.9216 25.2007 26.7562 25.3112 26.5741 25.3865C26.3921 25.4618 26.197 25.5006 25.9999 25.5005Z" fill="white"/>
<path d="M18 28.5014C17.8603 28.5012 17.7214 28.4817 17.587 28.4434C17.2046 28.334 16.8813 28.0773 16.6882 27.7296C16.495 27.382 16.4478 26.9718 16.557 26.5894L20.557 12.5894C20.608 12.3965 20.6969 12.2157 20.8186 12.0577C20.9403 11.8996 21.0923 11.7674 21.2657 11.6687C21.4392 11.5701 21.6305 11.5071 21.8286 11.4833C22.0267 11.4596 22.2275 11.4756 22.4193 11.5304C22.6111 11.5852 22.7901 11.6777 22.9457 11.8025C23.1013 11.9273 23.2305 12.0819 23.3257 12.2573C23.4208 12.4326 23.48 12.6252 23.4998 12.8237C23.5196 13.0222 23.4996 13.2227 23.441 13.4134L19.441 27.4134C19.3516 27.7266 19.1625 28.0022 18.9026 28.1985C18.6426 28.3948 18.3258 28.5011 18 28.5014Z" fill="white"/>
</svg>
