<svg width="40" height="40" viewBox="0 0 40 40" fill="none" xmlns="http://www.w3.org/2000/svg">
<rect x="0.65" y="1.65" width="38.7" height="36.5621" rx="2.85" stroke="black" stroke-width="0.7"/>
<path d="M36.6829 37.8621H3.31707C2.03735 37.8621 1 36.8248 1 35.545V4.31707C1 3.03735 2.03735 2 3.31707 2H36.6829C37.9626 2 39 3.03735 39 4.31707V35.545C39 36.8248 37.9626 37.8621 36.6829 37.8621Z" fill="white"/>
<path d="M39 4.31707C39 3.03735 37.9626 2 36.6829 2H3.31707C2.03735 2 1 3.03735 1 4.31707L8.76922 8.82448H39V4.31707Z" fill="#C7C7FF"/>
<path d="M10.8139 2H3.31707C2.03735 2 1 3.03735 1 4.31707V8.82448H8.76922C9.20391 6.48287 9.88941 4.19486 10.8139 2Z" fill="#6864F7"/>
<path d="M11.9727 31.6859L13.8211 22.8984L5.03364 24.7468L7.80509 26.0395L4.41235 29.4323L7.28722 32.3071L10.68 28.9144L11.9727 31.6859Z" fill="#FDCB50"/>
<path d="M9.3929 23.832L5.03364 24.749L7.80501 26.0417L4.41235 29.4345L7.2873 32.3094L10.68 28.9167L11.9728 31.6881L12.1664 30.768C10.984 28.5676 10.0536 26.2409 9.3929 23.832Z" fill="#FD8F01"/>
<path d="M17.4353 20.7801H22.5648V25.9096H17.4353V20.7801ZM17.4353 12.2383H22.5648V17.3678H17.4353V12.2383ZM17.4353 29.3219H22.5648V34.4514H17.4353V29.3219Z" fill="#93B2F4"/>
<path d="M11.9727 31.6859L13.8211 22.8984L5.03364 24.7468L7.80509 26.0395L4.41235 29.4323L7.28722 32.3071L10.68 28.9144L11.9727 31.6859Z" stroke="#052A75" stroke-width="1.48293" stroke-miterlimit="10" stroke-linecap="round" stroke-linejoin="round"/>
<path d="M35.5878 16.4049H26.1814M26.1814 13.6055H32.1295M35.5878 24.7424H26.1814M26.1814 21.943H32.1295M35.5878 33.0799H26.1814M26.1814 30.2805H32.1295" stroke="#6864F7" stroke-width="1.48293" stroke-miterlimit="10" stroke-linecap="round" stroke-linejoin="round"/>
<path d="M26.1814 5.79688H35.5878" stroke="#FDCB50" stroke-width="1.48293" stroke-miterlimit="10" stroke-linecap="round" stroke-linejoin="round"/>
</svg>
