<svg width="40" height="40" viewBox="0 0 40 40" fill="none" xmlns="http://www.w3.org/2000/svg">
<g clip-path="url(#clip0_2382_1790)">
<path d="M20.8594 39.1406C31.4305 39.1406 40 30.5711 40 20C40 9.42892 31.4305 0.859375 20.8594 0.859375C10.2883 0.859375 1.71875 9.42892 1.71875 20C1.71875 30.5711 10.2883 39.1406 20.8594 39.1406Z" fill="#69CDFF"/>
<path d="M14.5094 28.0117H20.6586V31.2328H14.5094V28.0117Z" fill="#445EA0"/>
<path d="M14.5094 28.0117H16.0596V31.2328H14.5094V28.0117Z" fill="#2E4C89"/>
<path d="M24.7544 31.1523H9.96565C9.74644 31.1523 9.56714 31.3317 9.56714 31.5509V33.5487C9.56714 33.7679 9.74651 33.9473 9.96565 33.9473H24.7544V31.1523Z" fill="#293D7C"/>
<path d="M11.1173 33.5487V31.5509C11.1173 31.3317 11.2967 31.1523 11.5159 31.1523H9.96565C9.74644 31.1523 9.56714 31.3317 9.56714 31.5509V33.5487C9.56714 33.7679 9.74651 33.9473 9.96565 33.9473H11.5158C11.2967 33.9473 11.1173 33.7679 11.1173 33.5487Z" fill="#1A2B63"/>
<path d="M34.7698 4.60547H0.398594C0.179375 4.60547 0 4.78484 0 5.00406V27.6888C0.000288651 27.7944 0.0423759 27.8956 0.117064 27.9703C0.191753 28.045 0.292969 28.0871 0.398594 28.0873H24.7544V16.1527C24.7544 15.8512 24.9997 15.6058 25.3012 15.6058H35.1684V5.00406C35.1684 4.78484 34.9891 4.60547 34.7698 4.60547Z" fill="#293D7C"/>
<path d="M1.74963 24.1028C1.74982 24.1662 1.77508 24.2269 1.81989 24.2717C1.8647 24.3165 1.92541 24.3417 1.98877 24.3419H24.7543V16.1539C24.7543 15.8524 24.9996 15.607 25.3012 15.607H33.4187V8.51562H1.74963V24.1028Z" fill="white"/>
<path d="M3.29987 24.1028V8.51562H1.74963V24.1028C1.74982 24.1662 1.77508 24.2269 1.81989 24.2717C1.8647 24.3165 1.92541 24.3417 1.98877 24.3419H3.53901C3.47566 24.3417 3.41495 24.3164 3.37014 24.2717C3.32534 24.2269 3.30007 24.1662 3.29987 24.1028Z" fill="#D9EAFC"/>
<path d="M17.5844 27.285C18.1787 27.285 18.6605 26.8032 18.6605 26.2089C18.6605 25.6146 18.1787 25.1328 17.5844 25.1328C16.9901 25.1328 16.5083 25.6146 16.5083 26.2089C16.5083 26.8032 16.9901 27.285 17.5844 27.285Z" fill="#445EA0"/>
<path d="M24.7543 17.4336H20.5806C20.4517 17.4336 20.3462 17.5391 20.3462 17.668V22.3273C20.3462 22.4562 20.4517 22.5616 20.5806 22.5616H24.7543V17.4336Z" fill="#C3DDF4"/>
<path d="M21.8963 22.3273V17.668C21.8963 17.5391 22.0018 17.4336 22.1307 17.4336H20.5806C20.4517 17.4336 20.3462 17.5391 20.3462 17.668V22.3273C20.3462 22.4562 20.4517 22.5616 20.5806 22.5616H22.1307C22.0018 22.5616 21.8963 22.4562 21.8963 22.3273Z" fill="#AEC1ED"/>
<path d="M25.3012 15.608H28.9432V10.5C28.9432 10.2852 28.7674 10.1094 28.5526 10.1094H6.61572C6.40088 10.1094 6.2251 10.2852 6.2251 10.5V15.6973C6.2251 15.9121 6.40088 16.0879 6.61572 16.0879H24.7589C24.7921 15.8179 25.0224 15.608 25.3012 15.608Z" fill="#C3DDF4"/>
<path d="M7.77525 15.6973V10.5C7.77525 10.2852 7.95104 10.1094 8.16588 10.1094H6.61572C6.40088 10.1094 6.2251 10.2852 6.2251 10.5V15.6973C6.2251 15.9121 6.40088 16.0879 6.61572 16.0879H8.16588C7.95104 16.0879 7.77525 15.9121 7.77525 15.6973Z" fill="#AEC1ED"/>
<path d="M33.1796 6.64062H1.98877C1.92539 6.64081 1.86466 6.66608 1.81985 6.7109C1.77504 6.75572 1.7498 6.81646 1.74963 6.87984V8.59492H33.4187V6.87984C33.4185 6.81646 33.3933 6.75572 33.3485 6.7109C33.3037 6.66608 33.2429 6.64081 33.1796 6.64062Z" fill="#FFAF10"/>
<path d="M3.53901 6.64062H1.98877C1.92539 6.64081 1.86466 6.66608 1.81985 6.7109C1.77504 6.75572 1.7498 6.81646 1.74963 6.87984V8.59492H3.29979V6.87984C3.29998 6.81646 3.32524 6.75572 3.37006 6.7109C3.41488 6.66607 3.47562 6.64081 3.53901 6.64062Z" fill="#FF9518"/>
<path d="M13.3988 18.6719H6.823C6.4994 18.6719 6.23706 18.4096 6.23706 18.0859C6.23706 17.7623 6.4994 17.5 6.823 17.5H13.3988C13.7224 17.5 13.9847 17.7623 13.9847 18.0859C13.9847 18.4096 13.7224 18.6719 13.3988 18.6719ZM13.3988 20.5849H6.823C6.4994 20.5849 6.23706 20.3227 6.23706 19.999C6.23706 19.6753 6.4994 19.413 6.823 19.413H13.3988C13.5542 19.413 13.7032 19.4748 13.8131 19.5847C13.923 19.6945 13.9847 19.8436 13.9847 19.999C13.9847 20.1544 13.923 20.3034 13.8131 20.4133C13.7032 20.5232 13.5542 20.5849 13.3988 20.5849ZM13.3988 22.498H6.823C6.4994 22.498 6.23706 22.2357 6.23706 21.912C6.23706 21.5884 6.4994 21.3261 6.823 21.3261H13.3988C13.7224 21.3261 13.9847 21.5884 13.9847 21.912C13.9847 22.2357 13.7224 22.498 13.3988 22.498ZM18.5594 18.6719H15.1746C14.851 18.6719 14.5886 18.4096 14.5886 18.0859C14.5886 17.7623 14.851 17.5 15.1746 17.5H18.5594C18.883 17.5 19.1453 17.7623 19.1453 18.0859C19.1453 18.4096 18.883 18.6719 18.5594 18.6719ZM18.5594 20.5849H15.1746C14.851 20.5849 14.5886 20.3227 14.5886 19.999C14.5886 19.6753 14.851 19.413 15.1746 19.413H18.5594C18.7148 19.413 18.8638 19.4748 18.9737 19.5847C19.0836 19.6945 19.1453 19.8436 19.1453 19.999C19.1453 20.1544 19.0836 20.3034 18.9737 20.4133C18.8638 20.5232 18.7148 20.5849 18.5594 20.5849ZM18.5594 22.498H15.1746C14.851 22.498 14.5886 22.2357 14.5886 21.912C14.5886 21.5884 14.851 21.3261 15.1746 21.3261H18.5594C18.883 21.3261 19.1453 21.5884 19.1453 21.912C19.1453 22.2357 18.883 22.498 18.5594 22.498Z" fill="#5DC1D8"/>
<path d="M39.375 15.5273C39.7188 15.5273 40 15.8086 40 16.1523V35.0406C40 35.3844 39.7188 35.6656 39.375 35.6656H25.3013C24.9575 35.6656 24.6763 35.3844 24.6763 35.0406V16.1523C24.6763 15.8086 24.9575 15.5273 25.3013 15.5273H39.375Z" fill="#445EA0"/>
<path d="M26.3724 33.2145C26.1576 33.2145 25.9818 33.0387 25.9818 32.8238V17.125C25.9818 16.9102 26.1576 16.7344 26.3724 16.7344H38.3039C38.5188 16.7344 38.6945 16.9102 38.6945 17.125V32.8238C38.6945 33.0387 38.5188 33.2145 38.3039 33.2145H26.3724Z" fill="white"/>
<path d="M27.532 32.8238V17.125C27.532 16.9102 27.7077 16.7344 27.9226 16.7344H26.3724C26.1576 16.7344 25.9818 16.9102 25.9818 17.125V32.8238C25.9818 33.0387 26.1576 33.2145 26.3724 33.2145H27.9226C27.7077 33.2145 27.532 33.0387 27.532 32.8238Z" fill="#D9EAFC"/>
<path d="M31.6068 34.777C31.392 34.777 31.2162 34.6012 31.2162 34.3863V34.2344C31.2162 34.0195 31.392 33.8438 31.6068 33.8438H33.0695C33.2844 33.8438 33.4602 34.0195 33.4602 34.2344V34.3863C33.4602 34.6012 33.2844 34.777 33.0695 34.777H31.6068Z" fill="#445EA0"/>
<path d="M38.6945 18.2416V17.125C38.6945 16.9102 38.5188 16.7344 38.3039 16.7344H26.3724C26.1576 16.7344 25.9818 16.9102 25.9818 17.125V18.2416H38.6945Z" fill="#FFAF10"/>
<path d="M27.9226 16.7344H26.3724C26.1576 16.7344 25.9818 16.9102 25.9818 17.125V18.2416H27.532V17.125C27.532 16.9102 27.7077 16.7344 27.9226 16.7344Z" fill="#FF9518"/>
<path d="M35.001 25.3867H29.6753C29.3517 25.3867 29.0894 25.1245 29.0894 24.8008C29.0894 24.4771 29.3517 24.2148 29.6753 24.2148H35.001C35.1564 24.2148 35.3054 24.2766 35.4153 24.3865C35.5252 24.4963 35.5869 24.6454 35.5869 24.8008C35.5869 24.9562 35.5252 25.1052 35.4153 25.2151C35.3054 25.325 35.1564 25.3867 35.001 25.3867ZM35.001 27.1935H29.6753C29.5199 27.1935 29.3709 27.1318 29.261 27.0219C29.1511 26.912 29.0894 26.763 29.0894 26.6076C29.0894 26.4522 29.1511 26.3031 29.261 26.1933C29.3709 26.0834 29.5199 26.0216 29.6753 26.0216H35.001C35.1564 26.0216 35.3054 26.0834 35.4153 26.1933C35.5252 26.3031 35.5869 26.4522 35.5869 26.6076C35.5869 26.763 35.5252 26.912 35.4153 27.0219C35.3054 27.1318 35.1564 27.1935 35.001 27.1935ZM35.001 29.0002H29.6753C29.5199 29.0002 29.3709 28.9384 29.261 28.8285C29.1511 28.7187 29.0894 28.5696 29.0894 28.4142C29.0894 28.2588 29.1511 28.1098 29.261 27.9999C29.3709 27.89 29.5199 27.8283 29.6753 27.8283H35.001C35.1564 27.8283 35.3054 27.89 35.4153 27.9999C35.5252 28.1098 35.5869 28.2588 35.5869 28.4142C35.5869 28.5696 35.5252 28.7187 35.4153 28.8285C35.3054 28.9384 35.1564 29.0002 35.001 29.0002Z" fill="#5DC1D8"/>
<path d="M37.481 22.8316C37.481 23.0464 37.3052 23.2222 37.0904 23.2222H27.5861C27.3712 23.2222 27.1954 23.0464 27.1954 22.8316V19.6094C27.1954 19.3945 27.3712 19.2188 27.5861 19.2188H37.0904C37.3052 19.2188 37.481 19.3945 37.481 19.6094V22.8316Z" fill="#C3DDF4"/>
<path d="M28.7456 22.8316V19.6094C28.7456 19.3945 28.9214 19.2188 29.1362 19.2188H27.5861C27.3712 19.2188 27.1954 19.3945 27.1954 19.6094V22.8316C27.1954 23.0464 27.3712 23.2222 27.5861 23.2222H29.1362C28.9214 23.2222 28.7456 23.0464 28.7456 22.8316Z" fill="#AEC1ED"/>
<path d="M36.0748 31.9852C36.0748 32.2 35.899 32.3758 35.6841 32.3758H28.9922C28.7773 32.3758 28.6016 32.2 28.6016 31.9852V30.6641C28.6016 30.4492 28.7773 30.2734 28.9922 30.2734H35.6841C35.899 30.2734 36.0748 30.4492 36.0748 30.6641V31.9852Z" fill="#C3DDF4"/>
<path d="M30.1517 31.9852V30.6641C30.1517 30.4492 30.3275 30.2734 30.5423 30.2734H28.9922C28.7773 30.2734 28.6016 30.4492 28.6016 30.6641V31.9852C28.6016 32.2 28.7773 32.3758 28.9922 32.3758H30.5423C30.3275 32.3758 30.1517 32.2 30.1517 31.9852Z" fill="#AEC1ED"/>
</g>
<defs>
<clipPath id="clip0_2382_1790">
<rect width="40" height="40" fill="white"/>
</clipPath>
</defs>
</svg>
